SplineFontDB: 2.0
FontName: Sawasdee-Bold
FullName: Sawasdee Bold
FamilyName: Sawasdee
Weight: Bold
Copyright: Created by Pol Udomwittayanukul,,, with FontForge 2.0 (http://fontforge.sf.net)
Version: 001.000
ItalicAngle: 0
UnderlinePosition: -75
UnderlineWidth: 50
Ascent: 750
Descent: 250
NeedsXUIDChange: 1
XUID: [1021 180 1442959360 14105406]
UniqueID: 4256560
FSType: 8
OS2Version: 0
OS2_WeightWidthSlopeOnly: 0
OS2_UseTypoMetrics: 1
CreationTime: 1178430034
ModificationTime: 1181212515
PfmFamily: 17
TTFWeight: 700
TTFWidth: 5
LineGap: 90
VLineGap: 0
OS2TypoAscent: 0
OS2TypoAOffset: 1
OS2TypoDescent: 0
OS2TypoDOffset: 1
OS2TypoLinegap: 90
OS2WinAscent: 0
OS2WinAOffset: 1
OS2WinDescent: 0
OS2WinDOffset: 1
HheadAscent: 2
HheadAOffset: 1
HheadDescent: 40
HheadDOffset: 1
OS2Vendor: 'PfEd'
Lookup: 4 0 1 "'liga' Standard Ligatures in Latin lookup 0"  {"'liga' Standard Ligatures in Latin lookup 0"  } ['liga' ('latn' <'dflt' > ) ]
Lookup: 4 0 0 "'frac' Diagonal Fractions in Latin lookup 42"  {"'frac' Diagonal Fractions in Latin lookup 42"  } ['frac' ('latn' <'dflt' > ) ]
Lookup: 6 0 0 "'ccmp' Glyph Composition/Decomposition in Thai lookup 0"  {"'ccmp' Glyph Composition/Decomposition in Thai lookup 0"  } ['ccmp' ('thai' <'KUY ' 'PAL ' 'THA ' 'dflt' > ) ]
Lookup: 6 0 0 "'ccmp' Glyph Composition/Decomposition in Thai lookup 1"  {"'ccmp' Glyph Composition/Decomposition in Thai lookup 1"  } ['ccmp' ('thai' <'KUY ' 'PAL ' 'THA ' 'dflt' > ) ]
Lookup: 5 0 0 "Required Feature in Thai lookup 2"  {"Required Feature in Thai lookup 2"  } [' RQD' ('thai' <'PAL ' > ) ]
Lookup: 1 0 0 "Single Substitution lookup 3"  {"Single Substitution lookup 3"  } []
Lookup: 1 0 0 "Single Substitution lookup 4"  {"Single Substitution lookup 4"  } []
Lookup: 2 0 0 "Multiple Substitution lookup 5"  {"Multiple Substitution lookup 5"  } []
Lookup: 1 0 0 "Single Substitution lookup 6"  {"Single Substitution lookup 6"  } []

StartChar: exclam
Encoding: 1 33 1
Width: 255
VWidth: 1333
Flags: HW
HStem: -5 106<90.3 165.7>
VStem: 75 106<10.3 85.7> 85 86<556.143 665> 99 58<157 265.857>
Fore
128 101 m 0xc0
 157 101 181 77 181 48 c 0
 181 19 157 -5 128 -5 c 0
 99 -5 75 19 75 48 c 0
 75 77 99 101 128 101 c 0xc0
157 157 m 1x90
 99 157 l 1x90
 85 665 l 1
 171 665 l 1xa0
 157 157 l 1x90
EndSplineSet
EndChar
StartChar: quotedbl
Encoding: 2 34 2
Width: 341
VWidth: 1333
Flags: HW
VStem: 73 195<709 709>
Fore
145 504 m 1
 89 504 l 1
 73 709 l 1
 161 709 l 1
 145 504 l 1
252 504 m 1
 196 504 l 1
 180 709 l 1
 268 709 l 1
 252 504 l 1
EndSplineSet
EndChar
StartChar: numbersign
Encoding: 3 35 3
Width: 477
VWidth: 1333
Flags: HW
HStem: -1 21G<26 101 213 286> 191 72<-16 76 166 262 352 447> 404 72<29 126 218 312 404 493> 648 20G<193 267 379 454>
Fore
286 -1 m 1
 213 -1 l 1
 262 191 l 1
 150 191 l 1
 101 -1 l 1
 26 -1 l 1
 76 191 l 1
 -16 191 l 1
 -16 263 l 1
 93 263 l 1
 126 404 l 1
 29 404 l 1
 29 476 l 1
 143 476 l 1
 193 668 l 1
 267 668 l 1
 218 476 l 1
 330 476 l 1
 379 668 l 1
 454 668 l 1
 404 476 l 1
 493 476 l 1
 493 404 l 1
 386 404 l 1
 352 263 l 1
 447 263 l 1
 447 191 l 1
 335 191 l 1
 286 -1 l 1
166 263 m 1
 278 263 l 1
 312 404 l 1
 199 404 l 1
 166 263 l 1
EndSplineSet
EndChar
StartChar: dollar
Encoding: 4 36 4
Width: 477
VWidth: 1333
Flags: HW
VStem: 71 71<458.6 562.6> 207 71<-61 -7 64 320 427 597 671 730> 390 72<106 281.5>
Fore
19 208 m 1
 89 217 l 1
 98 155 118 82 207 64 c 1
 207 351 l 1
 147 378 71 417 71 510 c 0
 71 588 125 657 207 671 c 1
 207 730 l 1
 278 730 l 1
 278 671 l 1
 391 648 420 549 426 532 c 1
 360 509 l 1
 356 520 340 580 279 600 c 1
 279 398 l 1
 362 364 462 320 462 200 c 0
 462 91 378 14 279 -2 c 1
 279 -61 l 1
 207 -61 l 1
 207 -7 l 1
 121 5 39 60 19 208 c 1
278 320 m 1
 278 64 l 1
 340 79 390 127 390 197 c 0
 390 262 342 292 278 320 c 1
207 427 m 1
 207 597 l 1
 167 585 142 550 142 508 c 0
 142 470 167 448 207 427 c 1
EndSplineSet
EndChar
StartChar: percent
Encoding: 5 37 5
Width: 649
VWidth: 1333
Flags: HW
HStem: -8 70<436.7 543.3> 202 70<436.7 543.3> 394 70<112.7 219.3> 604 70<112.7 219.3>
VStem: 22 71<484.6 584.7> 239 71<484.6 584.7> 346 71<82.6 182.7> 563 71<82.6 182.7>
Fore
634 132 m 0
 634 55 569 -8 490 -8 c 0
 411 -8 346 55 346 132 c 0
 346 209 411 272 490 272 c 0
 569 272 634 209 634 132 c 0
417 132 m 0
 417 94 449 62 490 62 c 0
 531 62 563 94 563 132 c 0
 563 171 531 202 490 202 c 0
 449 202 417 171 417 132 c 0
310 534 m 0
 310 457 245 394 166 394 c 0
 87 394 22 457 22 534 c 0
 22 612 87 674 166 674 c 0
 245 674 310 612 310 534 c 0
93 534 m 0
 93 496 125 464 166 464 c 0
 207 464 239 496 239 534 c 0
 239 573 207 604 166 604 c 0
 125 604 93 573 93 534 c 0
528 667 m 1
 614 667 l 1
 128 0 l 1
 42 0 l 1
 528 667 l 1
EndSplineSet
EndChar
StartChar: ampersand
Encoding: 6 38 6
Width: 671
VWidth: 1333
Flags: HW
HStem: -8 68<174.9 382.9> 606 68<267.3 376.5>
VStem: 51 71<112 336.9> 182 70<508.912 591.3> 413 71<506 609.1> 503 73<204.546 257>
Fore
503 257 m 1
 576 257 l 1
 576 242 l 2
 576 194 562 150 538 112 c 1
 621 0 l 1
 534 0 l 1
 491 58 l 1
 444 17 382 -8 314 -8 c 0
 170 -8 51 104 51 243 c 0
 51 342 111 427 197 468 c 1
 187 492 182 516 182 538 c 0
 182 619 247 674 331 674 c 0
 410 674 484 623 484 522 c 2
 484 506 l 1
 413 506 l 1
 413 522 l 2
 413 589 366 606 331 606 c 0
 282 606 252 579 252 538 c 0
 252 519 259 495 278 467 c 2
 491 175 l 1
 500 195 503 217 503 242 c 2
 503 257 l 1
450 113 m 1
 234 408 l 1
 167 379 122 315 122 242 c 0
 122 142 207 60 314 60 c 0
 367 60 416 81 450 113 c 1
EndSplineSet
EndChar
StartChar: quoteright
Encoding: 300 8217 7
Width: 213
VWidth: 1333
Flags: HW
VStem: 48 117<586.4 665.7>
Fore
104 575 m 1
 78 574 48 596 48 628 c 0
 48 657 72 681 101 681 c 0
 130 681 165 659 165 611 c 0
 165 528 94 477 93 476 c 1
 84 473 l 1
 18 473 l 1
 56 502 l 2
 77 518 96 550 104 575 c 1
EndSplineSet
EndChar
StartChar: parenleft
Encoding: 8 40 8
Width: 233
VWidth: 1333
Flags: HW
VStem: 17 77<74.9 517.4>
Fore
17 305 m 0
 17 470 65 603 126 719 c 1
 191 719 l 1
 135 593 94 467 94 299 c 0
 94 125 140 -12 194 -136 c 1
 129 -136 l 1
 70 -16 17 128 17 305 c 0
EndSplineSet
EndChar
StartChar: parenright
Encoding: 9 41 9
Width: 233
VWidth: 1333
Flags: HW
VStem: 139 77<74.9 517.4>
Fore
216 305 m 0
 216 128 161 -19 105 -136 c 1
 40 -136 l 1
 92 -15 139 125 139 299 c 0
 139 467 96 596 42 719 c 1
 107 719 l 1
 168 604 216 470 216 305 c 0
EndSplineSet
EndChar
StartChar: asterisk
Encoding: 10 42 10
Width: 439
VWidth: 1333
Flags: HW
HStem: 524 281<183 276>
VStem: 183 74<716 805>
Fore
183 805 m 1
 257 805 l 1
 257 716 l 1
 352 739 l 1
 369 669 l 1
 279 648 l 1
 335 565 l 1
 276 524 l 1
 220 607 l 1
 164 524 l 1
 105 565 l 1
 160 648 l 1
 71 669 l 1
 88 739 l 1
 183 716 l 1
 183 805 l 1
EndSplineSet
EndChar
StartChar: plus
Encoding: 11 43 11
Width: 418
VWidth: 1333
Flags: HW
HStem: 297 72<16 173 245 403>
VStem: 173 72<140 297 369 527>
Fore
245 140 m 1
 173 140 l 1
 173 297 l 1
 16 297 l 1
 16 369 l 1
 173 369 l 1
 173 527 l 1
 245 527 l 1
 245 369 l 1
 403 369 l 1
 403 297 l 1
 245 297 l 1
 245 140 l 1
EndSplineSet
EndChar
StartChar: comma
Encoding: 12 44 12
Width: 255
VWidth: 1333
Flags: HW
VStem: 128 64<-43.4 29>
Fore
111 -108 m 1
 58 -108 l 1
 91 -82 128 -35 128 -7 c 1
 99 -6 75 17 75 47 c 0
 75 76 99 100 128 100 c 0
 159 100 192 76 192 29 c 0
 192 -66 111 -108 111 -108 c 1
EndSplineSet
EndChar
StartChar: hyphen
Encoding: 13 45 13
Width: 402
VWidth: 1333
Flags: HW
HStem: 231 72<48 355>
Fore
355 303 m 1
 355 231 l 1
 48 231 l 1
 48 303 l 1
 355 303 l 1
EndSplineSet
EndChar
StartChar: period
Encoding: 14 46 14
Width: 255
VWidth: 1333
Flags: HW
HStem: -5 106<90.3 165.7>
VStem: 75 106<10.3 85.7>
Fore
128 101 m 0
 157 101 181 77 181 48 c 0
 181 19 157 -5 128 -5 c 0
 99 -5 75 19 75 48 c 0
 75 77 99 101 128 101 c 0
EndSplineSet
EndChar
StartChar: slash
Encoding: 15 47 15
Width: 522
VWidth: 1333
Flags: HW
Fore
465 683 m 1
 554 683 l 1
 58 -16 l 1
 -31 -16 l 1
 465 683 l 1
EndSplineSet
EndChar
StartChar: zero
Encoding: 16 48 16
Width: 527
VWidth: 1286
Flags: HW
HStem: -6 68<166.9 364.5> 604 69<169.5 365.8>
VStem: 34 71<119.8 548.8> 429 70<117.2 546.2>
Fore
267 -6 m 0
 127 -6 34 156 34 333 c 0
 34 510 127 673 267 673 c 0
 406 673 499 510 499 333 c 0
 499 156 406 -6 267 -6 c 0
105 333 m 0
 105 169 190 62 267 62 c 0
 342 62 429 167 429 333 c 0
 429 497 343 604 267 604 c 0
 192 604 105 499 105 333 c 0
EndSplineSet
EndChar
StartChar: one
Encoding: 17 49 17
Width: 526
VWidth: 1287
Flags: HW
HStem: 0 21G<229 301>
VStem: 229 72<0 551>
Fore
229 551 m 1
 169 516 l 1
 133 575 l 1
 301 673 l 1
 301 0 l 1
 229 0 l 1
 229 551 l 1
EndSplineSet
EndChar
StartChar: two
Encoding: 18 50 18
Width: 526
VWidth: 1286
Flags: HW
HStem: 0 69<108 491> 605 68<173.1 360.3>
VStem: 61 71<440 566.5> 402 70<248 566.5>
Fore
491 0 m 1
 34 0 l 1
 34 33 l 2
 34 261 402 296 402 456 c 0
 402 541 339 605 268 605 c 0
 195 605 132 541 132 456 c 2
 132 440 l 1
 61 440 l 1
 61 456 l 2
 61 574 151 673 267 673 c 0
 382 673 472 574 472 456 c 0
 472 260 151 216 108 69 c 1
 491 69 l 1
 491 0 l 1
EndSplineSet
EndChar
StartChar: three
Encoding: 19 51 19
Width: 527
VWidth: 1286
Flags: HW
HStem: -6 68<164 372> 347 69<252 340.8> 604 69<193.9 342.1>
VStem: 95 71<491 576.2> 370 70<441 576.2> 414 70<103.6 302.5>
Fore
50 220 m 1xf4
 122 220 l 1
 122 205 l 2
 122 127 188 62 268 62 c 0
 348 62 414 127 414 205 c 0xf4
 414 283 348 347 268 347 c 2
 252 347 l 1
 252 416 l 1
 268 416 l 2
 324 416 370 452 370 506 c 0
 370 560 325 604 268 604 c 0
 211 604 166 560 166 506 c 2
 166 491 l 1
 95 491 l 1
 95 506 l 2
 95 599 173 673 268 673 c 0
 363 673 440 599 440 506 c 0xf8
 440 456 417 413 381 384 c 1
 442 347 484 280 484 205 c 0
 484 88 386 -6 267 -6 c 0
 147 -6 50 88 50 205 c 2
 50 220 l 1xf4
EndSplineSet
EndChar
StartChar: four
Encoding: 20 52 20
Width: 526
VWidth: 1287
Flags: HW
HStem: 1 21G<359 429> 119 69<115 359 429 484>
VStem: 359 70<1 119 188 500>
Fore
359 188 m 1
 359 500 l 1
 115 188 l 1
 359 188 l 1
429 1 m 1
 359 1 l 1
 359 119 l 1
 -27 119 l 1
 429 705 l 1
 429 188 l 1
 507 188 l 1
 484 119 l 1
 429 119 l 1
 429 1 l 1
EndSplineSet
EndChar
StartChar: five
Encoding: 21 53 21
Width: 526
VWidth: 1286
Flags: HW
HStem: -8 69<162.3 380.7> 417 66<197.4 380.7> 598 69<143 418>
VStem: 430 71<107.7 370.3>
Fore
265 417 m 0
 206 417 152 383 117 318 c 1
 47 318 l 1
 77 667 l 1
 441 667 l 1
 418 598 l 1
 143 598 l 1
 129 438 l 1
 167 466 213 483 265 483 c 0
 398 483 501 371 501 238 c 0
 501 104 398 -8 265 -8 c 0
 146 -8 50 85 33 201 c 2
 30 219 l 1
 101 219 l 1
 103 206 l 2
 118 122 186 61 265 61 c 0
 354 61 430 138 430 239 c 0
 430 340 354 417 265 417 c 0
EndSplineSet
EndChar
StartChar: six
Encoding: 22 54 22
Width: 526
VWidth: 1286
Flags: HW
HStem: -7 68<150.6 380.7> 420 67<215.092 380.7> 648 20G<269 354>
VStem: 30 71<110.7 372> 430 71<110.7 372>
Fore
430 242 m 0
 430 342 354 420 265 420 c 0
 177 420 101 342 101 242 c 0
 101 141 177 61 265 61 c 0
 354 61 430 141 430 242 c 0
30 242 m 0
 30 372 111 439 269 668 c 1
 354 668 l 1
 226 484 l 1
 239 486 252 487 265 487 c 0
 398 487 501 375 501 242 c 0
 501 108 398 -7 265 -7 c 0
 133 -7 30 108 30 242 c 0
EndSplineSet
EndChar
StartChar: seven
Encoding: 23 55 23
Width: 527
VWidth: 1286
Flags: HW
HStem: 0 21G<155 233> 598 69<66 431>
VStem: 43 497<598 667>
Fore
66 667 m 1
 540 667 l 1
 233 0 l 1
 155 0 l 1
 431 598 l 1
 43 598 l 1
 66 667 l 1
EndSplineSet
EndChar
StartChar: eight
Encoding: 24 56 24
Width: 527
VWidth: 1286
Flags: HW
HStem: -6 68<163 371> 347 69<194.2 338.5> 604 69<194.2 338.5>
VStem: 50 70<103.6 305.1> 95 71<445 576.3> 367 71<445 576.3> 413 71<103.6 305.1>
Fore
438 510 m 0xec
 438 460 414 416 378 386 c 1
 441 349 484 282 484 205 c 0
 484 88 386 -6 267 -6 c 0
 147 -6 50 88 50 205 c 0xf2
 50 282 92 349 156 386 c 1
 119 416 95 460 95 510 c 0
 95 601 173 673 267 673 c 0
 360 673 438 601 438 510 c 0xec
120 205 m 0
 120 127 187 62 267 62 c 0
 347 62 413 127 413 205 c 0
 413 283 347 347 267 347 c 0
 187 347 120 283 120 205 c 0
267 416 m 0
 322 416 367 459 367 510 c 0
 367 561 322 604 267 604 c 0
 211 604 166 561 166 510 c 0xec
 166 459 211 416 267 416 c 0
EndSplineSet
EndChar
StartChar: nine
Encoding: 25 57 25
Width: 526
VWidth: 1286
Flags: HW
HStem: 0 21G<177 262> 181 67<150.6 310.493> 605 67<150.6 380.7>
VStem: 30 71<296 557.3> 430 71<296 557.3>
Fore
101 426 m 0
 101 326 177 248 265 248 c 0
 354 248 430 326 430 426 c 0
 430 527 354 605 265 605 c 0
 177 605 101 527 101 426 c 0
501 426 m 0
 501 296 419 229 262 0 c 1
 177 0 l 1
 304 184 l 1
 292 182 278 181 265 181 c 0
 133 181 30 293 30 426 c 0
 30 560 133 672 265 672 c 0
 398 672 501 560 501 426 c 0
EndSplineSet
EndChar
StartChar: colon
Encoding: 26 58 26
Width: 255
VWidth: 1333
Flags: HW
HStem: -5 106<90.3 165.7> 353 107<90.3 165.7>
VStem: 75 106<10.3 85.7 368 444.7>
Fore
128 101 m 0
 157 101 181 77 181 48 c 0
 181 19 157 -5 128 -5 c 0
 99 -5 75 19 75 48 c 0
 75 77 99 101 128 101 c 0
128 460 m 0
 157 460 181 436 181 407 c 0
 181 377 157 353 128 353 c 0
 99 353 75 377 75 407 c 0
 75 436 99 460 128 460 c 0
EndSplineSet
EndChar
StartChar: semicolon
Encoding: 27 59 27
Width: 255
VWidth: 1333
Flags: HW
HStem: 353 107<90.3 165.7>
VStem: 75 106<368 444.7> 128 64<-43.4 29>
Fore
128 460 m 0xa0
 157 460 181 436 181 407 c 0xc0
 181 377 157 353 128 353 c 0xa0
 99 353 75 377 75 407 c 0xc0
 75 436 99 460 128 460 c 0xa0
128 100 m 0xa0
 159 100 192 76 192 29 c 0
 192 -66 111 -108 111 -108 c 1
 58 -108 l 1
 91 -82 128 -35 128 -7 c 1xa0
 99 -6 75 17 75 47 c 0xc0
 75 76 99 100 128 100 c 0xa0
EndSplineSet
EndChar
StartChar: less
Encoding: 28 60 28
Width: 527
VWidth: 1333
Flags: HW
HStem: -1 485<382 521>
Fore
521 -1 m 1
 382 -1 l 1
 -15 241 l 1
 382 484 l 1
 521 484 l 1
 124 241 l 1
 521 -1 l 1
EndSplineSet
EndChar
StartChar: equal
Encoding: 29 61 29
Width: 482
VWidth: 1333
Flags: HW
HStem: 177 72<48 435> 311 72<48 435>
Fore
435 383 m 1
 435 311 l 1
 48 311 l 1
 48 383 l 1
 435 383 l 1
435 249 m 1
 435 177 l 1
 48 177 l 1
 48 249 l 1
 435 249 l 1
EndSplineSet
EndChar
StartChar: greater
Encoding: 30 62 30
Width: 527
VWidth: 1333
Flags: HW
HStem: -1 485<7 146>
Fore
146 -1 m 1
 7 -1 l 1
 404 241 l 1
 7 484 l 1
 146 484 l 1
 543 241 l 1
 146 -1 l 1
EndSplineSet
EndChar
StartChar: question
Encoding: 31 63 31
Width: 529
VWidth: 1333
Flags: HW
HStem: -6 101<217.3 292.7> 604 69<176.9 357.6>
VStem: 79 70<482 560.7> 203 104<7.6 80.4> 387 70<398.2 581.5>
Fore
255 95 m 0
 284 95 307 72 307 44 c 0
 307 16 284 -6 255 -6 c 0
 226 -6 203 16 203 44 c 0
 203 72 226 95 255 95 c 0
292 144 m 1
 221 144 l 1
 221 210 l 2
 221 365 387 421 387 497 c 0
 387 562 339 604 277 604 c 0
 200 604 149 546 149 497 c 2
 149 482 l 1
 79 482 l 1
 79 497 l 2
 79 591 168 673 277 673 c 0
 380 673 457 598 457 497 c 0
 457 379 292 333 292 210 c 2
 292 144 l 1
EndSplineSet
EndChar
StartChar: at
Encoding: 32 64 32
Width: 917
VWidth: 1333
Flags: HW
HStem: -210 68<227.4 555> -7 70<298.1 483 680.6 759.9> 401 69<359.1 566.7> 604 70<227.4 698>
VStem: 56 72<-42 502.7> 207 73<89.8 317.3> 593 53<142.5 292> 800 70<68.1 506.2>
Fore
640 465 m 1
 714 465 l 1
 657 233 l 2
 654 224 646 197 646 170 c 0
 646 98 689 63 717 63 c 0
 750 63 800 108 800 241 c 0
 800 445 644 604 464 604 c 0
 282 604 128 440 128 231 c 0
 128 21 282 -142 464 -142 c 0
 534 -142 586 -120 639 -88 c 1
 676 -146 l 1
 612 -185 549 -210 464 -210 c 0
 236 -210 56 -9 56 232 c 0
 56 473 236 674 464 674 c 0
 688 674 870 477 870 241 c 0
 870 49 779 -7 717 -7 c 0
 657 -7 608 38 586 100 c 1
 534 39 459 -6 379 -6 c 0
 276 -6 207 69 207 172 c 0
 207 323 349 470 490 470 c 0
 549 470 595 446 625 407 c 1
 640 465 l 1
493 401 m 0
 390 401 280 284 280 173 c 0
 280 109 317 64 380 64 c 0
 480 64 593 177 593 292 c 0
 593 356 556 401 493 401 c 0
EndSplineSet
EndChar
StartChar: A
Encoding: 33 65 33
Width: 617
VWidth: 1287
Flags: HW
HStem: 1 21G<11 87 531 607> 198 69<202 419>
Fore
202 267 m 1
 419 267 l 1
 310 496 l 1
 202 267 l 1
170 198 m 1
 87 1 l 1
 11 1 l 1
 309 674 l 1
 607 1 l 1
 531 1 l 1
 447 198 l 1
 170 198 l 1
EndSplineSet
EndChar
StartChar: B
Encoding: 34 66 34
Width: 578
VWidth: 1286
Flags: HW
HStem: 0 69<135 310> 335 68<135 387.8> 598 69<135 386.5>
VStem: 64 71<69 335 403 598> 415 72<434 550> 465 71<111 294.3>
Fore
135 69 m 1xf4
 310 69 l 2
 399 69 465 132 465 202 c 0
 465 273 399 335 310 335 c 2
 135 335 l 1
 135 69 l 1xf4
415 499 m 2xf8
 415 500 l 2
 415 550 367 598 302 598 c 2
 135 598 l 1
 135 403 l 1
 302 403 l 2
 368 403 415 449 415 499 c 2xf8
304 667 m 2
 404 667 487 592 487 499 c 0xf8
 487 449 463 405 425 375 c 1
 491 341 536 277 536 202 c 0xf4
 536 88 432 0 310 0 c 2
 64 0 l 1
 64 667 l 1
 304 667 l 2
EndSplineSet
EndChar
StartChar: C
Encoding: 35 67 35
Width: 723
VWidth: 1286
Flags: HW
HStem: -6 67<191.8 541.5> 603 70<191.8 572.7>
VStem: 44 71<138.3 527>
Fore
623 182 m 1
 680 145 l 1
 605 45 507 -6 392 -6 c 0
 200 -6 44 145 44 333 c 0
 44 521 200 673 392 673 c 0
 565 673 654 558 680 522 c 1
 624 481 l 1
 602 509 531 603 392 603 c 0
 238 603 115 482 115 332 c 0
 115 183 238 61 392 61 c 0
 530 61 602 154 623 182 c 1
EndSplineSet
EndChar
StartChar: D
Encoding: 36 68 36
Width: 602
VWidth: 1286
Flags: HW
HStem: 0 69<135 212> 598 69<135 410.9>
VStem: 64 71<69 598> 489 70<139.3 528>
Fore
135 69 m 1
 212 69 l 2
 365 69 489 184 489 333 c 0
 489 483 365 598 212 598 c 2
 135 598 l 1
 135 69 l 1
64 0 m 1
 64 667 l 1
 212 667 l 2
 403 667 559 521 559 333 c 0
 559 145 403 0 212 0 c 2
 64 0 l 1
EndSplineSet
EndChar
StartChar: E
Encoding: 37 69 37
Width: 518
VWidth: 1286
Flags: HW
HStem: 0 69<135 474> 350 69<135 448> 598 69<135 476>
VStem: 64 71<69 350 419 598>
Fore
448 419 m 1
 448 350 l 1
 135 350 l 1
 135 69 l 1
 474 69 l 1
 474 0 l 1
 64 0 l 1
 64 667 l 1
 476 667 l 1
 476 598 l 1
 135 598 l 1
 135 419 l 1
 448 419 l 1
EndSplineSet
EndChar
StartChar: F
Encoding: 38 70 38
Width: 518
VWidth: 1286
Flags: HW
HStem: 0 21G<64 135> 350 69<135 448> 598 69<135 476>
VStem: 64 71<0 350 419 598>
Fore
448 419 m 1
 448 350 l 1
 135 350 l 1
 135 0 l 1
 64 0 l 1
 64 667 l 1
 476 667 l 1
 476 598 l 1
 135 598 l 1
 135 419 l 1
 448 419 l 1
EndSplineSet
EndChar
StartChar: G
Encoding: 39 71 39
Width: 782
VWidth: 1286
Flags: HW
HStem: -6 68<191.8 575.3> 299 69<376 666> 604 69<191.8 572.7>
VStem: 44 71<139.3 528>
Fore
680 524 m 1
 624 482 l 1
 602 510 531 604 392 604 c 0
 238 604 115 483 115 333 c 0
 115 184 238 62 392 62 c 0
 533 62 649 166 666 299 c 1
 376 299 l 1
 376 368 l 1
 739 368 l 1
 739 333 l 2
 739 145 583 -6 392 -6 c 0
 200 -6 44 145 44 333 c 0
 44 521 200 673 392 673 c 0
 574 673 666 542 680 524 c 1
EndSplineSet
EndChar
StartChar: H
Encoding: 40 72 40
Width: 623
VWidth: 1286
Flags: HW
HStem: 0 21G<64 135 490 561> 350 69<135 490> 647 20G<64 135 490 561>
VStem: 64 71<0 350 419 667> 490 71<0 350 419 667>
Fore
490 667 m 1
 561 667 l 1
 561 0 l 1
 490 0 l 1
 490 350 l 1
 135 350 l 1
 135 0 l 1
 64 0 l 1
 64 667 l 1
 135 667 l 1
 135 419 l 1
 490 419 l 1
 490 667 l 1
EndSplineSet
EndChar
StartChar: I
Encoding: 41 73 41
Width: 197
VWidth: 1286
Flags: HW
HStem: 0 21G<64 135> 647 20G<64 135>
VStem: 64 71<0 667>
Fore
135 0 m 1
 64 0 l 1
 64 667 l 1
 135 667 l 1
 135 0 l 1
EndSplineSet
EndChar
StartChar: J
Encoding: 42 74 42
Width: 459
VWidth: 1286
Flags: HW
HStem: -7 69<147.9 294.8> 647 20G<329 397>
VStem: 44 71<92.9 196> 329 68<113 667>
Fore
329 667 m 1
 397 667 l 1
 397 180 l 2
 397 79 320 -7 220 -7 c 0
 120 -7 44 79 44 180 c 2
 44 196 l 1
 115 196 l 1
 115 180 l 2
 115 113 165 62 222 62 c 0
 278 62 329 113 329 180 c 2
 329 667 l 1
EndSplineSet
EndChar
StartChar: K
Encoding: 43 75 43
Width: 545
VWidth: 1286
Flags: HW
HStem: 0 21G<64 135 446 536> 647 20G<64 135 417 523>
VStem: 64 71<0 323 416 667>
Fore
64 667 m 1
 135 667 l 1
 135 416 l 1
 417 667 l 1
 523 667 l 1
 238 415 l 1
 536 0 l 1
 446 0 l 1
 187 369 l 1
 135 323 l 1
 135 0 l 1
 64 0 l 1
 64 667 l 1
EndSplineSet
EndChar
StartChar: L
Encoding: 44 76 44
Width: 518
VWidth: 1286
Flags: HW
HStem: 0 69<135 476> 647 20G<64 135>
VStem: 64 71<69 667>
Fore
476 0 m 1
 64 0 l 1
 64 667 l 1
 135 667 l 1
 135 69 l 1
 476 69 l 1
 476 0 l 1
EndSplineSet
EndChar
StartChar: M
Encoding: 45 77 45
Width: 786
VWidth: 1287
Flags: HW
HStem: 0 21G<11 80 704 776>
Fore
80 0 m 1
 11 0 l 1
 149 673 l 1
 393 170 l 1
 642 673 l 1
 776 0 l 1
 704 0 l 1
 614 436 l 1
 391 -7 l 1
 174 436 l 1
 80 0 l 1
EndSplineSet
EndChar
StartChar: N
Encoding: 46 78 46
Width: 747
VWidth: 1286
Flags: HW
HStem: 0 21G<64 135> 647 20G<614 685>
VStem: 64 71<0 504> 614 71<162 667>
Fore
64 0 m 1
 64 674 l 1
 614 162 l 1
 614 667 l 1
 685 667 l 1
 685 -8 l 1
 135 504 l 1
 135 0 l 1
 64 0 l 1
EndSplineSet
EndChar
StartChar: O
Encoding: 47 79 47
Width: 782
VWidth: 1286
Flags: HW
HStem: -6 68<191.8 590.9> 604 69<191.8 590.9>
VStem: 44 71<139.3 528> 669 70<139.3 528>
Fore
739 333 m 0
 739 145 583 -6 392 -6 c 0
 200 -6 44 145 44 333 c 0
 44 521 200 673 392 673 c 0
 583 673 739 521 739 333 c 0
115 333 m 0
 115 184 238 62 392 62 c 0
 545 62 669 184 669 333 c 0
 669 483 545 604 392 604 c 0
 238 604 115 483 115 333 c 0
EndSplineSet
EndChar
StartChar: P
Encoding: 48 80 48
Width: 539
VWidth: 1286
Flags: HW
HStem: 0 21G<64 135> 298 70<135 392> 598 69<135 392.6>
VStem: 64 71<0 298 368 598> 425 71<398.8 566.5>
Fore
64 0 m 1
 64 667 l 1
 312 667 l 2
 415 667 496 583 496 482 c 0
 496 381 415 298 314 298 c 2
 135 298 l 1
 135 0 l 1
 64 0 l 1
135 368 m 1
 314 368 l 2
 374 368 425 418 425 482 c 0
 425 547 374 598 312 598 c 2
 135 598 l 1
 135 368 l 1
EndSplineSet
EndChar
StartChar: Q
Encoding: 49 81 49
Width: 782
VWidth: 1286
Flags: HW
HStem: -6 68<191.8 479.1> 604 69<191.8 590.9>
VStem: 44 71<139.3 528> 669 70<257.6 528>
Fore
568 125 m 1
 464 247 l 1
 556 247 l 1
 617 176 l 1
 650 220 669 275 669 333 c 0
 669 483 545 604 392 604 c 0
 238 604 115 483 115 333 c 0
 115 184 238 62 392 62 c 0
 459 62 520 86 568 125 c 1
768 0 m 1
 674 0 l 1
 613 71 l 1
 553 23 476 -6 392 -6 c 0
 200 -6 44 145 44 333 c 0
 44 521 200 673 392 673 c 0
 583 673 739 521 739 333 c 0
 739 253 711 179 663 121 c 1
 768 0 l 1
EndSplineSet
EndChar
StartChar: R
Encoding: 50 82 50
Width: 551
VWidth: 1286
Flags: HW
HStem: 0 21G<64 135 462 543> 299 69<135 294> 598 69<135 392.6>
VStem: 64 71<0 299 368 598> 425 71<398.8 566.5>
Fore
64 0 m 1
 64 667 l 1
 312 667 l 2
 415 667 496 583 496 482 c 0
 496 401 444 331 370 307 c 1
 543 0 l 1
 462 0 l 1
 294 299 l 1
 135 299 l 1
 135 0 l 1
 64 0 l 1
135 368 m 1
 314 368 l 2
 374 368 425 418 425 482 c 0
 425 547 374 598 312 598 c 2
 135 598 l 1
 135 368 l 1
EndSplineSet
EndChar
StartChar: S
Encoding: 51 83 51
Width: 529
VWidth: 1286
Flags: HW
HStem: -8 70<175.6 365.4> 604 70<188.3 326.1>
VStem: 97 70<339.7 576.3> 416 70<89.5 411.9>
Fore
450 530 m 1
 384 507 l 1
 379 522 l 2
 359 578 312 604 265 604 c 0
 206 604 167 561 167 510 c 0
 167 379 486 417 486 198 c 0
 486 75 379 -8 264 -8 c 0
 166 -8 66 53 46 194 c 2
 44 209 l 1
 114 218 l 1
 116 203 l 2
 131 103 196 62 264 62 c 0
 342 62 416 115 416 200 c 0
 416 363 97 316 97 511 c 0
 97 598 164 674 265 674 c 0
 339 674 415 630 445 544 c 2
 450 530 l 1
EndSplineSet
EndChar
StartChar: T
Encoding: 52 84 52
Width: 430
VWidth: 1286
Flags: HW
HStem: 0 21G<181 251> 598 69<11 181 251 421>
VStem: 181 70<0 598>
Fore
421 667 m 1
 421 598 l 1
 251 598 l 1
 251 0 l 1
 181 0 l 1
 181 598 l 1
 11 598 l 1
 11 667 l 1
 421 667 l 1
EndSplineSet
EndChar
StartChar: U
Encoding: 53 85 53
Width: 623
VWidth: 1286
Flags: HW
HStem: -7 69<190.5 436.2> 647 20G<64 135 490 561>
VStem: 64 71<146 667> 490 71<112.7 667>
Fore
64 667 m 1
 135 667 l 1
 135 257 l 2
 135 146 219 62 314 62 c 0
 408 62 490 146 490 257 c 2
 490 667 l 1
 561 667 l 1
 561 257 l 2
 561 113 451 -7 312 -7 c 0
 173 -7 64 113 64 257 c 2
 64 667 l 1
EndSplineSet
EndChar
StartChar: V
Encoding: 54 86 54
Width: 599
VWidth: 1286
Flags: HW
HStem: 647 20G<11 86 513 590>
Fore
513 667 m 1
 590 667 l 1
 305 -7 l 1
 11 667 l 1
 86 667 l 1
 303 177 l 1
 513 667 l 1
EndSplineSet
EndChar
StartChar: W
Encoding: 55 87 55
Width: 905
VWidth: 1286
Flags: HW
HStem: 647 20G<11 83 820 895>
Fore
11 667 m 1
 83 667 l 1
 264 203 l 1
 452 674 l 1
 641 203 l 1
 820 667 l 1
 895 667 l 1
 640 -7 l 1
 454 460 l 1
 267 -7 l 1
 11 667 l 1
EndSplineSet
EndChar
StartChar: X
Encoding: 56 88 56
Width: 474
VWidth: 1286
Flags: HW
HStem: 0 21G<11 90 385 464> 647 20G<37 116 358 438>
VStem: 11 453<0 0>
Fore
37 667 m 1
 116 667 l 1
 237 435 l 1
 358 667 l 1
 438 667 l 1
 277 359 l 1
 464 0 l 1
 385 0 l 1
 237 282 l 1
 90 0 l 1
 11 0 l 1
 198 359 l 1
 37 667 l 1
EndSplineSet
EndChar
StartChar: Y
Encoding: 57 89 57
Width: 583
VWidth: 1286
Flags: HW
HStem: 0 21G<257 328> 647 20G<11 93 492 574>
VStem: 257 71<0 286>
Fore
11 667 m 1
 93 667 l 1
 293 359 l 1
 492 667 l 1
 574 667 l 1
 328 286 l 1
 328 0 l 1
 257 0 l 1
 257 286 l 1
 11 667 l 1
EndSplineSet
EndChar
StartChar: Z
Encoding: 58 90 58
Width: 559
VWidth: 1286
Flags: HW
HStem: 0 69<142 527> 598 69<72 417>
Fore
72 667 m 1
 549 667 l 1
 142 69 l 1
 550 69 l 1
 527 0 l 1
 11 0 l 1
 417 598 l 1
 48 598 l 1
 72 667 l 1
EndSplineSet
EndChar
StartChar: bracketleft
Encoding: 59 91 59
Width: 215
VWidth: 1333
Flags: HW
HStem: -156 72<120 200> 651 72<120 200>
VStem: 48 152<-156 -84 651 723> 48 72<-84 651>
Fore
120 -84 m 1xd0
 200 -84 l 1
 200 -156 l 1
 48 -156 l 1
 48 723 l 1
 200 723 l 1
 200 651 l 1xe0
 120 651 l 1
 120 -84 l 1xd0
EndSplineSet
EndChar
StartChar: backslash
Encoding: 60 92 60
Width: 583
VWidth: 1333
Flags: HW
HStem: -1 21G<495 584> 648 20G<-1 88>
Fore
-1 668 m 1
 88 668 l 1
 584 -1 l 1
 495 -1 l 1
 -1 668 l 1
EndSplineSet
EndChar
StartChar: bracketright
Encoding: 61 93 61
Width: 214
VWidth: 1333
Flags: HW
HStem: -156 72<-1 79> 651 72<-1 79>
VStem: -1 152<-156 -84 651 723> 79 72<-84 651>
Fore
79 651 m 1xd0
 -1 651 l 1
 -1 723 l 1
 151 723 l 1
 151 -156 l 1
 -1 -156 l 1
 -1 -84 l 1xe0
 79 -84 l 1
 79 651 l 1xd0
EndSplineSet
EndChar
StartChar: asciicircum
Encoding: 62 94 62
Width: 554
VWidth: 1333
Flags: HW
HStem: 303 365<247 518>
VStem: 36 482<303 303>
Fore
247 668 m 1
 311 668 l 1
 518 303 l 1
 435 303 l 1
 279 578 l 1
 120 303 l 1
 36 303 l 1
 247 668 l 1
EndSplineSet
EndChar
StartChar: underscore
Encoding: 63 95 63
Width: 466
VWidth: 1333
Flags: HW
HStem: -71 72<0 467>
Fore
467 1 m 1
 467 -71 l 1
 0 -71 l 1
 0 1 l 1
 467 1 l 1
EndSplineSet
EndChar
StartChar: quoteleft
Encoding: 299 8216 64
Width: 213
VWidth: 1333
Flags: HW
VStem: 48 117<488 568.6>
Fore
110 580 m 1
 135 581 165 559 165 527 c 0
 165 497 141 473 112 473 c 0
 83 473 47 495 48 544 c 0
 48 572 52 616 113 674 c 1
 113 683 l 1
 192 683 l 1
 157 654 l 2
 137 638 117 605 110 580 c 1
EndSplineSet
EndChar
StartChar: a
Encoding: 65 97 65
Width: 489
VWidth: 1261
Flags: HW
HStem: -8 68<120.1 281.3> 215 58<222.7 355> 394 67<150.5 305.2>
VStem: 47 70<91.5 224.1> 355 71<155 215>
Fore
446 0 m 1
 368 0 l 1
 360 18 354 45 355 62 c 1
 316 23 263 -8 202 -8 c 0
 93 -8 47 65 47 124 c 0
 47 272 253 273 354 273 c 1
 345 351 289 394 235 394 c 0
 170 394 137 341 127 327 c 1
 69 363 l 1
 84 385 135 461 235 461 c 0
 331 461 423 387 426 258 c 2
 426 108 l 2
 426 68 434 22 446 0 c 1
202 60 m 0
 264 60 326 107 355 155 c 1
 355 215 l 1
 246 213 117 201 117 124 c 0
 117 99 139 60 202 60 c 0
EndSplineSet
EndChar
StartChar: b
Encoding: 66 98 66
Width: 545
VWidth: 1267
Flags: HW
HStem: -6 67<213.8 385.4> 393 67<215.1 385.4> 646 20G<64 135>
VStem: 64 71<104.8 349.2 386 666> 433 69<104.8 349.2>
Fore
135 69 m 1
 135 36 129 20 123 0 c 1
 44 0 l 1
 62 33 64 102 64 133 c 2
 64 666 l 1
 135 666 l 1
 135 386 l 1
 172 429 231 460 284 460 c 0
 408 460 502 352 502 227 c 0
 502 101 408 -6 284 -6 c 0
 230 -6 172 26 135 69 c 1
135 227 m 0
 135 133 205 61 284 61 c 0
 362 61 433 133 433 227 c 0
 433 321 362 393 284 393 c 0
 205 393 135 321 135 227 c 0
EndSplineSet
EndChar
StartChar: c
Encoding: 67 99 67
Width: 498
VWidth: 1261
Flags: HW
HStem: -6 68<160.6 371.2> 391 69<159.3 366>
VStem: 44 69<105.8 350.2>
Fore
395 151 m 1
 456 118 l 1
 435 82 378 -6 262 -6 c 0
 138 -6 44 101 44 227 c 0
 44 352 138 460 262 460 c 0
 385 460 441 361 456 336 c 1
 395 302 l 1
 379 329 342 391 262 391 c 0
 183 391 113 322 113 228 c 0
 113 134 184 62 262 62 c 0
 346 62 384 132 395 151 c 1
EndSplineSet
EndChar
StartChar: d
Encoding: 68 100 68
Width: 545
VWidth: 1267
Flags: HW
HStem: -6 67<160.6 332.2> 393 67<160.6 330.9> 646 20G<411 482>
VStem: 44 69<104.8 349.2> 411 71<104.8 349.2 386 666>
Fore
502 0 m 1
 423 0 l 1
 417 20 411 36 411 69 c 1
 374 26 316 -6 262 -6 c 0
 138 -6 44 101 44 227 c 0
 44 352 138 460 262 460 c 0
 315 460 374 429 411 386 c 1
 411 666 l 1
 482 666 l 1
 482 133 l 2
 482 93 490 22 502 0 c 1
411 227 m 0
 411 321 341 393 262 393 c 0
 184 393 113 321 113 227 c 0
 113 133 184 61 262 61 c 0
 341 61 411 133 411 227 c 0
EndSplineSet
EndChar
StartChar: e
Encoding: 69 101 69
Width: 529
VWidth: 1261
Flags: HW
HStem: -6 68<165.8 323.1> 212 66<122 406> 392 68<182.1 347.2>
VStem: 44 441<212 249.75 212 227>
Fore
122 278 m 1
 406 278 l 1
 386 346 328 392 264 392 c 0
 201 392 143 346 122 278 c 1
114 212 m 1
 121 125 188 62 262 62 c 0
 320 62 373 92 408 151 c 1
 469 118 l 1
 407 10 309 -6 262 -6 c 0
 138 -6 44 101 44 227 c 0
 44 352 140 460 264 460 c 0
 382 460 473 363 483 246 c 2
 485 212 l 1
 114 212 l 1
EndSplineSet
EndChar
StartChar: f
Encoding: 70 102 70
Width: 262
VWidth: 1267
Flags: HW
HStem: 0 21G<64 135> 385 68<26 64 135 240> 605 55<170.5 258>
VStem: 64 71<0 385 453 545>
Fore
64 385 m 1
 26 385 l 1
 26 453 l 1
 64 453 l 1
 64 476 l 2
 64 576 142 660 242 660 c 2
 258 660 l 1
 258 605 l 1
 242 605 l 2
 187 605 135 545 135 476 c 2
 135 453 l 1
 264 453 l 1
 240 385 l 1
 135 385 l 1
 135 0 l 1
 64 0 l 1
 64 385 l 1
EndSplineSet
EndChar
StartChar: g
Encoding: 71 103 71
Width: 543
VWidth: 1253
Flags: HW
HStem: -219 67<194.4 364.7> -7 67<157.3 330.9> 392 67<157.3 332.2>
VStem: 44 67<103.8 348.2> 411 71<-108.2 67 103.8 348.2>
Fore
411 383 m 1
 411 417 417 433 423 453 c 1
 502 453 l 1
 484 419 482 350 482 319 c 2
 482 14 l 2
 482 -111 385 -219 261 -219 c 0
 186 -219 140 -183 104 -149 c 1
 155 -102 l 1
 178 -124 210 -152 262 -152 c 0
 341 -152 411 -80 411 14 c 2
 411 67 l 1
 374 23 315 -7 262 -7 c 0
 138 -7 44 101 44 226 c 0
 44 351 138 459 262 459 c 0
 316 459 374 426 411 383 c 1
409 226 m 0
 409 320 338 392 260 392 c 0
 181 392 111 320 111 226 c 0
 111 132 181 60 260 60 c 0
 338 60 409 132 409 226 c 0
EndSplineSet
EndChar
StartChar: h
Encoding: 72 104 72
Width: 482
VWidth: 1267
Flags: HW
HStem: 0 21G<64 135 349 419> 393 67<205.3 352.5> 647 20G<64 135>
VStem: 64 71<0 283 374 667> 349 70<0 340.7>
Fore
64 0 m 1
 64 667 l 1
 135 667 l 1
 135 374 l 1
 169 421 220 460 269 460 c 0
 373 460 419 372 419 277 c 2
 419 0 l 1
 349 0 l 1
 349 277 l 2
 349 326 333 393 268 393 c 0
 206 393 135 283 135 227 c 2
 135 0 l 1
 64 0 l 1
EndSplineSet
EndChar
StartChar: i
Encoding: 73 105 73
Width: 195
VWidth: 1265
Flags: HW
HStem: 0 21G<63 134> 433 20G<63 134> 504 97<62.6 135.4>
VStem: 48 102<516.9 587.1> 63 71<0 453>
Fore
99 601 m 0xf0
 127 601 150 579 150 552 c 0
 150 525 127 504 99 504 c 0
 70 504 48 525 48 552 c 0
 48 579 71 601 99 601 c 0xf0
134 0 m 1xe8
 63 0 l 1
 63 453 l 1
 134 453 l 1
 134 0 l 1xe8
EndSplineSet
EndChar
StartChar: j
Encoding: 74 106 74
Width: 195
VWidth: 1261
Flags: HW
HStem: -130 61<-22 39.8> 434 20G<64 135> 503 97<61.6 134.4>
VStem: 47 102<516.9 587.1> 64 71<-33 454>
Fore
64 454 m 1xe8
 135 454 l 1
 135 16 l 2
 135 -62 74 -130 -7 -130 c 2
 -22 -130 l 1
 -22 -69 l 1
 -7 -69 l 2
 29 -69 64 -33 64 16 c 2
 64 454 l 1xe8
98 600 m 0
 126 600 149 579 149 552 c 0
 149 525 126 503 98 503 c 0
 70 503 47 525 47 552 c 0xf0
 47 579 70 600 98 600 c 0
EndSplineSet
EndChar
StartChar: k
Encoding: 75 107 75
Width: 457
VWidth: 1267
Flags: HW
HStem: 0 21G<64 135 365 457> 434 20G<310 416> 647 20G<64 135>
VStem: 64 71<0 211 302 667>
Fore
135 0 m 1
 64 0 l 1
 64 667 l 1
 135 667 l 1
 135 302 l 1
 310 454 l 1
 416 454 l 1
 210 275 l 1
 457 0 l 1
 365 0 l 1
 158 231 l 1
 135 211 l 1
 135 0 l 1
EndSplineSet
EndChar
StartChar: l
Encoding: 76 108 76
Width: 197
VWidth: 1267
Flags: HW
HStem: 0 21G<64 135> 647 20G<64 135>
VStem: 64 71<0 667>
Fore
135 0 m 1
 64 0 l 1
 64 667 l 1
 135 667 l 1
 135 0 l 1
EndSplineSet
EndChar
StartChar: m
Encoding: 77 109 77
Width: 711
VWidth: 1261
Flags: HW
HStem: 0 21G<64 135 321 391 578 648> 393 66<197.9 323.8 448.9 580.5>
VStem: 64 71<0 310.2 365 373.3> 321 70<0 302.7> 578 70<0 338.7>
Fore
135 365 m 1
 135 412 133 421 123 454 c 1
 44 454 l 1
 56 431 64 361 64 320 c 2
 64 0 l 1
 135 0 l 1
 135 227 l 2
 135 291 205 393 251 393 c 0
 307 393 321 326 321 277 c 2
 321 0 l 1
 391 0 l 1
 391 226 l 2
 391 285 458 391 509 391 c 0
 564 391 578 324 578 275 c 2
 578 0 l 1
 648 0 l 1
 648 275 l 2
 648 366 609 459 510 459 c 0
 463 459 415 417 384 365 c 1
 365 419 325 459 259 459 c 0
 212 459 161 416 135 365 c 1
EndSplineSet
EndChar
StartChar: n
Encoding: 78 110 78
Width: 482
VWidth: 1261
Flags: HW
HStem: 0 21G<63 134 348 419> 393 67<204 351.5>
VStem: 63 71<0 298.5 366 373.3> 348 71<0 340.7>
Fore
122 454 m 1
 132 422 134 412 134 366 c 1
 165 413 219 460 269 460 c 0
 373 460 419 372 419 277 c 2
 419 0 l 1
 348 0 l 1
 348 277 l 2
 348 326 332 393 267 393 c 0
 205 393 134 282 134 227 c 2
 134 0 l 1
 63 0 l 1
 63 320 l 2
 63 361 55 432 43 454 c 1
 122 454 l 1
EndSplineSet
EndChar
StartChar: o
Encoding: 79 111 79
Width: 573
VWidth: 1261
Flags: HW
HStem: -6 67<163.2 412.8> 392 68<163.2 412.8>
VStem: 44 71<107.4 345.3> 462 68<107.4 345.3>
Fore
530 227 m 0
 530 98 421 -6 287 -6 c 0
 153 -6 44 98 44 227 c 0
 44 356 153 460 287 460 c 0
 421 460 530 356 530 227 c 0
115 227 m 0
 115 135 192 61 288 61 c 0
 384 61 462 135 462 227 c 0
 462 318 384 392 288 392 c 0
 192 392 115 318 115 227 c 0
EndSplineSet
EndChar
StartChar: p
Encoding: 80 112 80
Width: 545
VWidth: 1254
Flags: HW
HStem: -200 21G<64 135> -6 67<215.1 385.4> 393 67<213.8 385.4>
VStem: 64 71<-200 68 104.8 349.2> 433 69<104.8 349.2>
Fore
44 454 m 1
 123 454 l 1
 129 434 135 418 135 384 c 1
 172 427 230 460 284 460 c 0
 408 460 502 352 502 227 c 0
 502 102 408 -6 284 -6 c 0
 231 -6 172 24 135 68 c 1
 135 -200 l 1
 64 -200 l 1
 64 321 l 2
 64 361 56 432 44 454 c 1
135 227 m 0
 135 133 205 61 284 61 c 0
 362 61 433 133 433 227 c 0
 433 321 362 393 284 393 c 0
 205 393 135 321 135 227 c 0
EndSplineSet
EndChar
StartChar: q
Encoding: 81 113 81
Width: 545
VWidth: 1254
Flags: HW
HStem: -6 67<160.6 330.9> 393 67<160.6 332.2>
VStem: 44 69<104.8 349.2> 411 71<-187 68 104.8 349.2>
Fore
411 384 m 1
 411 418 417 434 423 454 c 1
 502 454 l 1
 484 420 482 352 482 321 c 2
 482 -187 l 1
 411 -187 l 1
 411 68 l 1
 374 24 315 -6 262 -6 c 0
 138 -6 44 102 44 227 c 0
 44 352 138 460 262 460 c 0
 316 460 374 427 411 384 c 1
411 227 m 0
 411 321 341 393 262 393 c 0
 184 393 113 321 113 227 c 0
 113 133 184 61 262 61 c 0
 341 61 411 133 411 227 c 0
EndSplineSet
EndChar
StartChar: r
Encoding: 82 114 82
Width: 330
VWidth: 1261
Flags: HW
HStem: 0 21G<64 134> 434 20G<44 122>
VStem: 64 70<0 274.6>
Fore
134 386 m 1
 167 424 204 448 243 462 c 1
 332 400 l 1
 145 400 134 265 134 233 c 2
 134 0 l 1
 64 0 l 1
 64 320 l 2
 64 361 55 432 44 454 c 1
 122 454 l 1
 129 434 134 418 134 386 c 1
EndSplineSet
EndChar
StartChar: s
Encoding: 83 115 83
Width: 405
VWidth: 1261
Flags: HW
HStem: -8 68<151 261.5> 394 67<163.7 236.5>
VStem: 79 71<250.4 383> 292 70<75.6 264.1>
Fore
339 355 m 1
 273 332 l 1
 268 347 l 2
 256 380 229 394 204 394 c 0
 173 394 150 374 150 344 c 0
 150 272 362 287 362 138 c 0
 362 51 286 -8 202 -8 c 0
 131 -8 60 36 46 134 c 2
 44 149 l 1
 114 157 l 1
 116 143 l 2
 124 83 163 60 203 60 c 0
 248 60 292 90 292 138 c 0
 292 235 79 208 79 344 c 0
 79 418 139 461 204 461 c 0
 246 461 308 440 334 369 c 2
 339 355 l 1
EndSplineSet
EndChar
StartChar: t
Encoding: 84 116 84
Width: 262
VWidth: 1263
Flags: HW
HStem: 1 21G<64 135> 386 67<25 64 135 240>
VStem: 64 71<1 386 453 553>
Fore
135 1 m 1
 64 1 l 1
 64 386 l 1
 25 386 l 1
 25 453 l 1
 64 453 l 1
 64 553 l 1
 135 553 l 1
 135 453 l 1
 264 453 l 1
 240 386 l 1
 135 386 l 1
 135 1 l 1
EndSplineSet
EndChar
StartChar: u
Encoding: 85 117 85
Width: 479
VWidth: 1259
Flags: HW
HStem: -7 68<164.9 313.1> 433 20G<64 135 346 417>
VStem: 64 71<110 453> 346 71<89.9 453>
Fore
64 453 m 1
 135 453 l 1
 135 177 l 2
 135 110 182 61 239 61 c 0
 296 61 346 110 346 177 c 2
 346 453 l 1
 417 453 l 1
 417 177 l 2
 417 77 340 -7 240 -7 c 0
 140 -7 64 77 64 177 c 2
 64 453 l 1
EndSplineSet
EndChar
StartChar: v
Encoding: 86 118 86
Width: 451
VWidth: 1259
Flags: HW
HStem: -7 461<11 228>
VStem: 11 431<454 454>
Fore
11 454 m 1
 87 454 l 1
 226 167 l 1
 365 454 l 1
 442 454 l 1
 228 -7 l 1
 11 454 l 1
EndSplineSet
EndChar
StartChar: w
Encoding: 87 119 87
Width: 737
VWidth: 1261
Flags: HW
HStem: -7 467<371 520>
Fore
11 454 m 1
 88 454 l 1
 222 172 l 1
 371 460 l 1
 520 172 l 1
 652 454 l 1
 728 454 l 1
 520 -7 l 1
 370 294 l 1
 221 -7 l 1
 11 454 l 1
EndSplineSet
EndChar
StartChar: x
Encoding: 88 120 88
Width: 445
VWidth: 1261
Flags: HW
HStem: 0 21G<11 94 352 436> 434 20G<29 110 334 418>
VStem: 11 425<0 0>
Fore
29 454 m 1
 110 454 l 1
 222 298 l 1
 334 454 l 1
 418 454 l 1
 264 239 l 1
 436 0 l 1
 352 0 l 1
 223 180 l 1
 94 0 l 1
 11 0 l 1
 182 239 l 1
 29 454 l 1
EndSplineSet
EndChar
StartChar: y
Encoding: 89 121 89
Width: 450
VWidth: 1253
Flags: HW
HStem: 434 20G<11 85 365 440>
VStem: 11 429<454 454>
Fore
11 454 m 1
 85 454 l 1
 227 107 l 1
 365 454 l 1
 440 454 l 1
 174 -218 l 1
 98 -218 l 1
 191 14 l 1
 11 454 l 1
EndSplineSet
EndChar
StartChar: z
Encoding: 90 122 90
Width: 438
VWidth: 1261
Flags: HW
HStem: 0 67<145 396> 386 68<83 296>
VStem: 11 418<0 454>
Fore
83 454 m 1
 429 454 l 1
 145 67 l 1
 419 67 l 1
 396 0 l 1
 11 0 l 1
 296 386 l 1
 60 386 l 1
 83 454 l 1
EndSplineSet
EndChar
StartChar: braceleft
Encoding: 91 123 91
Width: 273
VWidth: 1333
Flags: HW
HStem: -155 59<171.9 249> 657 59<171.9 249>
VStem: 103 72<-34 239 329.8 595>
Fore
44 306 m 1
 87 334 103 349 103 413 c 2
 103 547 l 2
 103 689 183 716 233 716 c 2
 249 716 l 1
 249 657 l 1
 233 657 l 2
 186 657 175 595 175 547 c 2
 175 415 l 2
 175 348 159 311 130 281 c 1
 156 256 175 219 175 148 c 2
 175 15 l 2
 175 -34 186 -96 233 -96 c 2
 249 -96 l 1
 249 -155 l 1
 233 -155 l 2
 182 -155 103 -128 103 15 c 2
 103 148 l 2
 103 218 80 231 44 255 c 1
 44 306 l 1
EndSplineSet
EndChar
StartChar: bar
Encoding: 92 124 92
Width: 199
VWidth: 1333
Flags: HW
VStem: 64 72<-83 749>
Fore
136 -83 m 1
 64 -83 l 1
 64 749 l 1
 136 749 l 1
 136 -83 l 1
EndSplineSet
EndChar
StartChar: braceright
Encoding: 93 125 93
Width: 274
VWidth: 1333
Flags: HW
HStem: -156 59<24 102.4> 657 58<24 101.1>
VStem: 100 72<-34 230.2 325.9 595>
Fore
231 254 m 1
 188 226 172 211 172 147 c 2
 172 13 l 2
 172 -127 93 -156 40 -156 c 2
 24 -156 l 1
 24 -97 l 1
 40 -97 l 2
 88 -97 100 -34 100 13 c 2
 100 147 l 2
 100 218 119 255 144 280 c 1
 115 309 99 346 99 413 c 2
 99 547 l 2
 99 595 87 657 40 657 c 2
 24 657 l 1
 24 715 l 1
 40 715 l 2
 93 715 172 686 172 545 c 2
 172 412 l 2
 172 342 195 329 231 305 c 1
 231 254 l 1
EndSplineSet
EndChar
StartChar: asciitilde
Encoding: 94 126 94
Width: 483
VWidth: 1333
Flags: HW
HStem: 153 74<272.5 383> 213 74<101.1 218.1>
VStem: 44 59<157 201.6> 381 59<243 283>
Fore
381 283 m 1xb0
 440 283 l 1
 440 267 l 2
 440 186 395 153 344 153 c 0xb0
 271 153 201 213 144 213 c 0
 111 213 103 195 103 173 c 2
 103 157 l 1
 44 157 l 1
 44 173 l 2
 44 258 95 287 144 287 c 0x70
 224 287 289 227 344 227 c 0
 374 227 381 243 381 267 c 2
 381 283 l 1xb0
EndSplineSet
EndChar
StartChar: exclamdown
Encoding: 96 161 95
Width: 255
VWidth: 1333
Flags: HW
HStem: 353 107<90.3 165.7>
VStem: 75 106<368 444.7> 85 86<-243 -121.714> 99 58<201.714 323>
Fore
99 323 m 1x90
 157 323 l 1x90
 171 -243 l 1
 85 -243 l 1xa0
 99 323 l 1x90
128 460 m 0
 157 460 181 436 181 407 c 0
 181 377 157 353 128 353 c 0
 99 353 75 377 75 407 c 0xc0
 75 436 99 460 128 460 c 0
EndSplineSet
EndChar
StartChar: cent
Encoding: 97 162 96
Width: 511
VWidth: 1333
Flags: HW
VStem: 51 69<131.8 322.9> 219 72<-123 -5 72 382 459 576>
Fore
291 -123 m 1
 219 -123 l 1
 219 0 l 1
 121 24 51 119 51 227 c 0
 51 335 121 429 219 454 c 1
 219 576 l 1
 291 576 l 1
 291 459 l 1
 398 448 449 360 463 336 c 1
 401 302 l 1
 387 326 356 379 291 390 c 1
 291 64 l 1
 360 75 391 134 401 151 c 1
 463 118 l 1
 443 84 392 5 291 -5 c 1
 291 -123 l 1
219 72 m 1
 219 382 l 1
 163 360 120 301 120 228 c 0
 120 154 163 95 219 72 c 1
EndSplineSet
EndChar
StartChar: sterling
Encoding: 98 163 97
Width: 526
VWidth: 1333
Flags: HW
HStem: 0 69<176 454> 297 68<76 169 245 362> 607 68<251.2 391.6>
VStem: 153 69<460.447 593> 176 69<177.6 297>
Fore
51 58 m 1xe8
 118 96 176 143 176 277 c 2
 176 297 l 1xe8
 53 297 l 1
 76 365 l 1
 169 365 l 1
 163 421 153 475 153 527 c 0
 153 616 228 675 311 675 c 0
 373 675 450 643 468 516 c 1
 411 516 l 1
 409 522 400 607 311 607 c 0
 265 607 222 578 222 528 c 0xf0
 222 484 231 427 238 368 c 1
 385 368 l 1
 362 299 l 1
 245 299 l 1
 245 279 l 2
 245 201 228 129 176 69 c 1
 477 69 l 1
 454 0 l 1
 68 0 l 1
 51 58 l 1xe8
EndSplineSet
EndChar
StartChar: fraction
Encoding: 312 8260 98
Width: 526
VWidth: 1333
Flags: HW
Fore
466 683 m 1
 555 683 l 1
 59 -16 l 1
 -30 -16 l 1
 466 683 l 1
EndSplineSet
EndChar
StartChar: yen
Encoding: 100 165 99
Width: 578
VWidth: 1333
Flags: HW
HStem: 0 21G<255 325> 170 72<98 255 325 477> 275 71<100 216 363 481> 647 20G<11 93 487 569>
VStem: 255 70<0 170 242 275>
Fore
477 242 m 1
 477 170 l 1
 325 170 l 1
 325 0 l 1
 255 0 l 1
 255 170 l 1
 98 170 l 1
 98 242 l 1
 255 242 l 1
 255 275 l 1
 100 275 l 1
 100 346 l 1
 216 346 l 1
 11 667 l 1
 93 667 l 1
 290 359 l 1
 487 667 l 1
 569 667 l 1
 363 346 l 1
 481 346 l 1
 481 275 l 1
 325 275 l 1
 325 242 l 1
 477 242 l 1
EndSplineSet
EndChar
StartChar: florin
Encoding: 200 402 100
Width: 374
VWidth: 1333
Flags: HW
HStem: -72 56<-45 52.9> 333 69<89 151 237 348> 616 56<307.1 405>
VStem: -45 450<-72 672>
Fore
374 402 m 1
 348 333 l 1
 223 333 l 1
 169 71 l 2
 151 -31 65 -72 -29 -72 c 2
 -45 -72 l 1
 -45 -16 l 1
 -29 -16 l 2
 34 -16 88 19 99 84 c 2
 151 333 l 1
 66 333 l 1
 89 402 l 1
 165 402 l 1
 191 530 l 2
 212 631 295 672 389 672 c 2
 405 672 l 1
 405 616 l 1
 389 616 l 2
 326 616 273 581 261 516 c 2
 237 402 l 1
 374 402 l 1
EndSplineSet
EndChar
StartChar: section
Encoding: 102 167 101
Width: 419
VWidth: 1333
Flags: HW
HStem: -59 69<161.2 269.1> 603 69<152.2 241.9>
VStem: 53 70<252.6 356.13 493.274 587.7> 296 71<25.3 121.302 259.801 360.8>
Fore
51 103 m 1
 121 103 l 1
 123 90 l 2
 131 28 172 10 208 10 c 0
 255 10 296 40 296 89 c 0
 296 194 53 161 53 327 c 0
 53 342 54 388 95 428 c 1
 55 463 53 505 53 524 c 0
 53 613 128 672 211 672 c 0
 280 672 353 629 367 529 c 2
 370 512 l 1
 298 512 l 1
 296 525 l 2
 286 595 235 603 212 603 c 0
 166 603 124 573 124 524 c 0
 124 419 367 454 367 288 c 0
 367 247 351 212 325 186 c 1
 365 151 367 110 367 90 c 0
 367 1 291 -59 209 -59 c 0
 140 -59 67 -15 53 86 c 2
 51 103 l 1
297 288 m 0
 297 344 225 360 156 390 c 1
 127 371 123 344 123 328 c 0
 123 270 196 255 263 225 c 1
 293 245 297 272 297 288 c 0
EndSplineSet
EndChar
StartChar: currency
Encoding: 99 164 102
Width: 582
VWidth: 1333
Flags: HW
HStem: 132 73<234.5 350.2> 477 72<233.8 349.5>
VStem: 84 72<282.8 398.5> 428 73<283.8 396.9>
Fore
466 458 m 1
 489 424 501 384 501 341 c 0
 501 297 487 256 464 221 c 1
 541 143 l 1
 491 92 l 1
 413 170 l 1
 379 146 337 132 293 132 c 0
 248 132 206 146 172 170 c 1
 92 91 l 1
 41 141 l 1
 122 220 l 1
 98 254 84 296 84 340 c 0
 84 385 98 427 122 461 c 1
 51 532 l 1
 101 583 l 1
 172 512 l 1
 206 535 247 549 291 549 c 0
 336 549 378 534 412 509 c 1
 488 582 l 1
 539 532 l 1
 466 458 l 1
156 341 m 0
 156 266 217 205 292 205 c 0
 367 205 428 266 428 341 c 0
 428 417 367 477 292 477 c 0
 217 477 156 417 156 341 c 0
EndSplineSet
EndChar
StartChar: quotesingle
Encoding: 7 39 103
Width: 234
VWidth: 1333
Flags: HW
VStem: 73 88<670.562 709 709 709>
Fore
145 504 m 1
 89 504 l 1
 73 709 l 1
 161 709 l 1
 145 504 l 1
EndSplineSet
EndChar
StartChar: quotedblleft
Encoding: 302 8220 104
Width: 330
VWidth: 1333
Flags: HW
HStem: 473 107<110 142.5 227 258.2>
VStem: 48 117<488 568.6> 165 118<487.3 567.9>
Fore
110 580 m 1
 135 581 165 559 165 527 c 0
 165 497 141 473 112 473 c 0
 83 473 47 495 48 544 c 0
 48 572 52 616 113 674 c 1
 113 683 l 1
 192 683 l 1
 157 654 l 2
 137 638 117 605 110 580 c 1
227 579 m 1
 251 579 283 558 283 525 c 0
 283 496 259 472 229 472 c 0
 200 472 165 494 165 543 c 0
 166 572 170 615 231 673 c 1
 231 683 l 1
 310 683 l 1
 274 654 l 2
 254 638 234 604 227 579 c 1
EndSplineSet
EndChar
StartChar: guillemotleft
Encoding: 106 171 105
Width: 395
VWidth: 1333
Flags: HW
HStem: 51 352<297 385>
VStem: 24 361<227 403>
Fore
297 403 m 1
 385 403 l 1
 259 227 l 1
 385 51 l 1
 297 51 l 1
 171 227 l 1
 297 403 l 1
150 403 m 1
 239 403 l 1
 113 227 l 1
 239 51 l 1
 150 51 l 1
 24 227 l 1
 150 403 l 1
EndSplineSet
EndChar
StartChar: guilsinglleft
Encoding: 310 8249 106
Width: 211
VWidth: 1333
Flags: HW
HStem: 51 352<122 211>
VStem: -4 215<227 403>
Fore
122 403 m 1
 211 403 l 1
 85 227 l 1
 211 51 l 1
 122 51 l 1
 -4 227 l 1
 122 403 l 1
EndSplineSet
EndChar
StartChar: guilsinglright
Encoding: 311 8250 107
Width: 211
VWidth: 1333
Flags: HW
HStem: 51 352<1 90>
VStem: 1 215<227 403>
Fore
1 403 m 1
 90 403 l 1
 216 227 l 1
 90 51 l 1
 1 51 l 1
 127 227 l 1
 1 403 l 1
EndSplineSet
EndChar
StartChar: endash
Encoding: 297 8211 108
Width: 349
VWidth: 1333
Flags: HW
HStem: 191 72<48 301>
Fore
301 263 m 1
 301 191 l 1
 48 191 l 1
 48 263 l 1
 301 263 l 1
EndSplineSet
EndChar
StartChar: dagger
Encoding: 305 8224 109
Width: 522
VWidth: 1333
Flags: HW
HStem: 403 74<48 126.429 396.143 475> 410 60<153.143 231 291 369.857>
VStem: 225 73<-144 93.4286 591.714 683> 232 59<172.571 410 470 561.286>
Fore
298 -144 m 1x60
 225 -144 l 1x60
 232 410 l 1x50
 48 403 l 1
 48 477 l 1x90
 231 470 l 1
 225 683 l 1
 298 683 l 1x60
 291 470 l 1x50
 475 477 l 1
 475 403 l 1x90
 291 410 l 1x50
 298 -144 l 1x60
EndSplineSet
EndChar
StartChar: daggerdbl
Encoding: 306 8225 110
Width: 522
VWidth: 1333
Flags: HW
HStem: 101 73<48 126.857 396.143 475> 107 60<153.143 232 291 369.857> 366 73<48 126.857 396.143 475> 373 60<153.143 232 291 369.857>
VStem: 225 73<-144 -36.4286 575.857 683> 232 59<-0.571426 107 167 373 433 540.143>
Fore
298 -144 m 1x48
 225 -144 l 1x48
 232 107 l 1x44
 48 101 l 1
 48 174 l 1x84
 232 167 l 1
 232 373 l 1x54
 48 366 l 1
 48 439 l 1x24
 232 433 l 1x14
 225 683 l 1
 298 683 l 1x18
 291 433 l 1x14
 475 439 l 1
 475 366 l 1x24
 291 373 l 1
 291 167 l 1x54
 475 174 l 1
 475 101 l 1x84
 291 107 l 1x44
 298 -144 l 1x48
EndSplineSet
EndChar
StartChar: periodcentered
Encoding: 118 183 111
Width: 255
VWidth: 1333
Flags: HW
HStem: 280 107<90.3 165.7>
VStem: 75 106<295.3 372>
Fore
128 387 m 0
 157 387 181 363 181 333 c 0
 181 304 157 280 128 280 c 0
 99 280 75 304 75 333 c 0
 75 363 99 387 128 387 c 0
EndSplineSet
EndChar
StartChar: paragraph
Encoding: 117 182 112
Width: 579
VWidth: 1333
Flags: HW
HStem: 597 69<400 446>
VStem: 330 70<-108 190> 446 70<-108 597>
Fore
400 -108 m 1
 330 -108 l 1
 330 190 l 1
 147 192 51 309 51 428 c 0
 51 548 150 666 336 666 c 2
 516 666 l 1
 516 -108 l 1
 446 -108 l 1
 446 597 l 1
 400 597 l 1
 400 -108 l 1
EndSplineSet
EndChar
StartChar: bullet
Encoding: 307 8226 113
Width: 442
VWidth: 1333
Flags: HW
Fore
221 443 m 0
 317 443 395 363 395 267 c 0
 395 170 317 91 221 91 c 0
 126 91 48 170 48 267 c 0
 48 363 126 443 221 443 c 0
EndSplineSet
EndChar
StartChar: quotesinglbase
Encoding: 301 8218 114
Width: 255
VWidth: 1333
Flags: HW
VStem: 75 117<-8 68.7>
Fore
128 84 m 0
 159 84 192 60 192 13 c 0
 192 -69 121 -120 120 -121 c 1
 111 -124 l 1
 45 -124 l 1
 81 -96 l 2
 101 -79 120 -48 128 -23 c 1
 99 -22 75 1 75 31 c 0
 75 60 99 84 128 84 c 0
EndSplineSet
EndChar
StartChar: quotedblbase
Encoding: 304 8222 115
Width: 375
VWidth: 1333
Flags: HW
HStem: -23 107<90.3 128 210.3 248>
VStem: 75 117<-8 68.7> 195 117<-8 68.7>
Fore
248 84 m 0
 279 84 312 60 312 13 c 0
 312 -69 241 -120 240 -121 c 1
 231 -124 l 1
 165 -124 l 1
 201 -96 l 2
 221 -79 240 -48 248 -23 c 1
 219 -22 195 1 195 31 c 0
 195 60 219 84 248 84 c 0
128 84 m 0
 159 84 192 60 192 13 c 0
 192 -69 121 -120 120 -121 c 1
 111 -124 l 1
 45 -124 l 1
 81 -96 l 2
 101 -79 120 -48 128 -23 c 1
 99 -22 75 1 75 31 c 0
 75 60 99 84 128 84 c 0
EndSplineSet
EndChar
StartChar: quotedblright
Encoding: 303 8221 116
Width: 331
VWidth: 1333
Flags: HW
HStem: 575 106<70.2 104 189.5 222>
VStem: 48 117<586.4 665.7> 167 117<586.4 665.7>
Fore
222 575 m 1
 197 574 167 596 167 628 c 0
 167 657 191 681 220 681 c 0
 249 681 284 659 284 611 c 0
 284 528 213 477 212 476 c 1
 203 473 l 1
 137 473 l 1
 174 502 l 2
 195 518 215 550 222 575 c 1
104 575 m 1
 78 574 48 596 48 628 c 0
 48 657 72 681 101 681 c 0
 130 681 165 659 165 611 c 0
 165 528 94 477 93 476 c 1
 84 473 l 1
 18 473 l 1
 56 502 l 2
 77 518 96 550 104 575 c 1
EndSplineSet
EndChar
StartChar: guillemotright
Encoding: 122 187 117
Width: 395
VWidth: 1333
Flags: HW
HStem: 51 352<11 99>
VStem: 11 361<227 403>
Fore
11 403 m 1
 99 403 l 1
 225 227 l 1
 99 51 l 1
 11 51 l 1
 137 227 l 1
 11 403 l 1
157 403 m 1
 246 403 l 1
 372 227 l 1
 246 51 l 1
 157 51 l 1
 283 227 l 1
 157 403 l 1
EndSplineSet
EndChar
StartChar: ellipsis
Encoding: 308 8230 118
Width: 789
VWidth: 1333
Flags: HW
HStem: -23 107<90.3 165.7 358.3 433.7 623.3 700>
VStem: 75 106<-8 68.7> 343 106<-8 68.7> 608 107<-8 68.7>
Fore
128 84 m 0
 157 84 181 60 181 31 c 0
 181 1 157 -23 128 -23 c 0
 99 -23 75 1 75 31 c 0
 75 60 99 84 128 84 c 0
661 84 m 0
 691 84 715 60 715 31 c 0
 715 1 691 -23 661 -23 c 0
 632 -23 608 1 608 31 c 0
 608 60 632 84 661 84 c 0
396 84 m 0
 425 84 449 60 449 31 c 0
 449 1 425 -23 396 -23 c 0
 367 -23 343 1 343 31 c 0
 343 60 367 84 396 84 c 0
EndSplineSet
EndChar
StartChar: perthousand
Encoding: 309 8240 119
Width: 989
VWidth: 1333
Flags: HW
HStem: -24 73<438.4 547.6 772.4 881.6> 196 73<438.4 547.6 772.4 881.6> 393 74<108.4 217.6> 613 74<108.4 217.6>
VStem: 16 72<488 592> 237 72<488 592> 347 72<69.7 175> 568 72<69.7 175> 680 72<69 174.3> 901 72<69 174.3>
Fore
640 123 m 0
 640 42 574 -24 493 -24 c 0
 412 -24 347 42 347 123 c 0
 347 204 412 269 493 269 c 0
 574 269 640 204 640 123 c 0
419 123 m 0
 419 82 451 49 493 49 c 0
 535 49 568 82 568 123 c 0
 568 163 535 196 493 196 c 0
 451 196 419 163 419 123 c 0
973 121 m 0
 973 40 908 -25 827 -25 c 0
 746 -25 680 40 680 121 c 0
 680 202 746 268 827 268 c 0
 908 268 973 202 973 121 c 0
752 121 m 0
 752 81 785 48 827 48 c 0
 869 48 901 81 901 121 c 0
 901 162 869 195 827 195 c 0
 785 195 752 162 752 121 c 0
309 540 m 0
 309 459 244 393 163 393 c 0
 82 393 16 459 16 540 c 0
 16 621 82 687 163 687 c 0
 244 687 309 621 309 540 c 0
88 540 m 0
 88 500 121 467 163 467 c 0
 205 467 237 500 237 540 c 0
 237 580 205 613 163 613 c 0
 121 613 88 580 88 540 c 0
532 679 m 1
 620 679 l 1
 124 -20 l 1
 36 -20 l 1
 532 679 l 1
EndSplineSet
EndChar
StartChar: questiondown
Encoding: 126 191 120
Width: 487
VWidth: 1333
Flags: HW
HStem: -252 72<153.1 336.4> 353 107<219.3 296>
VStem: 51 72<-156.4 36> 204 107<368 444.7> 220 72<104 316> 365 72<-134.3 -52>
Fore
257 353 m 0xf4
 228 353 204 377 204 407 c 0
 204 436 228 460 257 460 c 0
 287 460 311 436 311 407 c 0
 311 377 287 353 257 353 c 0xf4
220 316 m 1xec
 292 316 l 1
 292 233 l 2
 292 71 123 12 123 -68 c 0
 123 -136 172 -180 235 -180 c 0
 313 -180 365 -119 365 -68 c 2
 365 -52 l 1
 437 -52 l 1
 437 -68 l 2
 437 -166 346 -252 235 -252 c 0
 129 -252 51 -174 51 -68 c 0
 51 56 220 104 220 233 c 2
 220 316 l 1xec
EndSplineSet
EndChar
StartChar: grave
Encoding: 64 96 121
Width: 190
VWidth: 1333
Flags: HW
VStem: 6 143<533 696>
Fore
149 533 m 1
 86 533 l 1
 6 696 l 1
 94 696 l 1
 149 533 l 1
EndSplineSet
EndChar
StartChar: acute
Encoding: 115 180 122
Width: 282
VWidth: 1333
Flags: HW
HStem: 517 192<146 183>
VStem: 62 238<517 709>
Fore
183 709 m 1
 300 709 l 1
 146 517 l 1
 62 517 l 1
 183 709 l 1
EndSplineSet
EndChar
StartChar: circumflex
Encoding: 201 710 123
Width: 309
VWidth: 1333
Flags: HW
HStem: 637 151<133 314>
VStem: -4 318<637 637>
Fore
133 788 m 1
 176 788 l 1
 314 637 l 1
 216 637 l 1
 155 703 l 1
 94 637 l 1
 -4 637 l 1
 133 788 l 1
EndSplineSet
EndChar
StartChar: tilde
Encoding: 206 732 124
Width: 290
VWidth: 1333
Flags: HW
HStem: 567 120<89 205>
VStem: 217 58<639 681>
Fore
16 591 m 2
 16 672 60 687 89 687 c 0
 139 687 181 642 205 640 c 0
 208 640 217 645 217 665 c 2
 217 681 l 1
 275 681 l 1
 275 665 l 2
 275 592 247 567 205 567 c 0
 157 567 111 616 89 616 c 0
 81 616 76 609 75 590 c 2
 74 575 l 1
 16 575 l 1
 16 591 l 2
EndSplineSet
EndChar
StartChar: macron
Encoding: 110 175 125
Width: 402
VWidth: 1333
Flags: HW
HStem: 524 72<48 355>
Fore
355 596 m 1
 355 524 l 1
 48 524 l 1
 48 596 l 1
 355 596 l 1
EndSplineSet
EndChar
StartChar: dotaccent
Encoding: 203 729 126
Width: 255
VWidth: 1333
Flags: HW
HStem: 537 107<90.3 165.7>
VStem: 75 106<552 628.7>
Fore
128 644 m 0
 157 644 181 620 181 591 c 0
 181 561 157 537 128 537 c 0
 99 537 75 561 75 591 c 0
 75 620 99 644 128 644 c 0
EndSplineSet
EndChar
StartChar: dieresis
Encoding: 103 168 127
Width: 298
VWidth: 1333
Flags: HW
HStem: 524 107<31.3 108 191.3 268>
VStem: 16 107<539.3 616> 176 107<539.3 616>
Fore
69 631 m 0
 99 631 123 607 123 577 c 0
 123 548 99 524 69 524 c 0
 40 524 16 548 16 577 c 0
 16 607 40 631 69 631 c 0
229 631 m 0
 259 631 283 607 283 577 c 0
 283 548 259 524 229 524 c 0
 200 524 176 548 176 577 c 0
 176 607 200 631 229 631 c 0
EndSplineSet
EndChar
StartChar: ring
Encoding: 204 730 128
Width: 255
VWidth: 1333
Flags: HW
HStem: 485 72<99.4 156.6> 637 72<99.4 156.6>
VStem: 16 72<569.7 625.6> 168 72<569.7 625.6>
Fore
240 597 m 0
 240 535 190 485 128 485 c 0
 66 485 16 535 16 597 c 0
 16 659 66 709 128 709 c 0
 190 709 240 659 240 597 c 0
88 597 m 0
 88 576 106 557 128 557 c 0
 150 557 168 576 168 597 c 0
 168 619 150 637 128 637 c 0
 106 637 88 619 88 597 c 0
EndSplineSet
EndChar
StartChar: cedilla
Encoding: 119 184 129
Width: 279
VWidth: 1333
Flags: HW
HStem: -205 71<109.797 155.22>
Fore
132 5 m 1
 206 5 l 1
 179 -43 l 1
 228 -60 232 -100 232 -120 c 0
 232 -171 188 -204 133 -205 c 0
 108 -205 80 -198 55 -181 c 2
 42 -173 l 1
 81 -112 l 1
 94 -121 l 2
 108 -130 122 -134 134 -134 c 0
 149 -134 160 -128 160 -121 c 0
 160 -115 150 -108 126 -104 c 2
 73 -97 l 1
 132 5 l 1
EndSplineSet
EndChar
StartChar: hungarumlaut
Encoding: 207 733 130
Width: 455
VWidth: 1333
Flags: HW
HStem: 517 192<146 183>
VStem: 62 411<517 709>
Fore
183 709 m 1
 300 709 l 1
 146 517 l 1
 62 517 l 1
 183 709 l 1
357 709 m 1
 473 709 l 1
 320 517 l 1
 235 517 l 1
 357 709 l 1
EndSplineSet
EndChar
StartChar: ogonek
Encoding: 205 731 131
Width: 270
VWidth: 1333
Flags: HW
HStem: -191 66<133.259 171.143>
VStem: 48 73<-126 -74.8411>
Fore
48 -101 m 0
 48 -53 83 -12 110 16 c 1
 198 16 l 1
 171 -11 l 2
 127 -57 121 -82 121 -100 c 0
 121 -120 143 -125 153 -125 c 0
 160 -125 169 -122 177 -117 c 2
 189 -107 l 1
 230 -157 l 1
 216 -167 l 2
 192 -183 166 -191 141 -191 c 0
 90 -191 48 -155 48 -101 c 0
EndSplineSet
EndChar
StartChar: caron
Encoding: 202 711 132
Width: 309
VWidth: 1333
Flags: HW
HStem: 637 151<-4 176>
VStem: -4 318<788 788>
Fore
176 637 m 1
 133 637 l 1
 -4 788 l 1
 94 788 l 1
 155 722 l 1
 216 788 l 1
 314 788 l 1
 176 637 l 1
EndSplineSet
EndChar
StartChar: emdash
Encoding: 298 8212 133
Width: 615
VWidth: 1333
Flags: HW
HStem: 191 72<48 568>
Fore
568 263 m 1
 568 191 l 1
 48 191 l 1
 48 263 l 1
 568 263 l 1
EndSplineSet
EndChar
StartChar: AE
Encoding: 133 198 134
Width: 743
VWidth: 1333
Flags: HW
HStem: 0 68<490 694> 197 69<200 381> 350 69<437 657> 598 69<390 684>
Fore
657 419 m 1
 657 350 l 1
 437 350 l 1
 490 68 l 1
 694 68 l 1
 694 0 l 1
 431 0 l 1
 394 197 l 1
 170 197 l 1
 86 0 l 1
 11 0 l 1
 294 667 l 1
 684 667 l 1
 684 598 l 1
 390 598 l 1
 424 419 l 1
 657 419 l 1
200 266 m 1
 381 266 l 1
 326 562 l 1
 200 266 l 1
EndSplineSet
EndChar
StartChar: ordfeminine
Encoding: 105 170 135
Width: 374
VWidth: 1333
Flags: HW
HStem: 261 67<118.9 224.2> 445 60<125.3 241.948> 560 65<113.6 230.6>
VStem: 33 67<335.6 446.1> 267 69<393.675 435>
Fore
267 420 m 2
 267 435 l 1
 244 441 216 445 189 445 c 0
 140 445 100 432 100 385 c 0
 100 347 130 328 167 328 c 0
 226 328 263 393 267 420 c 2
95 512 m 1
 39 530 l 1
 53 553 94 625 179 625 c 0
 264 625 336 563 336 461 c 2
 336 367 l 2
 336 329 348 282 350 273 c 1
 283 258 l 1
 279 276 275 286 272 312 c 1
 246 284 211 261 167 261 c 0
 91 261 33 311 33 385 c 0
 33 475 110 505 185 505 c 0
 212 505 239 502 263 495 c 1
 251 536 218 560 176 560 c 0
 128 560 104 527 95 512 c 1
EndSplineSet
EndChar
StartChar: Lslash
Encoding: 191 321 136
Width: 518
VWidth: 1286
Flags: HW
HStem: 0 69<135 476> 647 20G<64 135>
VStem: 64 71<69 185 344 667>
Fore
476 0 m 1
 64 0 l 1
 64 185 l 1
 0 128 l 1
 0 225 l 1
 64 281 l 1
 64 667 l 1
 135 667 l 1
 135 344 l 1
 297 489 l 1
 297 393 l 1
 135 248 l 1
 135 69 l 1
 476 69 l 1
 476 0 l 1
EndSplineSet
EndChar
StartChar: Oslash
Encoding: 151 216 137
Width: 782
VWidth: 1286
Flags: HW
HStem: -6 68<336.1 590.9> 604 69<191.8 446.6>
VStem: 44 71<225.1 528> 669 70<139.3 440.9>
Fore
167 -73 m 1
 107 -34 l 1
 174 68 l 1
 95 130 44 226 44 333 c 0
 44 521 200 673 392 673 c 0
 448 673 501 660 548 637 c 1
 615 739 l 1
 676 701 l 1
 609 599 l 1
 688 536 739 441 739 333 c 0
 739 145 583 -6 392 -6 c 0
 335 -6 282 7 235 30 c 1
 167 -73 l 1
570 540 m 1
 273 88 l 1
 309 72 349 62 392 62 c 0
 545 62 669 184 669 333 c 0
 669 416 630 491 570 540 c 1
510 579 m 1
 474 595 434 604 392 604 c 0
 238 604 115 483 115 333 c 0
 115 250 153 176 213 126 c 1
 510 579 l 1
EndSplineSet
EndChar
StartChar: OE
Encoding: 193 338 138
Width: 893
VWidth: 1333
Flags: HW
HStem: -7 69<199.1 441.153> 0 68<503 844> 350 69<503 818> 598 69<543.5 842> 605 68<199.1 441.153>
VStem: 51 70<139.3 528> 432 69<68 350 419 598>
Fore
501 419 m 1x36
 818 419 l 1
 818 350 l 1
 503 350 l 1
 503 68 l 1
 844 68 l 1
 844 0 l 1
 465 0 l 1x76
 444 -4 421 -7 398 -7 c 0
 207 -7 51 145 51 333 c 0
 51 521 207 673 398 673 c 0xae
 421 673 444 671 465 667 c 1
 842 667 l 1
 842 598 l 1
 501 598 l 1
 501 419 l 1x36
432 64 m 1
 432 603 l 1
 421 604 410 605 398 605 c 0
 245 605 121 483 121 333 c 0
 121 184 245 62 398 62 c 0xae
 410 62 421 63 432 64 c 1
EndSplineSet
EndChar
StartChar: ordmasculine
Encoding: 121 186 139
Width: 366
VWidth: 1333
Flags: HW
HStem: 260 71<116.4 251.6> 525 71<116.4 251.6>
VStem: 16 72<357.8 498.2> 280 72<357.8 498.2>
Fore
352 428 m 0
 352 335 277 260 184 260 c 0
 91 260 16 335 16 428 c 0
 16 521 91 596 184 596 c 0
 277 596 352 521 352 428 c 0
88 428 m 0
 88 374 132 331 184 331 c 0
 236 331 280 374 280 428 c 0
 280 482 236 525 184 525 c 0
 132 525 88 482 88 428 c 0
EndSplineSet
EndChar
StartChar: ae
Encoding: 165 230 140
Width: 846
VWidth: 1261
Flags: HW
HStem: -8 68<120.1 282.6 479.4 632.8> 212 66<433 716> 215 63<222.7 355> 392 68<150.5 305.2 492.1 657.2>
VStem: 47 70<91.5 222.8>
Fore
202 60 m 0xb8
 264 60 326 107 355 155 c 1
 355 215 l 1
 245 213 117 200 117 124 c 0
 117 99 139 60 202 60 c 0xb8
433 278 m 1xd8
 716 278 l 1
 696 346 638 392 574 392 c 0
 511 392 453 346 433 278 c 1xd8
426 212 m 1
 426 201 l 2
 437 120 501 62 573 62 c 0
 630 62 684 92 718 151 c 1
 779 118 l 1
 718 10 619 -6 573 -6 c 0
 494 -6 428 37 390 100 c 1
 347 38 272 -8 202 -8 c 0
 93 -8 47 65 47 124 c 0
 47 272 253 278 354 278 c 1xb8
 345 356 289 394 235 394 c 0
 170 394 137 341 127 327 c 1
 69 363 l 1
 84 385 135 461 235 461 c 0
 300 461 363 427 398 365 c 1
 437 422 501 460 574 460 c 0
 692 460 784 363 794 246 c 2
 796 212 l 1
 426 212 l 1
EndSplineSet
EndChar
StartChar: lslash
Encoding: 192 322 141
Width: 197
VWidth: 1286
Flags: HW
HStem: 0 21G<64 135> 647 20G<64 135>
VStem: 64 71<0 192 352 667>
Fore
135 0 m 1
 64 0 l 1
 64 192 l 1
 12 146 l 1
 12 242 l 1
 64 288 l 1
 64 667 l 1
 135 667 l 1
 135 352 l 1
 185 397 l 1
 185 301 l 1
 135 255 l 1
 135 0 l 1
EndSplineSet
EndChar
StartChar: oslash
Encoding: 183 248 142
Width: 573
VWidth: 1261
Flags: HW
HStem: -6 67<245.587 412.8> 392 68<163.2 315.79>
VStem: 44 71<168.5 345.3> 462 68<107.4 303.7>
Fore
530 227 m 0
 530 98 421 -6 287 -6 c 0
 254 -6 222 0 193 12 c 1
 149 -71 l 1
 84 -37 l 1
 130 49 l 1
 77 92 44 155 44 227 c 0
 44 356 153 460 287 460 c 0
 306 460 325 458 342 454 c 1
 379 524 l 1
 445 489 l 1
 412 427 l 1
 483 386 530 312 530 227 c 0
310 391 m 1
 303 392 296 392 288 392 c 0
 192 392 115 318 115 227 c 0
 115 182 133 142 163 112 c 1
 310 391 l 1
380 367 m 1
 225 72 l 1
 244 65 266 61 288 61 c 0
 384 61 462 135 462 227 c 0
 462 286 429 338 380 367 c 1
EndSplineSet
EndChar
StartChar: oe
Encoding: 194 339 143
Width: 954
VWidth: 1261
Flags: HW
HStem: -6 67<163.2 401.4 583.5 740.8> 212 66<541 825> 392 68<163.2 401.4 600.1 765.2>
VStem: 44 71<107.4 345.3>
Fore
115 227 m 0
 115 135 192 61 288 61 c 0
 384 61 462 135 462 227 c 0
 462 318 384 392 288 392 c 0
 192 392 115 318 115 227 c 0
533 212 m 1
 539 125 606 62 681 62 c 0
 738 62 792 92 827 151 c 1
 888 118 l 1
 826 10 727 -6 681 -6 c 0
 600 -6 532 39 495 105 c 1
 452 38 375 -6 287 -6 c 0
 153 -6 44 98 44 227 c 0
 44 356 153 460 287 460 c 0
 375 460 452 415 495 348 c 1
 533 414 602 460 682 460 c 0
 800 460 892 363 902 246 c 2
 904 212 l 1
 533 212 l 1
541 278 m 1
 825 278 l 1
 804 346 746 392 682 392 c 0
 619 392 561 346 541 278 c 1
EndSplineSet
EndChar
StartChar: germandbls
Encoding: 158 223 144
Width: 495
VWidth: 1333
Flags: HW
HStem: -7 62<249.3 363.7> 675 67<175.8 314.9>
VStem: 64 71<1 668.7> 244 72<316.1 431.8> 352 71<471.7 656.3> 393 72<81.7 281.9>
Fore
196 92 m 5xf4
 227 66 258 55 287 55 c 4
 346 55 393 103 393 174 c 4xf4
 393 257 244 284 244 386 c 4
 244 466 352 493 352 564 c 4
 352 635 299 675 246 675 c 4
 192 675 135 633 135 514 c 6
 135 1 l 5
 64 1 l 5
 64 513 l 6
 64 667 154 742 248 742 c 4
 337 742 423 675 423 563 c 4xf8
 423 460 316 421 316 385 c 4
 316 332 465 290 465 172 c 4
 465 70 393 -7 298 -7 c 4
 250 -7 196 13 143 58 c 5
 196 92 l 5xf4
EndSplineSet
EndChar
StartChar: logicalnot
Encoding: 107 172 145
Width: 594
VWidth: 1333
Flags: HW
HStem: 351 72<24 499>
VStem: 499 72<144 351>
Fore
571 423 m 1
 571 144 l 1
 499 144 l 1
 499 351 l 1
 24 351 l 1
 24 423 l 1
 571 423 l 1
EndSplineSet
EndChar
StartChar: trademark
Encoding: 314 8482 146
Width: 758
VWidth: 1333
Flags: HW
HStem: 736 64<55 148 213 306>
VStem: 148 65<451 736>
Fore
306 800 m 1
 306 736 l 1
 213 736 l 1
 213 451 l 1
 148 451 l 1
 148 736 l 1
 55 736 l 1
 55 800 l 1
 306 800 l 1
613 639 m 1
 503 444 l 1
 398 639 l 1
 360 451 l 1
 293 451 l 1
 373 807 l 1
 504 570 l 1
 639 806 l 1
 715 451 l 1
 649 451 l 1
 613 639 l 1
EndSplineSet
EndChar
StartChar: Eth
Encoding: 143 208 147
Width: 609
VWidth: 1333
Flags: HW
HStem: 0 68<135 212> 299 69<-1 64 135 328> 598 69<135 412.2>
VStem: 64 71<68 299 368 598> 489 71<139.3 528>
Fore
135 68 m 1
 212 68 l 2
 366 68 489 184 489 333 c 0
 489 483 366 598 212 598 c 2
 135 598 l 1
 135 368 l 1
 328 368 l 1
 328 299 l 1
 135 299 l 1
 135 68 l 1
64 368 m 1
 64 667 l 1
 212 667 l 2
 403 667 560 521 560 333 c 0
 560 145 403 0 212 0 c 2
 64 0 l 1
 64 299 l 1
 -1 299 l 1
 -1 368 l 1
 64 368 l 1
EndSplineSet
EndChar
StartChar: onehalf
Encoding: 124 189 148
Width: 813
VWidth: 1333
Flags: HW
HStem: 0 69<543 760> 392 69<574.6 673.4> 647 20G<581 667>
VStem: 129 70<215 557> 480 70<292 372> 698 72<188.7 372>
Fore
760 69 m 1
 760 0 l 1
 461 0 l 1
 461 33 l 2
 461 187 698 216 698 307 c 0
 698 357 662 392 624 392 c 0
 586 392 550 357 550 307 c 2
 550 292 l 1
 480 292 l 1
 480 307 l 2
 480 390 543 461 625 461 c 0
 707 461 770 391 770 308 c 0
 770 180 586 148 543 69 c 1
 760 69 l 1
581 667 m 1
 667 667 l 1
 186 0 l 1
 100 0 l 1
 581 667 l 1
129 557 m 1
 90 530 l 1
 50 587 l 1
 199 688 l 1
 199 215 l 1
 129 215 l 1
 129 557 l 1
EndSplineSet
LCarets2: 2 0 0 
Ligature2: "'frac' Diagonal Fractions in Latin lookup 42" one fraction two
Ligature2: "'frac' Diagonal Fractions in Latin lookup 42" one slash two
EndChar
StartChar: plusminus
Encoding: 112 177 149
Width: 422
VWidth: 1333
Flags: HW
HStem: 0 69<24 399> 286 69<24 177 246 399>
VStem: 177 69<136 286 355 505>
Fore
399 69 m 1
 399 0 l 1
 24 0 l 1
 24 69 l 1
 399 69 l 1
246 136 m 1
 177 136 l 1
 177 286 l 1
 24 286 l 1
 24 355 l 1
 177 355 l 1
 177 505 l 1
 246 505 l 1
 246 355 l 1
 399 355 l 1
 399 286 l 1
 246 286 l 1
 246 136 l 1
EndSplineSet
EndChar
StartChar: Thorn
Encoding: 157 222 150
Width: 515
VWidth: 1333
Flags: HW
HStem: 0 21G<64 135> 135 70<133.28 356.1> 462 67<137.639 356.1> 647 20G<64 135>
VStem: 64 71<0 140 210 457 524 667> 395 72<229 438.3>
Fore
135 457 m 5
 135 210 l 5
 159 206 183 205 204 205 c 4
 321 205 395 253 395 333 c 4
 395 414 321 462 204 462 c 4
 183 462 159 460 135 457 c 5
64 0 m 5
 64 667 l 5
 135 667 l 5
 135 524 l 5
 158 528 181 529 204 529 c 4
 364 529 467 450 467 332 c 4
 467 214 364 135 204 135 c 4
 181 135 158 136 135 140 c 5
 135 0 l 5
 64 0 l 5
EndSplineSet
EndChar
StartChar: onequarter
Encoding: 123 188 151
Width: 813
VWidth: 1333
Flags: HW
HStem: 0 21G<140 226 634 704> 69 70<514 634 704 748> 647 20G<621 707>
VStem: 129 70<215 557> 634 69<0 69 139 295>
Fore
621 667 m 1
 707 667 l 1
 226 0 l 1
 140 0 l 1
 621 667 l 1
634 139 m 1
 634 295 l 1
 514 139 l 1
 634 139 l 1
129 557 m 1
 90 530 l 1
 50 587 l 1
 199 688 l 1
 199 215 l 1
 129 215 l 1
 129 557 l 1
634 69 m 1
 373 69 l 1
 703 498 l 1
 703 139 l 1
 771 139 l 1
 748 69 l 1
 704 69 l 1
 704 0 l 1
 634 0 l 1
 634 69 l 1
EndSplineSet
LCarets2: 2 0 0 
Ligature2: "'frac' Diagonal Fractions in Latin lookup 42" one fraction four
Ligature2: "'frac' Diagonal Fractions in Latin lookup 42" one slash four
EndChar
StartChar: divide
Encoding: 182 247 152
Width: 482
VWidth: 1333
Flags: HW
HStem: 156 107<203.3 280> 297 72<48 435> 404 107<203.3 280>
VStem: 188 107<171.3 248 419.3 496>
Fore
241 263 m 0
 271 263 295 239 295 209 c 0
 295 180 271 156 241 156 c 0
 212 156 188 180 188 209 c 0
 188 239 212 263 241 263 c 0
241 511 m 0
 271 511 295 487 295 457 c 0
 295 428 271 404 241 404 c 0
 212 404 188 428 188 457 c 0
 188 487 212 511 241 511 c 0
435 369 m 1
 435 297 l 1
 48 297 l 1
 48 369 l 1
 435 369 l 1
EndSplineSet
EndChar
StartChar: brokenbar
Encoding: 101 166 153
Width: 167
VWidth: 1333
Flags: HW
VStem: 48 72<-243 149 304 696>
Fore
120 304 m 1
 48 304 l 1
 48 696 l 1
 120 696 l 1
 120 304 l 1
120 -243 m 1
 48 -243 l 1
 48 149 l 1
 120 149 l 1
 120 -243 l 1
EndSplineSet
EndChar
StartChar: degree
Encoding: 111 176 154
Width: 354
VWidth: 1333
Flags: HW
HStem: 525 74<136.7 218.6> 711 73<136.7 218.6>
VStem: 48 73<613.4 695.3> 233 74<613.4 695.3>
Fore
307 655 m 0
 307 583 249 525 177 525 c 0
 106 525 48 583 48 655 c 0
 48 726 106 784 177 784 c 0
 249 784 307 726 307 655 c 0
121 655 m 0
 121 623 146 599 177 599 c 0
 209 599 233 623 233 655 c 0
 233 686 209 711 177 711 c 0
 146 711 121 686 121 655 c 0
EndSplineSet
EndChar
StartChar: thorn
Encoding: 189 254 155
Width: 513
VWidth: 1333
Flags: HW
HStem: -8 70<197 379.6> 393 67<197 379.6> 646 20G<53 123>
VStem: 53 70<-222 56 182.5 299.5 400 666> 426 72<103.2 351.5>
Fore
123 -222 m 1
 53 -222 l 1
 53 666 l 1
 123 666 l 1
 123 400 l 1
 163 439 215 460 275 460 c 0
 401 460 498 355 498 226 c 0
 498 98 401 -8 275 -8 c 0
 215 -8 163 17 123 56 c 1
 123 -222 l 1
123 241 m 2
 123 214 l 2
 129 124 197 62 273 62 c 0
 355 62 426 132 426 228 c 0
 426 323 355 393 273 393 c 0
 197 393 129 331 123 241 c 2
EndSplineSet
EndChar
StartChar: threequarters
Encoding: 125 190 156
Width: 813
VWidth: 1333
Flags: HW
HStem: 0 21G<192 278 661 730> 70 69<540 661 730 774> 207 68<135.2 254.8> 438 69<179 234> 605 68<156 234>
VStem: 42 70<311 372> 71 70<537 589.7> 249 68<516.9 589.7> 278 67<297.5 414.5> 661 68<0 70 139 294>
Fore
42 372 m 1xfcc0
 112 372 l 1
 112 356 l 2
 112 311 149 275 195 275 c 0
 241 275 278 311 278 356 c 0xfcc0
 278 401 241 438 195 438 c 2
 179 438 l 1
 179 507 l 1
 195 507 l 2
 225 507 249 525 249 552 c 0
 249 581 225 605 195 605 c 0
 165 605 141 581 141 552 c 2
 141 537 l 1
 71 537 l 1
 71 552 l 2
 71 619 126 673 194 673 c 0
 262 673 317 619 317 552 c 0xfb40
 317 523 305 495 285 474 c 1
 321 447 345 404 345 356 c 0
 345 274 277 207 194 207 c 0
 110 207 42 274 42 356 c 2
 42 372 l 1xfcc0
673 667 m 1
 759 667 l 1
 278 0 l 1
 192 0 l 1
 673 667 l 1
661 139 m 1
 661 294 l 1
 540 139 l 1
 661 139 l 1
661 70 m 1
 399 70 l 1
 729 499 l 1
 729 139 l 1
 797 139 l 1
 774 70 l 1
 730 70 l 1
 730 0 l 1
 661 0 l 1
 661 70 l 1
EndSplineSet
LCarets2: 2 0 0 
Ligature2: "'frac' Diagonal Fractions in Latin lookup 42" three fraction four
Ligature2: "'frac' Diagonal Fractions in Latin lookup 42" three slash four
EndChar
StartChar: registered
Encoding: 109 174 157
Width: 789
VWidth: 1333
Flags: HW
HStem: -7 69<197.4 591.3> 295 69<343 400> 464 69<343 452.8> 605 68<197.4 591.3>
VStem: 51 70<139.3 528> 273 70<133 295 364 464> 467 70<375 451.7> 669 70<139.3 528>
Fore
570 133 m 1
 489 133 l 1
 400 295 l 1
 343 295 l 1
 343 133 l 1
 273 133 l 1
 273 533 l 1
 419 533 l 2
 485 533 537 479 537 414 c 0
 537 368 511 327 472 308 c 1
 570 133 l 1
121 333 m 0
 121 184 243 62 395 62 c 0
 546 62 669 184 669 333 c 0
 669 483 546 605 395 605 c 0
 243 605 121 483 121 333 c 0
739 333 m 0
 739 145 584 -7 395 -7 c 0
 205 -7 51 145 51 333 c 0
 51 521 205 673 395 673 c 0
 584 673 739 521 739 333 c 0
343 364 m 1
 421 364 l 2
 445 364 467 384 467 414 c 0
 467 443 445 464 419 464 c 2
 343 464 l 1
 343 364 l 1
EndSplineSet
EndChar
StartChar: eth
Encoding: 175 240 158
Width: 522
VWidth: 1333
Flags: HW
HStem: -7 68<138.2 387.8> 399 70<138.2 314.91>
VStem: 21 68<109.1 350.9> 436 71<109.1 305.1>
Fore
322 590 m 1
 490 444 507 288 507 231 c 0
 507 99 398 -7 264 -7 c 0
 130 -7 21 99 21 231 c 0
 21 363 130 469 264 469 c 0
 297 469 328 463 356 452 c 1
 329 489 296 523 260 553 c 1
 117 470 l 1
 82 529 l 1
 198 597 l 1
 151 626 111 641 72 653 c 1
 93 719 l 1
 153 701 205 678 264 637 c 1
 407 720 l 1
 442 660 l 1
 322 590 l 1
263 399 m 0
 167 399 89 323 89 230 c 0
 89 137 167 61 263 61 c 0
 359 61 436 137 436 230 c 0
 435.74 332.301 353.01 399 263 399 c 0
EndSplineSet
EndChar
StartChar: multiply
Encoding: 150 215 159
Width: 511
VWidth: 1333
Flags: HW
HStem: 140 387<11 502>
VStem: 11 491<140 527>
Fore
502 140 m 1
 399 140 l 1
 258 281 l 1
 119 140 l 1
 18 140 l 1
 207 332 l 1
 11 527 l 1
 113 527 l 1
 257 383 l 1
 399 527 l 1
 500 527 l 1
 308 332 l 1
 502 140 l 1
EndSplineSet
EndChar
StartChar: copyright
Encoding: 104 169 160
Width: 789
VWidth: 1333
Flags: HW
HStem: -7 69<197.4 591.3> 132 69<317.6 476.2> 463 69<317.6 473.6> 605 68<197.4 591.3>
VStem: 51 70<139.3 528> 211 70<233.2 430.8> 669 70<139.3 528>
Fore
739 333 m 0
 739 145 584 -7 395 -7 c 0
 205 -7 51 145 51 333 c 0
 51 521 205 673 395 673 c 0
 584 673 739 521 739 333 c 0
121 333 m 0
 121 184 243 62 395 62 c 0
 546 62 669 184 669 333 c 0
 669 483 546 605 395 605 c 0
 243 605 121 483 121 333 c 0
496 275 m 1
 556 241 l 1
 538 207 491 132 393 132 c 0
 289 132 211 225 211 332 c 0
 211 440 289 532 393 532 c 0
 491 532 538 458 556 423 c 1
 496 389 l 1
 483 412 455 463 393 463 c 0
 335 463 281 408 281 332 c 0
 281 256 335 201 393 201 c 0
 457 201 485 255 496 275 c 1
EndSplineSet
EndChar
StartChar: Aacute
Encoding: 128 193 161
Width: 617
VWidth: 1287
Flags: HW
HStem: 1 21G<11 87 531 607> 198 69<202 419>
Fore
350 855 m 1
 476 855 l 1
 305 704 l 1
 223 704 l 1
 350 855 l 1
202 267 m 1
 419 267 l 1
 310 496 l 1
 202 267 l 1
170 198 m 1
 87 1 l 1
 11 1 l 1
 309 674 l 1
 607 1 l 1
 531 1 l 1
 447 198 l 1
 170 198 l 1
EndSplineSet
EndChar
StartChar: Acircumflex
Encoding: 129 194 162
Width: 617
VWidth: 1287
Flags: HW
HStem: 1 21G<11 87 531 607> 198 69<202 419>
Fore
202 267 m 1
 419 267 l 1
 310 496 l 1
 202 267 l 1
170 198 m 1
 87 1 l 1
 11 1 l 1
 309 674 l 1
 607 1 l 1
 531 1 l 1
 447 198 l 1
 170 198 l 1
287 855 m 1
 330 855 l 1
 468 704 l 1
 370 704 l 1
 309 770 l 1
 248 704 l 1
 150 704 l 1
 287 855 l 1
EndSplineSet
EndChar
StartChar: Adieresis
Encoding: 131 196 163
Width: 617
VWidth: 1287
Flags: HW
HStem: 1 21G<11 87 531 607> 198 69<202 419> 704 107<190 266.7 350 426.7>
VStem: 175 107<719.3 796> 335 107<719.3 796>
Fore
202 267 m 5
 419 267 l 5
 310 496 l 5
 202 267 l 5
170 198 m 5
 87 1 l 5
 11 1 l 5
 309 674 l 5
 607 1 l 5
 531 1 l 5
 447 198 l 5
 170 198 l 5
229 811 m 4
 258 811 282 787 282 757 c 4
 282 728 258 704 229 704 c 4
 199 704 175 728 175 757 c 4
 175 787 199 811 229 811 c 4
389 811 m 4
 418 811 442 787 442 757 c 4
 442 728 418 704 389 704 c 4
 359 704 335 728 335 757 c 4
 335 787 359 811 389 811 c 4
EndSplineSet
EndChar
StartChar: Agrave
Encoding: 127 192 164
Width: 617
VWidth: 1287
Flags: HW
HStem: 1 21G<11 87 531 607> 198 69<202 419>
Fore
120 855 m 1
 246 855 l 1
 373 704 l 1
 291 704 l 1
 120 855 l 1
202 267 m 1
 419 267 l 1
 310 496 l 1
 202 267 l 1
170 198 m 1
 87 1 l 1
 11 1 l 1
 309 674 l 1
 607 1 l 1
 531 1 l 1
 447 198 l 1
 170 198 l 1
EndSplineSet
EndChar
StartChar: Aring
Encoding: 132 197 165
Width: 617
VWidth: 1287
Flags: HW
HStem: 1 21G<11 86 531 606> 198 69<201 418> 697 72<280.7 336.6> 849 72<280.7 336.6>
VStem: 196 72<781.7 837.6> 348 72<781.7 837.6>
Fore
201 267 m 1
 418 267 l 1
 310 496 l 1
 201 267 l 1
170 198 m 1
 86 1 l 1
 11 1 l 1
 309 674 l 1
 606 1 l 1
 531 1 l 1
 447 198 l 1
 170 198 l 1
420 809 m 0
 420 747 370 697 308 697 c 0
 246 697 196 747 196 809 c 0
 196 871 246 921 308 921 c 0
 370 921 420 871 420 809 c 0
268 809 m 0
 268 788 287 769 308 769 c 0
 330 769 348 788 348 809 c 0
 348 831 330 849 308 849 c 0
 287 849 268 831 268 809 c 0
EndSplineSet
EndChar
StartChar: Atilde
Encoding: 130 195 166
Width: 617
VWidth: 1287
Flags: HW
HStem: 1 21G<11 87 531 607> 198 69<202 419> 704 113<179 236>
VStem: 180 57<704 766.5> 380 58<773.085 811>
Fore
202 267 m 1
 419 267 l 1
 310 496 l 1
 202 267 l 1
170 198 m 1
 87 1 l 1
 11 1 l 1
 309 674 l 1
 607 1 l 1
 531 1 l 1
 447 198 l 1
 170 198 l 1
236 704 m 1
 179 704 l 1
 180 721 l 2
 181 756 188 817 253 817 c 0
 316 817 363 748 377 778 c 0
 378 781 380 786 380 795 c 2
 380 811 l 1
 438 811 l 1
 438 795 l 2
 438 724 408 697 366 697 c 0
 302 697 240 790 237 719 c 2
 236 704 l 1
EndSplineSet
EndChar
StartChar: Ccedilla
Encoding: 134 199 167
Width: 723
VWidth: 1286
Flags: HW
HStem: -205 71<334.797 380.22> 603 70<191.8 572.7>
VStem: 44 71<138.3 527>
Fore
623 182 m 1
 680 145 l 1
 613 55 526 4 425 -5 c 1
 404 -43 l 1
 453 -60 457 -100 457 -120 c 0
 457 -171 413 -204 358 -205 c 0
 333 -205 305 -198 280 -181 c 2
 267 -173 l 1
 306 -112 l 1
 319 -121 l 2
 333 -130 347 -134 359 -134 c 0
 374 -134 385 -128 385 -121 c 0
 385 -115 375 -108 351 -104 c 2
 298 -97 l 1
 352 -4 l 1
 179 15 44 159 44 333 c 0
 44 521 200 673 392 673 c 0
 565 673 654 558 680 522 c 1
 624 481 l 1
 602 509 531 603 392 603 c 0
 238 603 115 482 115 332 c 0
 115 183 238 61 392 61 c 0
 530 61 602 154 623 182 c 1
EndSplineSet
EndChar
StartChar: Eacute
Encoding: 136 201 168
Width: 518
VWidth: 1286
Flags: HW
HStem: 0 69<135 474> 350 69<135 448> 598 69<135 476>
VStem: 64 71<69 350 419 598>
Fore
398 855 m 5
 227 704 l 5
 146 704 l 5
 273 855 l 5
 398 855 l 5
448 419 m 1
 448 350 l 1
 135 350 l 1
 135 69 l 1
 474 69 l 1
 474 0 l 1
 64 0 l 1
 64 667 l 1
 476 667 l 1
 476 598 l 1
 135 598 l 1
 135 419 l 1
 448 419 l 1
EndSplineSet
EndChar
StartChar: Ecircumflex
Encoding: 137 202 169
Width: 518
VWidth: 1286
Flags: HW
HStem: 0 69<135 474> 350 69<135 448> 598 69<135 476>
VStem: 64 71<69 350 419 598>
Fore
269 770 m 1
 208 704 l 1
 110 704 l 1
 248 855 l 1
 292 855 l 1
 430 704 l 1
 332 704 l 1
 269 770 l 1
448 419 m 1
 448 350 l 1
 135 350 l 1
 135 69 l 1
 474 69 l 1
 474 0 l 1
 64 0 l 1
 64 667 l 1
 476 667 l 1
 476 598 l 1
 135 598 l 1
 135 419 l 1
 448 419 l 1
EndSplineSet
EndChar
StartChar: Edieresis
Encoding: 138 203 170
Width: 518
VWidth: 1286
Flags: HW
HStem: 0 69<135 474> 350 69<135 448> 598 69<135 476> 704 107<151.3 228 311.3 388>
VStem: 64 71<69 350 419 598> 136 107<719.3 796> 296 107<719.3 796>
Fore
189 811 m 0
 219 811 243 787 243 757 c 0
 243 728 219 704 189 704 c 0
 160 704 136 728 136 757 c 0
 136 787 160 811 189 811 c 0
349 811 m 0
 379 811 403 787 403 757 c 0
 403 728 379 704 349 704 c 0
 320 704 296 728 296 757 c 0
 296 787 320 811 349 811 c 0
448 419 m 1
 448 350 l 1
 135 350 l 1
 135 69 l 1
 474 69 l 1
 474 0 l 1
 64 0 l 1
 64 667 l 1
 476 667 l 1
 476 598 l 1
 135 598 l 1
 135 419 l 1
 448 419 l 1
EndSplineSet
EndChar
StartChar: Egrave
Encoding: 135 200 171
Width: 518
VWidth: 1286
Flags: HW
HStem: 0 69<135 474> 350 69<135 448> 598 69<135 476>
VStem: 64 71<69 350 419 598>
Fore
82 855 m 5
 207 855 l 5
 334 704 l 5
 253 704 l 5
 82 855 l 5
448 419 m 1
 448 350 l 1
 135 350 l 1
 135 69 l 1
 474 69 l 1
 474 0 l 1
 64 0 l 1
 64 667 l 1
 476 667 l 1
 476 598 l 1
 135 598 l 1
 135 419 l 1
 448 419 l 1
EndSplineSet
EndChar
StartChar: Iacute
Encoding: 140 205 172
Width: 197
VWidth: 1286
Flags: HW
HStem: 0 21G<64 135> 647 20G<64 135>
VStem: 64 71<0 667>
Fore
261 855 m 1
 90 704 l 1
 8 704 l 1
 135 855 l 1
 261 855 l 1
135 0 m 1
 64 0 l 1
 64 667 l 1
 135 667 l 1
 135 0 l 1
EndSplineSet
EndChar
StartChar: Icircumflex
Encoding: 141 206 173
Width: 197
VWidth: 1286
Flags: HW
HStem: 0 21G<64 135> 647 20G<64 135>
VStem: 64 71<0 667>
Fore
135 0 m 1
 64 0 l 1
 64 667 l 1
 135 667 l 1
 135 0 l 1
98 770 m 1
 37 704 l 1
 -61 704 l 1
 76 855 l 1
 121 855 l 1
 258 704 l 1
 160 704 l 1
 98 770 l 1
EndSplineSet
EndChar
StartChar: Idieresis
Encoding: 142 207 174
Width: 197
VWidth: 1286
Flags: HW
HStem: 0 21G<64 135> 647 20G<64 135> 704 107<-20 56.7 140 216.7>
VStem: -35 107<719.3 796> 64 71<0 667> 125 107<719.3 796>
Fore
135 0 m 1xe8
 64 0 l 1
 64 667 l 1
 135 667 l 1
 135 0 l 1xe8
19 811 m 0
 48 811 72 787 72 757 c 0
 72 728 48 704 19 704 c 0
 -11 704 -35 728 -35 757 c 0xf0
 -35 787 -11 811 19 811 c 0
179 811 m 0
 208 811 232 787 232 757 c 0
 232 728 208 704 179 704 c 0
 149 704 125 728 125 757 c 0xe4
 125 787 149 811 179 811 c 0
EndSplineSet
EndChar
StartChar: Igrave
Encoding: 139 204 175
Width: 197
VWidth: 1286
Flags: HW
HStem: 0 21G<64 135> 647 20G<64 135>
VStem: 64 71<0 667>
Fore
-93 855 m 1
 33 855 l 1
 160 704 l 1
 78 704 l 1
 -93 855 l 1
135 0 m 1
 64 0 l 1
 64 667 l 1
 135 667 l 1
 135 0 l 1
EndSplineSet
EndChar
StartChar: Ntilde
Encoding: 144 209 176
Width: 747
VWidth: 1286
Flags: HW
HStem: 0 21G<64 135> 647 20G<614 685> 731 113<244 302>
VStem: 64 71<0 504> 244 58<731 765> 245.302 56.6978<734.013 773.791> 445 59<799.006 837> 614 71<162 667>
Fore
64 0 m 1xf3
 64 674 l 1
 614 162 l 1
 614 667 l 1
 685 667 l 1
 685 -8 l 1
 135 504 l 1
 135 0 l 1
 64 0 l 1xf3
432 797 m 0
 441.836 797 445 807.883 445 821 c 2
 445 837 l 1
 504 837 l 1
 504 821 l 2
 504 751 474 724 432 724 c 0
 385 724 339 772 317 772 c 0
 308 772 303 765 302 746 c 2
 302 731 l 1
 244 731 l 1xfb
 245 747 l 2
 246 783 253 844 318 844 c 0
 370 844 411 797 432 797 c 0
EndSplineSet
EndChar
StartChar: Oacute
Encoding: 146 211 177
Width: 782
VWidth: 1286
Flags: HW
HStem: -6 68<191.8 590.9> 604 69<191.8 590.9>
VStem: 44 71<139.3 528> 669 70<139.3 528>
Fore
574 855 m 1
 403 704 l 1
 322 704 l 1
 449 855 l 1
 574 855 l 1
739 333 m 0
 739 145 583 -6 392 -6 c 0
 200 -6 44 145 44 333 c 0
 44 521 200 673 392 673 c 0
 583 673 739 521 739 333 c 0
115 333 m 0
 115 184 238 62 392 62 c 0
 545 62 669 184 669 333 c 0
 669 483 545 604 392 604 c 0
 238 604 115 483 115 333 c 0
EndSplineSet
EndChar
StartChar: Ocircumflex
Encoding: 147 212 178
Width: 782
VWidth: 1286
Flags: HW
HStem: -6 68<191.8 590.9> 604 69<191.8 590.9>
VStem: 44 71<139.3 528> 669 70<139.3 528>
Fore
739 333 m 4
 739 145 583 -6 392 -6 c 4
 200 -6 44 145 44 333 c 4
 44 521 200 673 392 673 c 4
 583 673 739 521 739 333 c 4
115 333 m 4
 115 184 238 62 392 62 c 4
 545 62 669 184 669 333 c 4
 669 483 545 604 392 604 c 4
 238 604 115 483 115 333 c 4
391 770 m 1
 330 704 l 1
 232 704 l 1
 369 855 l 1
 414 855 l 1
 551 704 l 1
 453 704 l 1
 391 770 l 1
EndSplineSet
EndChar
StartChar: Odieresis
Encoding: 149 214 179
Width: 782
VWidth: 1286
Flags: HW
HStem: -6 68<191.8 590.9> 604 69<191.8 590.9> 704 107<273.3 350 433.3 510>
VStem: 44 71<139.3 528> 258 107<719.3 796> 418 107<719.3 796> 669 70<139.3 528>
Fore
739 333 m 0
 739 145 583 -6 392 -6 c 0
 200 -6 44 145 44 333 c 0
 44 521 200 673 392 673 c 0
 583 673 739 521 739 333 c 0
115 333 m 0
 115 184 238 62 392 62 c 0
 545 62 669 184 669 333 c 0
 669 483 545 604 392 604 c 0
 238 604 115 483 115 333 c 0
311 811 m 0
 341 811 365 787 365 757 c 0
 365 728 341 704 311 704 c 0
 282 704 258 728 258 757 c 0
 258 787 282 811 311 811 c 0
471 811 m 0
 501 811 525 787 525 757 c 0
 525 728 501 704 471 704 c 0
 442 704 418 728 418 757 c 0
 418 787 442 811 471 811 c 0
EndSplineSet
EndChar
StartChar: Ograve
Encoding: 145 210 180
Width: 782
VWidth: 1286
Flags: HW
HStem: -6 68<191.8 590.9> 604 69<191.8 590.9>
VStem: 44 71<139.3 528> 669 70<139.3 528>
Fore
179 855 m 5
 305 855 l 5
 432 704 l 5
 350 704 l 5
 179 855 l 5
739 333 m 0
 739 145 583 -6 392 -6 c 0
 200 -6 44 145 44 333 c 0
 44 521 200 673 392 673 c 0
 583 673 739 521 739 333 c 0
115 333 m 0
 115 184 238 62 392 62 c 0
 545 62 669 184 669 333 c 0
 669 483 545 604 392 604 c 0
 238 604 115 483 115 333 c 0
EndSplineSet
EndChar
StartChar: Otilde
Encoding: 148 213 181
Width: 782
VWidth: 1286
Flags: HW
HStem: -6 68<191.8 590.9> 604 69<191.8 590.9> 731 113<262 319>
VStem: 44 71<139.3 528> 462 59<793.7 837> 669 70<139.3 528>
Fore
739 333 m 0
 739 145 583 -6 392 -6 c 0
 200 -6 44 145 44 333 c 0
 44 521 200 673 392 673 c 0
 583 673 739 521 739 333 c 0
115 333 m 0
 115 184 238 62 392 62 c 0
 545 62 669 184 669 333 c 0
 669 483 545 604 392 604 c 0
 238 604 115 483 115 333 c 0
449 797 m 0
 454 797 462 800 462 821 c 2
 462 837 l 1
 521 837 l 1
 521 821 l 2
 521 751 491 724 449 724 c 0
 403 724 357 772 334 772 c 0
 326 772 321 765 320 746 c 2
 319 731 l 1
 262 731 l 1
 262 747 l 2
 264 783 271 844 336 844 c 0
 387 844 429 797 449 797 c 0
EndSplineSet
EndChar
StartChar: Scaron
Encoding: 195 352 182
Width: 529
VWidth: 1286
Flags: HW
HStem: -8 70<175.6 365.4> 604 70<188.3 326.1>
VStem: 97 70<339.7 576.3> 416 70<89.5 411.9>
Fore
450 530 m 1
 384 507 l 1
 379 522 l 2
 359 578 312 604 265 604 c 0
 206 604 167 561 167 510 c 0
 167 379 486 417 486 198 c 0
 486 75 379 -8 264 -8 c 0
 166 -8 66 53 46 194 c 2
 44 209 l 1
 114 218 l 1
 116 203 l 2
 131 103 196 62 264 62 c 0
 342 62 416 115 416 200 c 0
 416 363 97 316 97 511 c 0
 97 598 164 674 265 674 c 0
 339 674 415 630 445 544 c 2
 450 530 l 1
286 691 m 1
 243 691 l 1
 106 841 l 1
 204 841 l 1
 265 776 l 1
 326 841 l 1
 424 841 l 1
 286 691 l 1
EndSplineSet
EndChar
StartChar: Uacute
Encoding: 153 218 183
Width: 623
VWidth: 1286
Flags: HW
HStem: -7 69<190.5 436.2> 647 20G<64 135 490 561>
VStem: 64 71<146 667> 490 71<112.7 667>
Fore
373 855 m 5
 498 855 l 5
 327 704 l 5
 246 704 l 5
 373 855 l 5
64 667 m 1
 135 667 l 1
 135 257 l 2
 135 146 219 62 314 62 c 0
 408 62 490 146 490 257 c 2
 490 667 l 1
 561 667 l 1
 561 257 l 2
 561 113 451 -7 312 -7 c 0
 173 -7 64 113 64 257 c 2
 64 667 l 1
EndSplineSet
EndChar
StartChar: Ucircumflex
Encoding: 154 219 184
Width: 623
VWidth: 1286
Flags: HW
HStem: -7 69<190.5 436.2> 647 20G<64 135 490 561>
VStem: 64 71<146 667> 490 71<112.7 667>
Fore
64 667 m 1
 135 667 l 1
 135 257 l 2
 135 146 219 62 314 62 c 0
 408 62 490 146 490 257 c 2
 490 667 l 1
 561 667 l 1
 561 257 l 2
 561 113 451 -7 312 -7 c 0
 173 -7 64 113 64 257 c 2
 64 667 l 1
472 704 m 1
 372 704 l 1
 311 770 l 1
 250 704 l 1
 152 704 l 1
 290 855 l 1
 334 855 l 1
 472 704 l 1
EndSplineSet
EndChar
StartChar: Udieresis
Encoding: 155 220 185
Width: 623
VWidth: 1286
Flags: HW
HStem: -7 69<190.5 436.2> 647 20G<64 135 490 561> 704 107<194.3 269.7 354.3 429.7>
VStem: 64 71<146 667> 179 106<719.3 796> 339 106<719.3 796> 490 71<112.7 667>
Fore
64 667 m 1
 135 667 l 1
 135 257 l 2
 135 146 219 62 314 62 c 0
 408 62 490 146 490 257 c 2
 490 667 l 1
 561 667 l 1
 561 257 l 2
 561 113 451 -7 312 -7 c 0
 173 -7 64 113 64 257 c 2
 64 667 l 1
232 811 m 0
 261 811 285 787 285 757 c 0
 285 728 261 704 232 704 c 0
 203 704 179 728 179 757 c 0
 179 787 203 811 232 811 c 0
392 811 m 0
 421 811 445 787 445 757 c 0
 445 728 421 704 392 704 c 0
 363 704 339 728 339 757 c 0
 339 787 363 811 392 811 c 0
EndSplineSet
EndChar
StartChar: Ugrave
Encoding: 152 217 186
Width: 623
VWidth: 1286
Flags: HW
HStem: -7 69<190.5 436.2> 647 20G<64 135 490 561>
VStem: 64 71<146 667> 490 71<112.7 667>
Fore
104 855 m 5
 230 855 l 5
 357 704 l 5
 275 704 l 5
 104 855 l 5
64 667 m 1
 135 667 l 1
 135 257 l 2
 135 146 219 62 314 62 c 0
 408 62 490 146 490 257 c 2
 490 667 l 1
 561 667 l 1
 561 257 l 2
 561 113 451 -7 312 -7 c 0
 173 -7 64 113 64 257 c 2
 64 667 l 1
EndSplineSet
EndChar
StartChar: Yacute
Encoding: 156 221 187
Width: 583
VWidth: 1286
Flags: HW
HStem: 0 21G<257 328> 647 20G<11 93 492 574>
VStem: 257 71<0 286>
Fore
347 855 m 1
 473 855 l 1
 302 704 l 1
 220 704 l 1
 347 855 l 1
11 667 m 1
 93 667 l 1
 293 359 l 1
 492 667 l 1
 574 667 l 1
 328 286 l 1
 328 0 l 1
 257 0 l 1
 257 286 l 1
 11 667 l 1
EndSplineSet
EndChar
StartChar: Ydieresis
Encoding: 197 376 188
Width: 583
VWidth: 1286
Flags: HW
HStem: 0 21G<257 328> 647 20G<11 93 492 574> 704 107<174.3 249.7 334.3 409.7>
VStem: 159 106<719.3 796> 257 71<0 286> 319 106<719.3 796>
Fore
11 667 m 1xe8
 93 667 l 1
 293 359 l 1
 492 667 l 1
 574 667 l 1
 328 286 l 1
 328 0 l 1
 257 0 l 1
 257 286 l 1
 11 667 l 1xe8
212 811 m 0
 241 811 265 787 265 757 c 0
 265 728 241 704 212 704 c 0
 183 704 159 728 159 757 c 0xf0
 159 787 183 811 212 811 c 0
372 811 m 0
 401 811 425 787 425 757 c 0
 425 728 401 704 372 704 c 0
 343 704 319 728 319 757 c 0xe4
 319 787 343 811 372 811 c 0
EndSplineSet
EndChar
StartChar: Zcaron
Encoding: 198 381 189
Width: 559
VWidth: 1286
Flags: HW
HStem: 0 69<142 527> 598 69<72 417>
Fore
72 667 m 1
 549 667 l 1
 142 69 l 1
 550 69 l 1
 527 0 l 1
 11 0 l 1
 417 598 l 1
 48 598 l 1
 72 667 l 1
302 691 m 1
 258 691 l 1
 121 841 l 1
 219 841 l 1
 280 776 l 1
 341 841 l 1
 439 841 l 1
 302 691 l 1
EndSplineSet
EndChar
StartChar: aacute
Encoding: 160 225 190
Width: 489
VWidth: 1261
Flags: HW
HStem: -8 68<120.1 281.3> 215 58<222.7 355> 394 67<150.5 305.2> 647 20G<261 386>
VStem: 47 70<91.5 224.1> 355 71<155 215>
Fore
261 667 m 5
 386 667 l 5
 215 516 l 5
 134 516 l 5
 261 667 l 5
446 0 m 1
 368 0 l 1
 360 18 354 45 355 62 c 1
 316 23 263 -8 202 -8 c 0
 93 -8 47 65 47 124 c 0
 47 272 253 273 354 273 c 1
 345 351 289 394 235 394 c 0
 170 394 137 341 127 327 c 1
 69 363 l 1
 84 385 135 461 235 461 c 0
 331 461 423 387 426 258 c 2
 426 108 l 2
 426 68 434 22 446 0 c 1
202 60 m 0
 264 60 326 107 355 155 c 1
 355 215 l 1
 246 213 117 201 117 124 c 0
 117 99 139 60 202 60 c 0
EndSplineSet
EndChar
StartChar: acircumflex
Encoding: 161 226 191
Width: 489
VWidth: 1261
Flags: HW
HStem: -8 68<120.1 281.3> 215 58<222.7 355> 394 67<150.5 305.2> 647 20G<213 256>
VStem: 47 70<91.5 224.1> 355 71<155 215>
Fore
213 667 m 1
 256 667 l 1
 394 516 l 1
 296 516 l 1
 235 582 l 1
 174 516 l 1
 76 516 l 1
 213 667 l 1
446 0 m 1
 368 0 l 1
 360 18 354 45 355 62 c 1
 316 23 263 -8 202 -8 c 0
 93 -8 47 65 47 124 c 0
 47 272 253 273 354 273 c 1
 345 351 289 394 235 394 c 0
 170 394 137 341 127 327 c 1
 69 363 l 1
 84 385 135 461 235 461 c 0
 331 461 423 387 426 258 c 2
 426 108 l 2
 426 68 434 22 446 0 c 1
202 60 m 0
 264 60 326 107 355 155 c 1
 355 215 l 1
 246 213 117 201 117 124 c 0
 117 99 139 60 202 60 c 0
EndSplineSet
EndChar
StartChar: adieresis
Encoding: 163 228 192
Width: 489
VWidth: 1261
Flags: HW
HStem: -8 68<120.1 281.3> 215 58<222.7 355> 394 67<150.5 305.2> 517 107<115.3 192 275.3 352>
VStem: 47 70<91.5 224.1> 100 107<532 608.7> 260 107<532 608.7> 355 71<155 215>
Fore
153 624 m 0xf4
 183 624 207 600 207 571 c 0
 207 541 183 517 153 517 c 0
 124 517 100 541 100 571 c 0
 100 600 124 624 153 624 c 0xf4
313 624 m 0
 343 624 367 600 367 571 c 0
 367 541 343 517 313 517 c 0
 284 517 260 541 260 571 c 0xf2
 260 600 284 624 313 624 c 0
446 0 m 1
 368 0 l 1
 360 18 354 45 355 62 c 1
 316 23 263 -8 202 -8 c 0
 93 -8 47 65 47 124 c 0
 47 272 253 273 354 273 c 1
 345 351 289 394 235 394 c 0
 170 394 137 341 127 327 c 1
 69 363 l 1
 84 385 135 461 235 461 c 0
 331 461 423 387 426 258 c 2
 426 108 l 2xf9
 426 68 434 22 446 0 c 1
202 60 m 0
 264 60 326 107 355 155 c 1
 355 215 l 1
 246 213 117 201 117 124 c 0
 117 99 139 60 202 60 c 0
EndSplineSet
EndChar
StartChar: agrave
Encoding: 159 224 193
Width: 489
VWidth: 1261
Flags: HW
HStem: -8 68<120.1 281.3> 215 58<222.7 355> 394 67<150.5 305.2> 647 20G<34 159>
VStem: 47 70<91.5 224.1> 355 71<155 215>
Fore
34 667 m 1
 159 667 l 1
 286 516 l 1
 205 516 l 1
 34 667 l 1
446 0 m 1
 368 0 l 1
 360 18 354 45 355 62 c 1
 316 23 263 -8 202 -8 c 0
 93 -8 47 65 47 124 c 0
 47 272 253 273 354 273 c 1
 345 351 289 394 235 394 c 0
 170 394 137 341 127 327 c 1
 69 363 l 1
 84 385 135 461 235 461 c 0
 331 461 423 387 426 258 c 2
 426 108 l 2
 426 68 434 22 446 0 c 1
202 60 m 0
 264 60 326 107 355 155 c 1
 355 215 l 1
 246 213 117 201 117 124 c 0
 117 99 139 60 202 60 c 0
EndSplineSet
EndChar
StartChar: aring
Encoding: 164 229 194
Width: 489
VWidth: 1261
Flags: HW
HStem: -8 68<120.1 281.3> 215 58<222.7 355> 394 67<150.5 305.2> 511 72<206.4 262.3> 663 72<206.4 262.3>
VStem: 47 70<91.5 224.1> 123 72<594.4 650.3> 275 72<594.4 650.3> 355 71<155 215>
Fore
347 623 m 0
 347 561 297 511 235 511 c 0
 173 511 123 561 123 623 c 0
 123 685 173 735 235 735 c 0
 297 735 347 685 347 623 c 0
195 623 m 0
 195 601 213 583 235 583 c 0
 256 583 275 601 275 623 c 0
 275 644 256 663 235 663 c 0
 213 663 195 644 195 623 c 0
446 0 m 1
 368 0 l 1
 360 18 354 45 355 62 c 1
 316 23 263 -8 202 -8 c 0
 93 -8 47 65 47 124 c 0
 47 272 253 273 354 273 c 1
 345 351 289 394 235 394 c 0
 170 394 137 341 127 327 c 1
 69 363 l 1
 84 385 135 461 235 461 c 0
 331 461 423 387 426 258 c 2
 426 108 l 2
 426 68 434 22 446 0 c 1
202 60 m 0
 264 60 326 107 355 155 c 1
 355 215 l 1
 246 213 117 201 117 124 c 0
 117 99 139 60 202 60 c 0
EndSplineSet
EndChar
StartChar: atilde
Encoding: 162 227 195
Width: 489
VWidth: 1261
Flags: HW
HStem: -8 68<120.1 281.3> 215 58<222.7 355> 394 67<150.5 305.2> 509 74<264.8 303.191>
VStem: 47 70<91.5 224.1> 107 58<517 557.7> 308 57<580.6 620> 355 71<155 215>
Fore
107 533 m 2xf6
 107 615 151 629 180 629 c 0
 229 629 272 584 296 583 c 0
 301 583 308 586 308 604 c 2
 308 620 l 1
 365 620 l 1
 365 604 l 2
 365 535 336 509 296 509 c 0
 248 509 202 558 179 558 c 0
 171 558 166 552 165 533 c 2
 165 517 l 1
 107 517 l 1
 107 533 l 2xf6
446 0 m 1
 368 0 l 1
 360 18 354 45 355 62 c 1
 316 23 263 -8 202 -8 c 0
 93 -8 47 65 47 124 c 0
 47 272 253 273 354 273 c 1
 345 351 289 394 235 394 c 0
 170 394 137 341 127 327 c 1
 69 363 l 1
 84 385 135 461 235 461 c 0
 331 461 423 387 426 258 c 2
 426 108 l 2xf9
 426 68 434 22 446 0 c 1
202 60 m 0
 264 60 326 107 355 155 c 1
 355 215 l 1
 246 213 117 201 117 124 c 0
 117 99 139 60 202 60 c 0
EndSplineSet
EndChar
StartChar: ccedilla
Encoding: 166 231 196
Width: 498
VWidth: 1261
Flags: HW
HStem: -180 62<213.485 261.3> 391 69<159.3 366>
VStem: 44 69<105.8 350.2>
Fore
395 151 m 1
 456 118 l 1
 437 86 390 12 298 -4 c 1
 291 -18 l 1
 340 -35 344 -74 344 -95 c 0
 344 -146 300 -180 245 -180 c 0
 220 -180 192 -172 167 -156 c 2
 154 -147 l 1
 193 -100 l 1
 206 -109 l 2
 215 -115 225 -118 234 -118 c 0
 255 -118 272 -104 272 -90 c 0
 272 -80 262 -69 238 -65 c 2
 195 -58 l 1
 225 -3 l 1
 120 16 44 114 44 227 c 0
 44 352 138 460 262 460 c 0
 385 460 441 361 456 336 c 1
 395 302 l 1
 379 329 342 391 262 391 c 0
 183 391 113 322 113 228 c 0
 113 134 184 62 262 62 c 0
 346 62 384 132 395 151 c 1
EndSplineSet
EndChar
StartChar: eacute
Encoding: 168 233 197
Width: 529
VWidth: 1261
Flags: HW
HStem: -6 68<165.8 323.1> 212 66<122 406> 392 68<182.1 347.2> 648 20G<306 432>
VStem: 44 441<212 249.75 212 227>
Fore
306 668 m 5
 432 668 l 5
 261 517 l 5
 179 517 l 5
 306 668 l 5
122 278 m 1
 406 278 l 1
 386 346 328 392 264 392 c 0
 201 392 143 346 122 278 c 1
114 212 m 1
 121 125 188 62 262 62 c 0
 320 62 373 92 408 151 c 1
 469 118 l 1
 407 10 309 -6 262 -6 c 0
 138 -6 44 101 44 227 c 0
 44 352 140 460 264 460 c 0
 382 460 473 363 483 246 c 2
 485 212 l 1
 114 212 l 1
EndSplineSet
EndChar
StartChar: ecircumflex
Encoding: 169 234 198
Width: 529
VWidth: 1261
Flags: HW
HStem: -6 68<165.8 323.1> 212 66<122 406> 392 68<182.1 347.2> 648 20G<243 286>
VStem: 44 441<212 249.75 212 227>
Fore
122 278 m 1
 406 278 l 1
 386 346 328 392 264 392 c 0
 201 392 143 346 122 278 c 1
114 212 m 1
 121 125 188 62 262 62 c 0
 320 62 373 92 408 151 c 1
 469 118 l 1
 407 10 309 -6 262 -6 c 0
 138 -6 44 101 44 227 c 0
 44 352 140 460 264 460 c 0
 382 460 473 363 483 246 c 2
 485 212 l 1
 114 212 l 1
243 668 m 1
 286 668 l 1
 424 517 l 1
 326 517 l 1
 265 583 l 1
 204 517 l 1
 106 517 l 1
 243 668 l 1
EndSplineSet
EndChar
StartChar: edieresis
Encoding: 170 235 199
Width: 529
VWidth: 1261
Flags: HW
HStem: -6 68<165.8 323.1> 212 66<122 406> 392 68<182.1 347.2> 517 107<146 222.7 306 382.7>
VStem: 131 107<532 608.7> 291 107<532 608.7>
Fore
122 278 m 5
 406 278 l 5
 386 346 328 392 264 392 c 4
 201 392 143 346 122 278 c 5
114 212 m 5
 121 125 188 62 262 62 c 4
 320 62 373 92 408 151 c 5
 469 118 l 5
 407 10 309 -6 262 -6 c 4
 138 -6 44 101 44 227 c 4
 44 352 140 460 264 460 c 4
 382 460 473 363 483 246 c 6
 485 212 l 5
 114 212 l 5
185 624 m 0
 214 624 238 600 238 571 c 0
 238 541 214 517 185 517 c 0
 155 517 131 541 131 571 c 0
 131 600 155 624 185 624 c 0
345 624 m 0
 374 624 398 600 398 571 c 0
 398 541 374 517 345 517 c 0
 315 517 291 541 291 571 c 0
 291 600 315 624 345 624 c 0
EndSplineSet
EndChar
StartChar: egrave
Encoding: 167 232 200
Width: 529
VWidth: 1261
Flags: HW
HStem: -6 68<165.8 323.1> 212 66<122 406> 392 68<182.1 347.2> 648 20G<35 161>
VStem: 35 450<212 668>
Fore
35 668 m 5
 161 668 l 5
 288 517 l 5
 206 517 l 5
 35 668 l 5
122 278 m 1
 406 278 l 1
 386 346 328 392 264 392 c 0
 201 392 143 346 122 278 c 1
114 212 m 1
 121 125 188 62 262 62 c 0
 320 62 373 92 408 151 c 1
 469 118 l 1
 407 10 309 -6 262 -6 c 0
 138 -6 44 101 44 227 c 0
 44 352 140 460 264 460 c 0
 382 460 473 363 483 246 c 2
 485 212 l 1
 114 212 l 1
EndSplineSet
EndChar
StartChar: iacute
Encoding: 172 237 201
Width: 195
VWidth: 1265
Flags: HW
HStem: 0 21G<63 134> 433 20G<63 134> 648 20G<129 253>
VStem: 63 71<0 453>
Fore
129 668 m 5
 253 668 l 5
 82 517 l 5
 0 517 l 5
 129 668 l 5
134 0 m 1
 63 0 l 1
 63 453 l 1
 134 453 l 1
 134 0 l 1
EndSplineSet
EndChar
StartChar: icircumflex
Encoding: 173 238 202
Width: 195
VWidth: 1265
Flags: HW
HStem: 0 21G<63 134> 433 20G<63 134> 648 20G<76 120>
VStem: 63 71<0 453>
Fore
134 0 m 5
 63 0 l 5
 63 453 l 5
 134 453 l 5
 134 0 l 5
76 668 m 1
 120 668 l 1
 257 517 l 1
 159 517 l 1
 98 583 l 1
 37 517 l 1
 -61 517 l 1
 76 668 l 1
EndSplineSet
EndChar
StartChar: idieresis
Encoding: 174 239 203
Width: 195
VWidth: 1265
Flags: HW
HStem: 0 21G<63 134> 433 20G<63 134> 517 107<-19.7 55.7 140.3 215.7>
VStem: -35 106<532 608.7> 63 71<0 453> 125 106<532 608.7>
Fore
134 0 m 1xe8
 63 0 l 1
 63 453 l 1
 134 453 l 1
 134 0 l 1xe8
18 624 m 0
 47 624 71 600 71 571 c 0
 71 541 47 517 18 517 c 0
 -11 517 -35 541 -35 571 c 0xf0
 -35 600 -11 624 18 624 c 0
178 624 m 0
 207 624 231 600 231 571 c 0
 231 541 207 517 178 517 c 0
 149 517 125 541 125 571 c 0xe4
 125 600 149 624 178 624 c 0
EndSplineSet
EndChar
StartChar: igrave
Encoding: 171 236 204
Width: 195
VWidth: 1265
Flags: HW
HStem: 0 21G<63 134> 433 20G<63 134> 648 20G<-97 29>
VStem: 63 71<0 453>
Fore
-97 668 m 5
 29 668 l 5
 156 517 l 5
 74 517 l 5
 -97 668 l 5
134 0 m 1
 63 0 l 1
 63 453 l 1
 134 453 l 1
 134 0 l 1
EndSplineSet
EndChar
StartChar: ntilde
Encoding: 176 241 205
Width: 482
VWidth: 1261
Flags: HW
HStem: 0 21G<63 134 348 419> 393 67<204 351.5>
VStem: 63 71<0 298.5 366 373.3> 112 59<517 557.7> 313 58<582 623> 348 71<0 340.7>
Fore
122 454 m 1xe4
 132 422 134 412 134 366 c 1
 165 413 219 460 269 460 c 0
 373 460 419 372 419 277 c 2
 419 0 l 1
 348 0 l 1
 348 277 l 2
 348 326 332 393 267 393 c 0
 205 393 134 282 134 227 c 2
 134 0 l 1
 63 0 l 1
 63 320 l 2
 63 361 55 432 43 454 c 1
 122 454 l 1xe4
112 533 m 2xd8
 112 615 156 629 185 629 c 0
 234 629 280 583 301 583 c 0
 304 583 313 588 313 608 c 2
 313 623 l 1
 371 623 l 1
 371 604 l 2
 371 535 342 509 301 509 c 0
 253 509 207 559 185 559 c 0
 176 559 171 552 171 533 c 2
 171 517 l 1
 112 517 l 1
 112 533 l 2xd8
EndSplineSet
EndChar
StartChar: oacute
Encoding: 178 243 206
Width: 573
VWidth: 1261
Flags: HW
HStem: -6 67<163.2 412.8> 392 68<163.2 412.8> 648 20G<306 432>
VStem: 44 71<107.4 345.3> 462 68<107.4 345.3>
Fore
306 668 m 5
 432 668 l 5
 261 517 l 5
 179 517 l 5
 306 668 l 5
530 227 m 0
 530 98 421 -6 287 -6 c 0
 153 -6 44 98 44 227 c 0
 44 356 153 460 287 460 c 0
 421 460 530 356 530 227 c 0
115 227 m 0
 115 135 192 61 288 61 c 0
 384 61 462 135 462 227 c 0
 462 318 384 392 288 392 c 0
 192 392 115 318 115 227 c 0
EndSplineSet
EndChar
StartChar: ocircumflex
Encoding: 179 244 207
Width: 573
VWidth: 1261
Flags: HW
HStem: -6 67<163.2 412.8> 392 68<163.2 412.8> 648 20G<265 308>
VStem: 44 71<107.4 345.3> 462 68<107.4 345.3>
Fore
530 227 m 0
 530 98 421 -6 287 -6 c 0
 153 -6 44 98 44 227 c 0
 44 356 153 460 287 460 c 0
 421 460 530 356 530 227 c 0
115 227 m 0
 115 135 192 61 288 61 c 0
 384 61 462 135 462 227 c 0
 462 318 384 392 288 392 c 0
 192 392 115 318 115 227 c 0
265 668 m 1
 308 668 l 1
 446 517 l 1
 348 517 l 1
 287 583 l 1
 226 517 l 1
 128 517 l 1
 265 668 l 1
EndSplineSet
EndChar
StartChar: odieresis
Encoding: 181 246 208
Width: 573
VWidth: 1261
Flags: HW
HStem: -6 67<163.2 412.8> 392 68<163.2 412.8> 517 107<168 244.7 328 404.7>
VStem: 44 71<107.4 345.3> 153 107<532 608.7> 313 107<532 608.7> 462 68<107.4 345.3>
Fore
530 227 m 0
 530 98 421 -6 287 -6 c 0
 153 -6 44 98 44 227 c 0
 44 356 153 460 287 460 c 0
 421 460 530 356 530 227 c 0
115 227 m 0
 115 135 192 61 288 61 c 0
 384 61 462 135 462 227 c 0
 462 318 384 392 288 392 c 0
 192 392 115 318 115 227 c 0
207 624 m 0
 236 624 260 600 260 571 c 0
 260 541 236 517 207 517 c 0
 177 517 153 541 153 571 c 0
 153 600 177 624 207 624 c 0
367 624 m 0
 396 624 420 600 420 571 c 0
 420 541 396 517 367 517 c 0
 337 517 313 541 313 571 c 0
 313 600 337 624 367 624 c 0
EndSplineSet
EndChar
StartChar: ograve
Encoding: 177 242 209
Width: 573
VWidth: 1261
Flags: HW
HStem: -6 67<163.2 412.8> 392 68<163.2 412.8> 648 20G<94 219>
VStem: 44 71<107.4 345.3> 462 68<107.4 345.3>
Fore
94 668 m 5
 219 668 l 5
 346 517 l 5
 265 517 l 5
 94 668 l 5
530 227 m 0
 530 98 421 -6 287 -6 c 0
 153 -6 44 98 44 227 c 0
 44 356 153 460 287 460 c 0
 421 460 530 356 530 227 c 0
115 227 m 0
 115 135 192 61 288 61 c 0
 384 61 462 135 462 227 c 0
 462 318 384 392 288 392 c 0
 192 392 115 318 115 227 c 0
EndSplineSet
EndChar
StartChar: otilde
Encoding: 180 245 210
Width: 573
VWidth: 1261
Flags: HW
HStem: -6 67<163.2 412.8> 392 68<163.2 412.8>
VStem: 44 71<107.4 345.3> 157 59<517 557.7> 359 57<582 623> 462 68<107.4 345.3>
Fore
530 227 m 0
 530 98 421 -6 287 -6 c 0
 153 -6 44 98 44 227 c 0
 44 356 153 460 287 460 c 0
 421 460 530 356 530 227 c 0
115 227 m 0
 115 135 192 61 288 61 c 0
 384 61 462 135 462 227 c 0
 462 318 384 392 288 392 c 0
 192 392 115 318 115 227 c 0
157 533 m 2
 157 615 201 629 231 629 c 0
 280 629 325 583 347 583 c 0
 349 583 359 588 359 608 c 2
 359 623 l 1
 416 623 l 1
 416 604 l 2
 416 535 387 509 347 509 c 0
 298 509 253 559 230 559 c 0
 222 559 217 552 216 533 c 2
 216 517 l 1
 157 517 l 1
 157 533 l 2
EndSplineSet
EndChar
StartChar: scaron
Encoding: 196 353 211
Width: 405
VWidth: 1261
Flags: HW
HStem: -8 68<151 261.5> 394 67<163.7 236.5>
VStem: 79 71<250.4 383> 292 70<75.6 264.1>
Fore
339 355 m 1
 273 332 l 1
 268 347 l 2
 256 380 229 394 204 394 c 0
 173 394 150 374 150 344 c 0
 150 272 362 287 362 138 c 0
 362 51 286 -8 202 -8 c 0
 131 -8 60 36 46 134 c 2
 44 149 l 1
 114 157 l 1
 116 143 l 2
 124 83 163 60 203 60 c 0
 248 60 292 90 292 138 c 0
 292 235 79 208 79 344 c 0
 79 418 139 461 204 461 c 0
 246 461 308 440 334 369 c 2
 339 355 l 1
224 477 m 1
 181 477 l 1
 44 628 l 1
 142 628 l 1
 203 562 l 1
 264 628 l 1
 362 628 l 1
 224 477 l 1
EndSplineSet
EndChar
StartChar: uacute
Encoding: 185 250 212
Width: 479
VWidth: 1259
Flags: HW
HStem: -7 68<164.9 313.1> 433 20G<64 135 346 417> 648 20G<282 408>
VStem: 64 71<110 453> 346 71<89.9 453>
Fore
282 668 m 5
 408 668 l 5
 237 517 l 5
 155 517 l 5
 282 668 l 5
64 453 m 1
 135 453 l 1
 135 177 l 2
 135 110 182 61 239 61 c 0
 296 61 346 110 346 177 c 2
 346 453 l 1
 417 453 l 1
 417 177 l 2
 417 77 340 -7 240 -7 c 0
 140 -7 64 77 64 177 c 2
 64 453 l 1
EndSplineSet
EndChar
StartChar: ucircumflex
Encoding: 186 251 213
Width: 479
VWidth: 1259
Flags: HW
HStem: -7 68<164.9 313.1> 433 20G<64 135 346 417> 648 20G<218 262>
VStem: 64 71<110 453> 346 71<89.9 453>
Fore
64 453 m 1
 135 453 l 1
 135 177 l 2
 135 110 182 61 239 61 c 0
 296 61 346 110 346 177 c 2
 346 453 l 1
 417 453 l 1
 417 177 l 2
 417 77 340 -7 240 -7 c 0
 140 -7 64 77 64 177 c 2
 64 453 l 1
218 668 m 1
 262 668 l 1
 399 517 l 1
 301 517 l 1
 240 583 l 1
 179 517 l 1
 81 517 l 1
 218 668 l 1
EndSplineSet
EndChar
StartChar: udieresis
Encoding: 187 252 214
Width: 479
VWidth: 1259
Flags: HW
HStem: -7 68<164.9 313.1> 433 20G<64 135 346 417> 517 107<122.3 197.7 282.3 357.7>
VStem: 64 71<110 453> 107 106<532 608.7> 267 106<532 608.7> 346 71<89.9 453>
Fore
64 453 m 1xf2
 135 453 l 1
 135 177 l 2
 135 110 182 61 239 61 c 0
 296 61 346 110 346 177 c 2
 346 453 l 1
 417 453 l 1
 417 177 l 2
 417 77 340 -7 240 -7 c 0
 140 -7 64 77 64 177 c 2
 64 453 l 1xf2
160 624 m 0
 189 624 213 600 213 571 c 0
 213 541 189 517 160 517 c 0
 131 517 107 541 107 571 c 0xe8
 107 600 131 624 160 624 c 0
320 624 m 0
 349 624 373 600 373 571 c 0
 373 541 349 517 320 517 c 0
 291 517 267 541 267 571 c 0xe4
 267 600 291 624 320 624 c 0
EndSplineSet
EndChar
StartChar: ugrave
Encoding: 184 249 215
Width: 479
VWidth: 1259
Flags: HW
HStem: -7 68<164.9 313.1> 433 20G<64 135 346 417> 648 20G<52 178>
VStem: 64 71<110 453> 346 71<89.9 453>
Fore
52 668 m 5
 178 668 l 5
 305 517 l 5
 223 517 l 5
 52 668 l 5
64 453 m 1
 135 453 l 1
 135 177 l 2
 135 110 182 61 239 61 c 0
 296 61 346 110 346 177 c 2
 346 453 l 1
 417 453 l 1
 417 177 l 2
 417 77 340 -7 240 -7 c 0
 140 -7 64 77 64 177 c 2
 64 453 l 1
EndSplineSet
EndChar
StartChar: yacute
Encoding: 188 253 216
Width: 450
VWidth: 1253
Flags: HW
HStem: 434 20G<11 85 365 440> 648 20G<266 392>
VStem: 11 429<454 454>
Fore
266 668 m 5
 392 668 l 5
 221 517 l 5
 139 517 l 5
 266 668 l 5
11 454 m 1
 85 454 l 1
 227 107 l 1
 365 454 l 1
 440 454 l 1
 174 -218 l 1
 98 -218 l 1
 191 14 l 1
 11 454 l 1
EndSplineSet
EndChar
StartChar: ydieresis
Encoding: 190 255 217
Width: 450
VWidth: 1253
Flags: HW
HStem: 434 20G<11 85 365 440> 524 107<107.3 184 267.3 344>
VStem: 92 107<539.3 616> 252 107<539.3 616>
Fore
11 454 m 1
 85 454 l 1
 227 107 l 1
 365 454 l 1
 440 454 l 1
 174 -218 l 1
 98 -218 l 1
 191 14 l 1
 11 454 l 1
145 631 m 0
 175 631 199 607 199 577 c 0
 199 548 175 524 145 524 c 0
 116 524 92 548 92 577 c 0
 92 607 116 631 145 631 c 0
305 631 m 0
 335 631 359 607 359 577 c 0
 359 548 335 524 305 524 c 0
 276 524 252 548 252 577 c 0
 252 607 276 631 305 631 c 0
EndSplineSet
EndChar
StartChar: zcaron
Encoding: 199 382 218
Width: 438
VWidth: 1261
Flags: HW
HStem: 0 67<145 396> 386 68<83 296>
VStem: 11 418<0 454>
Fore
83 454 m 1
 429 454 l 1
 145 67 l 1
 419 67 l 1
 396 0 l 1
 11 0 l 1
 296 386 l 1
 60 386 l 1
 83 454 l 1
241 477 m 1
 198 477 l 1
 60 628 l 1
 158 628 l 1
 219 562 l 1
 280 628 l 1
 378 628 l 1
 241 477 l 1
EndSplineSet
EndChar
StartChar: uni00AD
Encoding: 108 173 220
Width: 487
VWidth: 1333
Flags: HW
HStem: 191 72<51 437>
Fore
437 263 m 1
 437 191 l 1
 51 191 l 1
 51 263 l 1
 437 263 l 1
EndSplineSet
EndChar
StartChar: uni00B2
Encoding: 113 178 221
Width: 350
VWidth: 1333
Flags: HW
HStem: 396 73<100 333> 808 72<133.3 234.7>
VStem: 36 72<703 786.6> 260 75<594.2 786.6>
Fore
333 396 m 1
 16 396 l 1
 16 432 l 2
 16 593 260 623 260 719 c 0
 260 771 223 808 184 808 c 0
 145 808 108 771 108 719 c 2
 108 703 l 1
 36 703 l 1
 36 719 l 2
 36 805 101 880 185 880 c 0
 270 880 335 806 335 720 c 0
 335 586 145 552 100 469 c 1
 333 469 l 1
 333 396 l 1
EndSplineSet
EndChar
StartChar: uni00B3
Encoding: 114 179 222
Width: 350
VWidth: 1333
Flags: HW
HStem: 391 70<112.6 236.1> 632 72<159 215.3> 807 72<133.4 215.3>
VStem: 17 72<484.6 563> 47 72<736 782> 231 69<714.3 791> 260 69<484.6 608.1>
Fore
119 736 m 1xec
 47 736 l 1
 47 752 l 2
 47 822 103 879 173 879 c 0
 243 879 300 822 300 752 c 0xec
 300 721 288 692 268 670 c 1
 305 642 329 597 329 547 c 0
 329 461 259 391 173 391 c 0
 87 391 17 461 17 547 c 2
 17 563 l 1
 89 563 l 1
 89 547 l 2
 89 499 127 461 175 461 c 0
 222 461 260 499 260 547 c 0xf2
 260 594 222 632 175 632 c 2
 159 632 l 1
 159 704 l 1
 175 704 l 2
 206 704 231 723 231 752 c 0
 231 782 206 807 175 807 c 0
 143 807 119 782 119 752 c 2
 119 736 l 1xec
EndSplineSet
EndChar
StartChar: uni00B5
Encoding: 116 181 223
Width: 475
VWidth: 1333
Flags: HW
HStem: -6 69<187 309.8> 433 20G<64 134 343 413>
VStem: 64 70<-145.35 31 113 453> 343 70<92.6 453>
Fore
64 453 m 1
 134 453 l 1
 134 181 l 2
 134 113 181 63 237 63 c 0
 293 63 343 113 343 181 c 2
 343 453 l 1
 413 453 l 1
 413 181 l 2
 413 80 338 -6 239 -6 c 0
 199 -6 163 8 134 31 c 1
 134 -117 l 2
 134 -140 140 -162 149 -180 c 2
 156 -193 l 1
 95 -225 l 1
 88 -212 l 2
 72 -184 64 -152 64 -118 c 2
 64 453 l 1
EndSplineSet
EndChar
StartChar: uni00B9
Encoding: 120 185 224
Width: 350
VWidth: 1333
Flags: HW
HStem: 397 495<241 241>
VStem: 171 70<397 755>
Fore
171 755 m 1
 129 727 l 1
 88 787 l 1
 241 892 l 1
 241 397 l 1
 171 397 l 1
 171 755 l 1
EndSplineSet
EndChar
StartChar: uni0E01
Encoding: 209 3585 225
Width: 529
VWidth: 1273
Flags: HW
HStem: 0 21G<64 135 396 466> 472 68<187.1 348.3>
VStem: 64 71<0 288.3> 396 70<0 448.8>
Fore
121 385 m 1
 197 342 l 1
 174 332 135 306 135 248 c 2
 135 0 l 1
 64 0 l 1
 64 248 l 2
 64 279 81 310 103 332 c 1
 45 362 l 1
 81 512 196 540 256 540 c 0
 372 540 466 449 466 337 c 2
 466 0 l 1
 396 0 l 1
 396 337 l 2
 396 423 327 472 256 472 c 0
 203 472 145 446 121 385 c 1
EndSplineSet
EndChar
StartChar: uni0E02
Encoding: 210 3586 226
Width: 549
VWidth: 1273
Flags: HW
HStem: -7 68<173.6 376.4> 283 68<135 216.139> 465 68<167 220>
VStem: 65 70<121 283> 220 71<354.867 465> 415 70<98.5 533>
Fore
143 465 m 1
 167 533 l 1
 291 533 l 1
 291 367 l 2
 291 321 251 283 203 283 c 2
 135 283 l 1
 135 196 l 2
 135 121 197 61 275 61 c 0
 353 61 415 121 415 196 c 2
 415 533 l 1
 485 533 l 1
 485 196 l 2
 485 84 391 -7 275 -7 c 0
 159 -7 65 84 65 196 c 2
 65 351 l 1
 203 351 l 2
 213 351 220 358 220 367 c 2
 220 465 l 1
 143 465 l 1
EndSplineSet
EndChar
StartChar: uni0E03
Encoding: 211 3587 227
Width: 549
VWidth: 1273
Flags: HW
HStem: -6 68<173.9 375.4> 283 68<135 203>
VStem: 64 71<122 283> 219 71<355.427 417> 414 71<99.8 534>
Fore
185 483 m 1
 229 534 l 1
 290 534 l 1
 290 368 l 2
 290 321 251 283 203 283 c 2
 135 283 l 1
 135 196 l 2
 135 122 197 62 274 62 c 0
 352 62 414 122 414 196 c 2
 414 534 l 1
 485 534 l 1
 485 196 l 2
 485 84 390 -6 274 -6 c 0
 158 -6 64 84 64 196 c 2
 64 351 l 1
 203 351 l 2
 212 351 219 359 219 368 c 2
 219 417 l 1
 171 362 l 1
 153 424 124 458 71 486 c 1
 105 546 l 1
 141 527 160 513 185 483 c 1
EndSplineSet
EndChar
StartChar: uni0E04
Encoding: 212 3588 228
Width: 547
VWidth: 1273
Flags: HW
HStem: 0 21G<64 135 414 485> 233 68<135 273> 472 68<173.9 375.4>
VStem: 64 71<0 233 301 434.5> 414 71<0 434.5>
Fore
296 301 m 1
 273 233 l 1
 135 233 l 1
 135 0 l 1
 64 0 l 1
 64 337 l 2
 64 449 159 540 274 540 c 0
 390 540 485 449 485 337 c 2
 485 0 l 1
 414 0 l 1
 414 337 l 2
 414 412 352 472 274 472 c 0
 197 472 135 412 135 337 c 2
 135 301 l 1
 296 301 l 1
EndSplineSet
EndChar
StartChar: uni0E05
Encoding: 213 3589 229
Width: 549
VWidth: 1273
Flags: HW
HStem: 0 21G<65 135 415 485> 233 68<135 272>
VStem: 65 70<0 233 301 401.7> 415 70<0 401.7>
Fore
295 301 m 1
 272 233 l 1
 135 233 l 1
 135 0 l 1
 65 0 l 1
 65 351 l 2
 65 425 98 487 157 524 c 2
 185 542 l 1
 204 514 l 2
 257 440 289 431 346 513 c 2
 364 540 l 1
 393 524 l 2
 456 488 484 419 485 351 c 2
 485 0 l 1
 415 0 l 1
 415 351 l 2
 415 390 402 423 380 446 c 1
 353 415 318 386 275 386 c 0
 232 386 197 415 170 446 c 1
 148 423 135 390 135 351 c 2
 135 301 l 1
 295 301 l 1
EndSplineSet
EndChar
StartChar: uni0E06
Encoding: 214 3590 230
Width: 547
VWidth: 1273
Flags: HW
HStem: -6 68<226.9 418> 283 68<135 203>
VStem: 64 71<0 106 170 283> 219 71<355.427 417> 414 71<112.8 534>
Fore
71 486 m 1
 105 546 l 1
 141 527 160 513 185 483 c 1
 229 534 l 1
 290 534 l 1
 290 368 l 2
 290 321 251 283 203 283 c 2
 135 283 l 1
 135 249 l 2
 135 170 242 62 314 62 c 0
 394 62 414 132 414 196 c 2
 414 534 l 1
 485 534 l 1
 485 196 l 2
 485 88 434 -6 314 -6 c 0
 247 -6 181 46 135 106 c 1
 135 0 l 1
 64 0 l 1
 64 351 l 1
 203 351 l 2
 212 351 219 359 219 368 c 2
 219 417 l 1
 171 362 l 1
 149 432 124 458 71 486 c 1
EndSplineSet
EndChar
StartChar: uni0E07
Encoding: 215 3591 231
Width: 547
VWidth: 1273
Flags: HW
HStem: -7 68<173.9 375.4> 465 68<259 375.4>
VStem: 64 71<121 378> 414 71<98.5 405>
Fore
64 378 m 1
 135 401 l 1
 135 196 l 2
 135 121 197 61 274 61 c 0
 352 61 414 121 414 196 c 2
 414 331 l 2
 414 405 352 465 274 465 c 2
 259 465 l 1
 259 533 l 1
 274 533 l 2
 390 533 485 442 485 331 c 2
 485 196 l 2
 485 84 390 -7 274 -7 c 0
 159 -7 64 84 64 196 c 2
 64 378 l 1
EndSplineSet
EndChar
StartChar: uni0E08
Encoding: 216 3592 232
Width: 526
VWidth: 1273
Flags: HW
HStem: 0 21G<393 463> 233 68<255 393> 472 68<151.6 354.4>
VStem: 43 70<322 434.5> 393 70<0 233 301 412>
Fore
231 233 m 1
 255 301 l 1
 393 301 l 1
 393 337 l 2
 393 412 331 472 253 472 c 0
 175 472 113 412 113 337 c 2
 113 322 l 1
 43 322 l 1
 43 337 l 2
 43 449 137 540 253 540 c 0
 369 540 463 449 463 337 c 2
 463 0 l 1
 393 0 l 1
 393 233 l 1
 231 233 l 1
EndSplineSet
EndChar
StartChar: uni0E09
Encoding: 217 3593 233
Width: 525
VWidth: 1273
Flags: HW
HStem: -4 68<158.4 307.6> 472 68<150.6 353.4>
VStem: 42 70<337 434.5> 69 71<69 224> 392 70<0 98 152.8 412>
Fore
16 224 m 1xd8
 40 292 l 1
 140 292 l 1
 140 199 l 2xd8
 141 91 174 64 226 64 c 0
 303 64 392 175 392 249 c 2
 392 337 l 2
 392 412 330 472 252 472 c 0
 174 472 112 412 112 337 c 9
 42 337 l 17xe8
 42 449 136 540 252 540 c 0
 368 540 462 449 462 337 c 2
 462 0 l 1
 392 0 l 1
 392 98 l 1
 349 41 289 -4 227 -4 c 0
 101 -4 70 99 69 199 c 2
 69 224 l 1
 16 224 l 1xd8
EndSplineSet
EndChar
StartChar: uni0E0A
Encoding: 218 3594 234
Width: 547
VWidth: 1273
Flags: HW
HStem: -7 68<173.9 375.4> 283 68<135 212.333> 367 68<290 395> 465 68<166 219>
VStem: 64 71<98.5 283> 219 71<357.667 367 435 465> 414 71<121 331.8 452.6 533>
Fore
143 465 m 1
 166 533 l 1
 290 533 l 1
 290 435 l 1
 358 435 l 2
 395 435 414 464 414 502 c 2
 414 533 l 1
 485 533 l 1
 485 502 l 2
 485 461 467 425 438 400 c 1
 467 375 485 338 485 298 c 2
 485 196 l 2
 485 84 390 -7 274 -7 c 0
 159 -7 64 84 64 196 c 2
 64 351 l 1
 203 351 l 2
 212 351 219 358 219 367 c 2
 219 465 l 1
 143 465 l 1
358 367 m 2
 290 367 l 1
 290 321 251 283 203 283 c 2
 135 283 l 1
 135 196 l 2
 135 121 197 61 274 61 c 0
 352 61 414 121 414 196 c 2
 414 298 l 2
 414 324 403 367 358 367 c 2
EndSplineSet
EndChar
StartChar: uni0E0B
Encoding: 219 3595 235
Width: 547
VWidth: 1273
Flags: HW
HStem: -7 68<173.9 375.4> 283 68<135 212.333> 367 68<290 406.1>
VStem: 64 71<121 283> 414 71<98.5 324 452.6 533>
Fore
358 367 m 2
 290 367 l 1
 290 321 251 283 203 283 c 2
 135 283 l 1
 135 196 l 2
 135 121 197 61 274 61 c 0
 352 61 414 121 414 196 c 2
 414 298 l 2
 414 324 403 367 358 367 c 2
71 486 m 1
 105 546 l 1
 141 527 160 513 185 483 c 1
 229 534 l 1
 290 533 l 1
 290 435 l 1
 358 435 l 2
 395 435 414 464 414 502 c 2
 414 533 l 1
 485 533 l 1
 485 502 l 2
 485 461 467 425 438 400 c 1
 467 375 485 338 485 298 c 2
 485 196 l 2
 485 84 390 -7 274 -7 c 0
 159 -7 64 84 64 196 c 2
 64 351 l 1
 203 351 l 2
 212 351 219 358 219 367 c 2
 219 417 l 1
 171 362 l 1
 152 427 124 458 71 486 c 1
EndSplineSet
EndChar
StartChar: uni0E0C
Encoding: 220 3596 236
Width: 838
VWidth: 1273
Flags: HW
HStem: -8 68<543.6 686.6> 0 68<135 170> 472 68<187.1 348.3>
VStem: 64 71<68 288.3> 396 71<0 86 138.8 448.8> 706 71<57.2 533>
Fore
467 248 m 2x7c
 467 164 550 60 619 60 c 0
 671 60 706 89 706 195 c 2
 706 533 l 1
 777 533 l 1
 777 195 l 2
 777 50 712 -8 619 -8 c 0xbc
 561 -8 508 31 467 86 c 1
 467 0 l 1
 396 0 l 1
 396 337 l 2
 396 423 327 472 256 472 c 0
 203 472 145 446 121 385 c 1
 197 342 l 1
 174 332 135 306 135 248 c 2
 135 68 l 1
 193 68 l 1
 170 0 l 1
 64 0 l 1
 64 248 l 2
 64 279 81 310 104 332 c 1
 45 362 l 1
 82 512 196 540 256 540 c 0
 372 540 467 449 467 337 c 2
 467 248 l 2x7c
EndSplineSet
EndChar
StartChar: uni0E0D
Encoding: 221 3597 237
Width: 842
VWidth: 1269
Flags: HW
HStem: -145 67<511.3 664.7> -7 68<503.5 647.8> 0 68<135 170> 472 68<187.1 348.3>
VStem: 64 71<68 288.3> 396 71<119 448.8> 708 71<-45.4 43 95.9 533>
Fore
396 337 m 2xde
 396 423 327 472 256 472 c 0
 203 472 145 446 121 385 c 1
 197 342 l 1
 174 332 135 306 135 248 c 2
 135 68 l 1
 193 68 l 1
 170 0 l 1
 64 0 l 1xbe
 64 248 l 2
 64 279 81 310 104 332 c 1
 45 362 l 1
 82 512 196 540 256 540 c 0
 372 540 466 449 467 337 c 2
 467 196 l 2
 467 119 523 61 588 61 c 0
 652 61 708 119 708 196 c 2
 708 533 l 1
 779 533 l 1
 779 58 l 2
 779 -51 697 -145 588 -145 c 0
 492 -145 445 -79 429 -57 c 1
 490 -23 l 1
 500 -36 529 -78 588 -78 c 0
 647 -78 707 -25 707 43 c 1
 677 11 634 -7 588 -7 c 0
 479 -7 396 86 396 195 c 2
 396 337 l 2xde
EndSplineSet
Substitution2: "Single Substitution lookup 8" uni0E0D.descless
EndChar
StartChar: uni0E0E
Encoding: 222 3598 238
Width: 530
VWidth: 1267
Flags: HW
HStem: -177 68<14 166> 0 21G<12 135> 472 68<187.1 348.3>
VStem: 64 71<68 280> 396 71<-102 448.8>
AnchorPoint: "BelowBase" 467 -190 basechar 0
Fore
12 0 m 1
 36 68 l 1
 64 68 l 1
 64 248 l 2
 64 280 81 310 104 332 c 1
 45 362 l 1
 82 512 196 540 256 540 c 0
 372 540 467 449 467 337 c 2
 467 -177 l 1
 389 -177 l 1
 285 -111 l 1
 189 -177 l 1
 -10 -177 l 1
 14 -109 l 1
 166 -109 l 1
 282 -29 l 1
 396 -102 l 1
 396 337 l 2
 396 423 327 472 256 472 c 0
 203 472 145 446 121 385 c 1
 197 342 l 1
 174 332 135 306 135 248 c 2
 135 0 l 1
 12 0 l 1
EndSplineSet
EndChar
StartChar: uni0E0F
Encoding: 223 3599 239
Width: 530
VWidth: 1267
Flags: HW
HStem: -178 68<14 74> 0 21G<12 135> 472 68<187.1 348.3>
VStem: 64 71<68 279> 396 71<-93 448.8>
AnchorPoint: "BelowBase" 467 -190 basechar 0
Fore
12 0 m 1
 36 68 l 1
 64 68 l 1
 64 248 l 2
 64 279 81 310 104 332 c 1
 45 362 l 1
 82 511 196 540 256 540 c 0
 372 540 467 449 467 337 c 2
 467 -178 l 1
 384 -178 l 1
 323 -117 l 1
 245 -190 l 1
 162 -117 l 1
 107 -178 l 1
 -10 -178 l 1
 14 -110 l 1
 74 -110 l 1
 154 -22 l 1
 242 -98 l 1
 323 -22 l 1
 396 -93 l 1
 396 337 l 2
 396 423 327 472 256 472 c 0
 203 472 145 445 121 384 c 1
 197 342 l 1
 174 332 135 306 135 248 c 2
 135 0 l 1
 12 0 l 1
EndSplineSet
EndChar
StartChar: uni0E10
Encoding: 224 3600 240
Width: 534
VWidth: 1267
Flags: HW
HStem: -203 68<18 79> 0 21G<401 471> 233 68<263 401> 472 68<159.6 316.9>
VStem: 51 70<322 434.5> 402 69<-119 -65 0 233 301 395.5>
Fore
328 -47 m 1
 402 -119 l 1
 402 -65 l 1
 375 -25 l 1
 471 -25 l 1
 471 -203 l 1
 389 -203 l 1
 327 -143 l 1
 249 -215 l 1
 167 -143 l 1
 111 -203 l 1
 -5 -203 l 1
 18 -135 l 1
 79 -135 l 1
 159 -47 l 1
 246 -123 l 1
 328 -47 l 1
239 233 m 1
 263 301 l 1
 401 301 l 1
 401 337 l 2
 401 412 339 472 261 472 c 0
 183 472 121 412 121 337 c 2
 121 322 l 1
 51 322 l 1
 51 337 l 2
 51 449 145 540 261 540 c 0
 304 540 343 527 376 506 c 1
 430 540 l 1
 470 484 l 1
 429 458 l 1
 456 425 471 382 471 337 c 2
 471 0 l 1
 401 0 l 1
 401 233 l 1
 239 233 l 1
EndSplineSet
Substitution2: "Single Substitution lookup 8" uni0E10.descless
EndChar
StartChar: uni0E11
Encoding: 225 3601 241
Width: 547
VWidth: 1273
Flags: HW
HStem: 0 21G<64 134 414 484> 472 68<333.5 437.5>
VStem: 64 70<0 233> 414 70<0 481.251>
Fore
9 486 m 1
 43 546 l 1
 79 527 98 513 123 483 c 1
 167 534 l 1
 228 534 l 1
 228 452 l 1
 274 496 330 540 379 540 c 0
 494 540 484 444 484 345 c 2
 484 0 l 1
 414 0 l 1
 414 345 l 2
 414 431 424 472 379 472 c 0
 344 472 229 368 134 233 c 1
 134 0 l 1
 64 0 l 1
 64 249 l 2
 64 260 121 333 158 376 c 1
 158 418 l 1
 109 362 l 1
 91 423 62 458 9 486 c 1
EndSplineSet
EndChar
StartChar: uni0E12
Encoding: 226 3602 242
Width: 871
VWidth: 1273
Flags: HW
HStem: -6 68<143 310.7 575.9 718.9> 268 68<186 234> 386 68<268.9 313.1>
VStem: 51 70<115.5 326.1> 307 70<115 238.5> 428 71<0 87 166 401.5> 738 71<59.5 534>
Fore
162 268 m 1
 186 336 l 1
 234 336 l 2
 330 336 377 251 377 167 c 0
 377 102 345 -6 221 -6 c 0
 105 -6 51 125 51 252 c 0
 51 356 95 469 184 533 c 2
 197 543 l 1
 206 529 l 2
 245 472 274 454 291 454 c 0
 308 454 334 472 373 528 c 2
 382 541 l 1
 395 532 l 2
 458 491 499 426 499 356 c 2
 499 249 l 2
 499 166 582 62 650 62 c 0
 703 62 738 91 738 196 c 2
 738 534 l 1
 809 534 l 1
 809 196 l 2
 809 51 744 -6 650 -6 c 0
 593 -6 540 32 499 87 c 1
 499 0 l 1
 428 0 l 1
 428 356 l 2
 428 391 417 421 395 444 c 1
 365 411 328 386 291 386 c 0
 250 386 214 412 186 444 c 1
 136 389 121 309 121 252 c 0
 121 147 161 62 221 62 c 0
 290 62 307 127 307 167 c 0
 307 222 280 268 234 268 c 2
 162 268 l 1
EndSplineSet
EndChar
StartChar: uni0E13
Encoding: 227 3603 243
Width: 839
VWidth: 1273
Flags: HW
HStem: -8 68<485.4 628.1> 0 68<134 169> 472 68<185.8 348.3>
VStem: 64 70<68 288.3> 396 70<89 448.8> 705 71<0 86 137.5 533>
Fore
193 68 m 1x7c
 169 0 l 1
 64 0 l 1x7c
 64 248 l 2
 64 279 81 310 103 332 c 1
 45 362 l 1
 81 511 196 540 256 540 c 0
 372 540 466 449 466 337 c 2
 466 195 l 2
 466 89 501 60 553 60 c 0xbc
 620 60 705 163 705 248 c 2
 705 533 l 1
 776 533 l 1
 776 0 l 1
 705 0 l 1x7c
 705 86 l 1
 665 31 611 -8 554 -8 c 0xbc
 461 -8 396 50 396 195 c 2
 396 337 l 2
 396 423 327 472 256 472 c 0
 202 472 145 445 121 384 c 1
 196 342 l 1
 174 332 134 306 134 248 c 2
 134 68 l 1
 193 68 l 1x7c
EndSplineSet
EndChar
StartChar: uni0E14
Encoding: 228 3604 244
Width: 562
VWidth: 1273
Flags: HW
HStem: -6 67<143 295.1> 268 68<186 234> 472 68<140.4 387.4>
VStem: 51 70<112.9 391.1> 307 70<90.3 237.2> 428 71<0 434.5>
Fore
162 268 m 1
 186 336 l 1
 234 336 l 2
 330 336 377 250 377 167 c 0
 377 75 325 -6 221 -6 c 0
 118 -6 51 101 51 252 c 0
 51 385 122 540 286 540 c 0
 402 540 499 449 499 337 c 2
 499 0 l 1
 428 0 l 1
 428 337 l 2
 428 412 364 472 286 472 c 0
 174 472 121 359 121 252 c 0
 121 145 161 61 221 61 c 0
 278 61 307 108 307 167 c 0
 307 221 280 268 234 268 c 2
 162 268 l 1
EndSplineSet
EndChar
StartChar: uni0E15
Encoding: 229 3605 245
Width: 562
VWidth: 1273
Flags: HW
HStem: -6 68<143 310.7> 267 69<186 234> 384 67<268.9 313.1>
VStem: 51 70<115.5 326.1> 307 70<115 238.5> 428 71<0 398.5>
Fore
162 267 m 1
 186 336 l 1
 234 336 l 2
 330 336 377 251 377 167 c 0
 377 102 345 -6 221 -6 c 0
 105 -6 51 125 51 252 c 0
 51 356 95 466 184 530 c 2
 197 540 l 1
 206 526 l 2
 245 469 274 451 291 451 c 0
 308 451 334 470 373 525 c 2
 382 538 l 1
 395 529 l 2
 458 488 499 423 499 353 c 2
 499 0 l 1
 428 0 l 1
 428 353 l 2
 428 388 417 418 395 442 c 1
 365 408 328 384 291 384 c 0
 250 384 214 409 186 441 c 1
 136 386 121 309 121 252 c 0
 121 147 161 62 221 62 c 0
 290 62 307 127 307 167 c 0
 307 222 280 267 234 267 c 2
 162 267 l 1
EndSplineSet
EndChar
StartChar: uni0E16
Encoding: 230 3606 246
Width: 530
VWidth: 1273
Flags: HW
HStem: 0 68<135 170> 472 68<187.1 348.3>
VStem: 64 71<68 288.3> 396 71<0 448.8>
Fore
193 68 m 1
 170 0 l 1
 64 0 l 1
 64 248 l 2
 64 279 81 310 104 332 c 1
 45 362 l 1
 82 512 196 540 256 540 c 0
 372 540 467 449 467 337 c 2
 467 0 l 1
 396 0 l 1
 396 337 l 2
 396 423 327 472 256 472 c 0
 203 472 145 446 121 385 c 1
 197 342 l 1
 174 332 135 306 135 248 c 2
 135 68 l 1
 193 68 l 1
EndSplineSet
EndChar
StartChar: uni0E17
Encoding: 231 3607 247
Width: 549
VWidth: 1273
Flags: HW
HStem: 0 21G<65 135 415 485> 472 68<226.9 419.3>
VStem: 65 70<0 364 428 534> 415 70<0 420.2>
Fore
65 0 m 1
 65 534 l 1
 135 534 l 1
 135 428 l 1
 181 488 247 540 314 540 c 0
 435 540 485 446 485 337 c 2
 485 0 l 1
 415 0 l 1
 415 337 l 2
 415 401 395 472 314 472 c 0
 243 472 135 364 135 284 c 2
 135 0 l 1
 65 0 l 1
EndSplineSet
EndChar
StartChar: uni0E18
Encoding: 232 3608 248
Width: 549
VWidth: 1273
Flags: HW
HStem: 0 68<135 275> 233 68<135 415> 472 68<173.6 376.4>
VStem: 65 70<68 203 301 434.5> 415 70<105.5 233 337 434.5>
Fore
65 0 m 1
 65 203 l 1
 135 203 l 1
 135 68 l 1
 275 68 l 2
 353 68 415 128 415 203 c 2
 415 233 l 1
 65 233 l 1
 65 337 l 2
 65 449 159 540 275 540 c 0
 391 540 485 449 485 337 c 9
 415 337 l 17
 415 412 353 472 275 472 c 0
 197 472 135 412 135 337 c 2
 135 301 l 1
 485 301 l 1
 485 203 l 2
 485 91 391 0 275 0 c 2
 65 0 l 1
EndSplineSet
EndChar
StartChar: uni0E19
Encoding: 233 3609 249
Width: 549
VWidth: 1273
Flags: HW
HStem: -4 68<130.7 320.5>
VStem: 65 70<135 533> 415 70<0 106 152.8 533>
Fore
65 533 m 1
 135 533 l 1
 135 199 l 2
 135 135 155 64 236 64 c 0
 313 64 415 175 415 249 c 2
 415 533 l 1
 485 533 l 1
 485 0 l 1
 415 0 l 1
 415 106 l 1
 368 47 301 -4 236 -4 c 0
 115 -4 65 90 65 199 c 2
 65 533 l 1
EndSplineSet
EndChar
StartChar: uni0E1A
Encoding: 234 3610 250
Width: 549
VWidth: 1273
Flags: HW
HStem: -7 68<173.6 376.4>
VStem: 65 71<121 533> 413 72<98.5 533>
Fore
65 533 m 1
 136 533 l 1
 136 196 l 2
 136 121 197 61 275 61 c 0
 353 61 413 121 413 196 c 2
 413 533 l 1
 485 533 l 1
 485 196 l 2
 485 84 391 -7 275 -7 c 0
 159 -7 65 84 65 196 c 2
 65 533 l 1
EndSplineSet
EndChar
StartChar: uni0E1B
Encoding: 235 3611 251
Width: 549
VWidth: 1275
Flags: HW
HStem: -7 68<173.6 376.4>
VStem: 65 71<121 533> 413 72<98.5 659>
AnchorPoint: "AboveBase" 377 568 basechar 0
Fore
65 533 m 1
 136 533 l 1
 136 196 l 2
 136 121 197 61 275 61 c 0
 353 61 413 121 413 196 c 2
 413 659 l 1
 485 659 l 1
 485 196 l 2
 485 84 391 -7 275 -7 c 0
 159 -7 65 84 65 196 c 2
 65 533 l 1
EndSplineSet
EndChar
StartChar: uni0E1C
Encoding: 236 3612 252
Width: 593
VWidth: 1273
Flags: HW
HStem: -7 68<152.8 246.4 346.6 462.3> 467 68<152.8 213>
VStem: 51 70<93.7 434.3> 262 70<123 533> 460 70<95.6 533>
Fore
262 533 m 1
 332 533 l 1
 332 158 l 2
 332 110 344 61 396 61 c 0
 447 61 460 110 460 158 c 2
 460 533 l 1
 530 533 l 1
 530 158 l 2
 530 46 470 -7 396 -7 c 0
 358 -7 322 16 296 51 c 1
 271 16 235 -7 197 -7 c 0
 109 -7 51 100 51 264 c 0
 51 426 109 535 197 535 c 2
 213 535 l 1
 213 467 l 1
 197 467 l 2
 163 467 121 395 121 264 c 0
 121 133 163 61 197 61 c 0
 252 61 262 123 262 158 c 2
 262 533 l 1
EndSplineSet
EndChar
StartChar: uni0E1D
Encoding: 237 3613 253
Width: 593
VWidth: 1275
Flags: HW
HStem: -7 68<152.8 246.4 346.6 462.3> 466 68<152.8 213>
VStem: 51 70<92.4 434.3> 262 70<122 533> 460 70<95.6 659>
AnchorPoint: "AboveBase" 421 568 basechar 0
Fore
262 533 m 1
 332 533 l 1
 332 158 l 2
 332 110 344 61 396 61 c 0
 447 61 460 110 460 158 c 2
 460 659 l 1
 530 659 l 1
 530 158 l 2
 530 45 470 -7 396 -7 c 0
 358 -7 322 15 296 50 c 1
 271 15 235 -7 197 -7 c 0
 109 -7 51 100 51 264 c 0
 51 426 109 534 197 534 c 2
 213 534 l 1
 213 466 l 1
 197 466 l 2
 163 466 121 395 121 264 c 0
 121 132 163 61 197 61 c 0
 252 61 262 122 262 158 c 2
 262 533 l 1
EndSplineSet
EndChar
StartChar: uni0E1E
Encoding: 238 3614 254
Width: 610
VWidth: 1273
Flags: HW
HStem: -7 68<132.1 253.7 358.3 479.2>
VStem: 64 71<109 533> 270 71<108.6 533> 477 70<96.9 533>
Fore
64 533 m 1
 135 533 l 1
 135 158 l 2
 135 109 148 61 201 61 c 0
 259 61 270 120 270 158 c 2
 270 533 l 1
 341 533 l 1
 341 158 l 2
 341 111 355 61 409 61 c 0
 463 61 477 111 477 158 c 2
 477 533 l 1
 547 533 l 1
 547 158 l 2
 547 45 485 -7 409 -7 c 0
 370 -7 332 16 306 52 c 1
 279 16 242 -7 203 -7 c 0
 126 -7 64 45 64 158 c 2
 64 533 l 1
EndSplineSet
EndChar
StartChar: uni0E1F
Encoding: 239 3615 255
Width: 610
VWidth: 1275
Flags: HW
HStem: -7 68<132.1 253.7 358.3 479.2>
VStem: 64 71<109 533> 270 71<108.6 533> 477 70<96.9 659>
AnchorPoint: "AboveBase" 438 568 basechar 0
Fore
64 533 m 1
 135 533 l 1
 135 158 l 2
 135 109 148 61 201 61 c 0
 259 61 270 120 270 158 c 2
 270 533 l 1
 341 533 l 1
 341 158 l 2
 341 111 355 61 409 61 c 0
 463 61 477 111 477 158 c 2
 477 659 l 1
 547 659 l 1
 547 158 l 2
 547 45 485 -7 409 -7 c 0
 370 -7 332 16 306 52 c 1
 279 16 242 -7 203 -7 c 0
 126 -7 64 45 64 158 c 2
 64 533 l 1
EndSplineSet
EndChar
StartChar: uni0E20
Encoding: 240 3616 256
Width: 529
VWidth: 1273
Flags: HW
HStem: 0 21G<8 134 395 466> 472 68<185.8 347>
VStem: 64 70<68 279> 395 71<0 448.8>
Fore
8 0 m 1
 31 68 l 1
 64 68 l 1
 64 248 l 2
 64 279 81 310 103 332 c 1
 44 362 l 1
 81 512 196 540 256 540 c 0
 371 540 466 449 466 337 c 2
 466 0 l 1
 395 0 l 1
 395 337 l 2
 395 423 326 472 256 472 c 0
 202 472 145 446 120 385 c 1
 196 342 l 1
 173 332 134 306 134 248 c 2
 134 0 l 1
 8 0 l 1
EndSplineSet
EndChar
StartChar: uni0E21
Encoding: 241 3617 257
Width: 547
VWidth: 1273
Flags: HW
HStem: -7 68<226.9 418>
VStem: 64 71<0 105 170 533> 414 71<112.8 533>
Fore
64 533 m 1
 135 533 l 1
 135 249 l 2
 135 170 242 61 314 61 c 0
 394 61 414 132 414 196 c 2
 414 533 l 1
 485 533 l 1
 485 196 l 2
 485 88 434 -7 314 -7 c 0
 247 -7 181 46 135 105 c 1
 135 0 l 1
 64 0 l 1
 64 533 l 1
EndSplineSet
EndChar
StartChar: uni0E22
Encoding: 242 3618 258
Width: 547
VWidth: 1273
Flags: HW
HStem: -7 68<172 376.1> 465 68<186.6 290>
VStem: 58 72<88.1 246.7> 416 69<88.1 533>
Fore
310 361 m 1
 285 298 l 1
 275 298 l 2
 195 298 130 252 130 183 c 0
 130 110 196 61 276 61 c 0
 353 61 416 110 416 183 c 2
 416 533 l 1
 485 533 l 1
 485 183 l 2
 485 70 389 -7 275 -7 c 0
 161 -7 58 66 58 183 c 0
 58 232 79 273 124 298 c 1
 64 298 l 1
 64 332 l 2
 64 444 159 533 275 533 c 2
 290 533 l 1
 290 465 l 1
 275 465 l 2
 207 465 151 422 138 361 c 1
 310 361 l 1
EndSplineSet
EndChar
StartChar: uni0E23
Encoding: 243 3619 259
Width: 547
VWidth: 1273
Flags: HW
HStem: 0 21G<259 274> 233 68<135 414> 472 68<173.9 375.4>
VStem: 64 71<301 434.5> 414 71<105.5 233 337 434.5>
Fore
259 68 m 1
 274 68 l 2
 352 68 414 128 414 203 c 2
 414 233 l 1
 64 233 l 1
 64 337 l 2
 64 449 159 540 274 540 c 0
 390 540 485 449 485 337 c 9
 414 337 l 17
 414 412 352 472 274 472 c 0
 197 472 135 412 135 337 c 2
 135 301 l 1
 485 301 l 1
 485 203 l 2
 485 91 390 0 274 0 c 2
 259 0 l 1
 259 68 l 1
EndSplineSet
EndChar
StartChar: uni0E24
Encoding: 244 3620 260
Width: 529
VWidth: 1267
Flags: HW
HStem: 0 68<134 169> 472 68<185.8 348.3>
VStem: 64 70<68 288.3> 396 70<-192 448.8>
Fore
193 68 m 5
 169 0 l 5
 64 0 l 5
 64 248 l 6
 64 279 81 310 103 332 c 5
 45 362 l 5
 81 511 196 540 256 540 c 4
 372 540 466 449 466 337 c 6
 466 -192 l 5
 396 -192 l 5
 396 337 l 6
 396 423 327 472 256 472 c 4
 202 472 145 445 121 384 c 5
 197 342 l 5
 174 332 134 306 134 248 c 6
 134 68 l 5
 193 68 l 5
EndSplineSet
EndChar
StartChar: uni0E25
Encoding: 245 3621 261
Width: 547
VWidth: 1273
Flags: HW
HStem: 0 21G<274 290 414 485> 233 68<135 414> 472 68<173.9 375.4>
VStem: 64 71<105.5 233 337 434.5> 414 71<0 233 301 412>
Fore
290 68 m 1
 290 0 l 1
 274 0 l 2
 159 0 64 91 64 203 c 2
 64 301 l 1
 414 301 l 1
 414 337 l 2
 414 412 352 472 274 472 c 0
 197 472 135 412 135 337 c 9
 64 337 l 17
 64 449 159 540 274 540 c 0
 390 540 485 449 485 337 c 2
 485 0 l 1
 414 0 l 1
 414 233 l 1
 135 233 l 1
 135 203 l 2
 135 128 197 68 274 68 c 2
 290 68 l 1
EndSplineSet
EndChar
StartChar: uni0E26
Encoding: 246 3622 262
Width: 529
VWidth: 1267
Flags: HW
HStem: 0 21G<8 134> 472 68<185.8 347>
VStem: 64 70<68 279> 395 71<-192 448.8>
Fore
8 0 m 1
 31 68 l 1
 64 68 l 1
 64 248 l 2
 64 279 81 310 103 332 c 1
 44 362 l 1
 81 511 196 540 256 540 c 0
 371 540 466 449 466 337 c 2
 466 -192 l 1
 395 -192 l 1
 395 337 l 2
 395 423 326 472 256 472 c 0
 202 472 145 445 120 384 c 1
 196 342 l 1
 173 332 134 306 134 248 c 2
 134 0 l 1
 8 0 l 1
EndSplineSet
EndChar
StartChar: uni0E27
Encoding: 247 3623 263
Width: 559
VWidth: 1273
Flags: HW
HStem: -6 67<158.3 384.5> 472 68<194.7 385.8>
VStem: 440 71<112 422.7>
Fore
51 164 m 1
 118 191 l 1
 139 131 180 61 274 61 c 0
 359 61 440 148 440 268 c 0
 440 387 360 472 274 472 c 0
 213 472 157 433 121 344 c 1
 55 369 l 1
 103 489 187 540 274 540 c 0
 409 540 511 412 511 267 c 0
 511 121 409 -6 274 -6 c 0
 185 -6 95 40 51 164 c 1
EndSplineSet
EndChar
StartChar: uni0E28
Encoding: 248 3624 264
Width: 547
VWidth: 1273
Flags: HW
HStem: 0 21G<64 135 414 485> 233 68<135 273> 473 68<173.9 332.5>
VStem: 64 71<0 233 301 434.5> 414 71<0 395.5>
Fore
296 301 m 1
 273 233 l 1
 135 233 l 1
 135 0 l 1
 64 0 l 1
 64 339 l 2
 64 450 159 541 274 541 c 0
 319 541 361 528 394 505 c 1
 447 545 l 1
 496 497 l 1
 445 457 l 1
 470 424 485 382 485 337 c 2
 485 0 l 1
 414 0 l 1
 414 337 l 2
 414 412 352 473 274 473 c 0
 197 473 135 412 135 337 c 2
 135 301 l 1
 296 301 l 1
EndSplineSet
EndChar
StartChar: uni0E29
Encoding: 249 3625 265
Width: 546
VWidth: 1273
Flags: HW
HStem: -7 68<171.6 373.1> 282 68<305 412 484 511>
VStem: 63 71<98.5 533> 412 71<121 282 350 533>
Fore
235 367 m 1
 305 389 l 1
 305 350 l 1
 412 350 l 1
 412 533 l 1
 483 533 l 1
 483 350 l 1
 535 350 l 1
 511 282 l 1
 484 282 l 1
 484 196 l 2
 484 84 390 -7 274 -7 c 0
 158 -7 63 84 63 196 c 2
 63 533 l 1
 134 533 l 1
 134 196 l 2
 134 121 195 61 273 61 c 0
 350 61 412 121 412 196 c 2
 412 282 l 1
 235 282 l 1
 235 367 l 1
EndSplineSet
EndChar
StartChar: uni0E2A
Encoding: 250 3626 266
Width: 547
VWidth: 1273
Flags: HW
HStem: 0 68<173.9 290> 233 68<135 414> 472 69<173.9 332.5>
VStem: 64 71<128 233 339 435.2> 414 71<0 233 301 395.5>
Fore
447 545 m 1
 496 497 l 1
 445 457 l 1
 470 423 485 382 485 337 c 2
 485 0 l 1
 414 0 l 1
 414 233 l 1
 135 233 l 1
 135 203 l 2
 135 128 197 68 274 68 c 2
 290 68 l 1
 290 0 l 1
 274 0 l 2
 159 0 64 91 64 203 c 2
 64 301 l 1
 414 301 l 1
 414 337 l 2
 414 412 352 472 274 472 c 0
 197 472 135 413 135 339 c 9
 64 339 l 17
 64 450 159 541 274 541 c 0
 319 541 361 528 394 505 c 1
 447 545 l 1
EndSplineSet
EndChar
StartChar: uni0E2B
Encoding: 251 3627 267
Width: 547
VWidth: 1273
Flags: HW
HStem: 0 21G<64 135 414 485>
VStem: 64 71<0 278.5 342 534> 414 71<0 331.1>
Fore
135 342 m 1
 205 440 332 524 409 541 c 1
 489 485 l 1
 457 487 384 464 366 446 c 1
 442 422 485 342 485 257 c 2
 485 0 l 1
 414 0 l 1
 414 257 l 2
 414 314 394 400 312 400 c 0
 255 400 136 256 135 181 c 2
 135 0 l 1
 64 0 l 1
 64 534 l 1
 135 534 l 1
 135 342 l 1
EndSplineSet
EndChar
StartChar: uni0E2C
Encoding: 252 3628 268
Width: 610
VWidth: 1275
Flags: HW
HStem: -7 68<131.5 256.3 355.7 479.2> 465 68<341 469.1>
VStem: 64 71<111 533> 270 71<108.6 420> 477 70<96.9 436 550.6 621>
AnchorPoint: "AboveBase" 438 568 basechar 0
Fore
64 533 m 1
 135 533 l 1
 135 158 l 2
 135 111 148 61 203 61 c 0
 260 61 270 120 270 158 c 2
 270 420 l 1
 341 420 l 1
 341 158 l 2
 341 111 355 61 409 61 c 0
 463 61 477 111 477 158 c 2
 477 399 l 2
 477 437 458 465 421 465 c 2
 341 465 l 1
 341 533 l 1
 421 533 l 2
 458 533 477 562 477 600 c 2
 477 621 l 1
 547 621 l 1
 547 600 l 2
 547 560 530 523 501 498 c 1
 530 473 547 436 547 396 c 2
 547 158 l 2
 547 45 485 -7 409 -7 c 0
 368 -7 331 9 306 41 c 1
 280 9 244 -7 203 -7 c 0
 126 -7 64 45 64 158 c 2
 64 533 l 1
EndSplineSet
EndChar
StartChar: uni0E2D
Encoding: 253 3629 269
Width: 607
VWidth: 1273
Flags: HW
HStem: -5 68<188.6 429.1> 233 68<123 301> 471 68<211.7 430.1>
VStem: 484 74<116.2 416.5>
CounterMasks: 1 00
Fore
327 301 m 1
 301 233 l 1
 123 233 l 1
 138 134 215 63 303 63 c 0
 400 63 484 151 484 267 c 0
 484 382 401 471 304 471 c 0
 233 471 157 437 126 326 c 1
 58 344 l 1
 101 499 216 539 304 539 c 0
 448 539 558 413 558 267 c 0
 558 120 448 -5 304 -5 c 0
 161 -5 51 120 51 267 c 2
 51 301 l 1
 327 301 l 1
EndSplineSet
EndChar
StartChar: uni0E2E
Encoding: 254 3630 270
Width: 607
VWidth: 1273
Flags: HW
HStem: -5 68<188.6 429.1> 233 66<123 301> 471 68<211.7 363.8>
VStem: 484 74<117.5 361.9>
Back
326.602 299.348 m 1
 300.731 232.705 l 1
 123.075 232.705 l 1
 138.159 134.206 215.421 62.7666 302.846 62.7666 c 0
 399.641 62.7666 484.468 151.521 484.468 266.692 c 0
 484.468 381.998 400.892 470.619 304.152 470.619 c 0
 232.771 470.619 156.952 437.019 125.698 326.143 c 1
 57.543 344.256 l 1
 101.489 498.882 216.465 538.593 304.152 538.593 c 0
 350.476 538.593 393.153 524.92 429.782 503.15 c 1
 475.828 539.682 l 1
 523.824 491.477 l 1
 483.801 458.16 l 1
 529.708 408.941 557.64 340.099 557.64 266.692 c 0
 557.64 119.979 447.581 -5.20996 304.152 -5.20996 c 0
 160.722 -5.20996 50.665 119.979 50.665 266.692 c 2
 50.665 299.348 l 1
 326.602 299.348 l 1
EndSplineSet
Fore
327 299 m 1
 301 233 l 1
 123 233 l 1
 138 134 215 63 303 63 c 0
 400 63 484 152 484 267 c 0
 484 382 401 471 304 471 c 0
 233 471 157 437 126 326 c 1
 58 344 l 1
 101 499 216 539 304 539 c 0
 350 539 393 525 430 503 c 1
 476 540 l 1
 524 491 l 1
 484 458 l 1
 530 409 558 340 558 267 c 0
 558 120 448 -5 304 -5 c 0
 161 -5 51 120 51 267 c 2
 51 299 l 1
 327 299 l 1
EndSplineSet
EndChar
StartChar: uni0E2F
Encoding: 255 3631 271
Width: 511
VWidth: 1273
Flags: HW
HStem: 0 21G<379 449> 322 68<156.087 294.3> 472 68<134.7 204>
VStem: 51 69<394.1 448.7> 379 70<0 408>
Fore
382 534 m 1
 449 534 l 1
 449 0 l 1
 379 0 l 1
 379 408 l 1
 336 367 270 322 189 322 c 0
 117 322 51 363 51 424 c 0
 51 486 115 540 188 540 c 2
 204 540 l 1
 204 472 l 1
 188 472 l 2
 147 472 120 443 120 424 c 0
 120 401 165 390 188 390 c 0
 274 390 366 476 382 534 c 1
EndSplineSet
EndChar
StartChar: uni0E30
Encoding: 256 3632 272
Width: 291
VWidth: 1333
Flags: HW
HStem: 37 72<136 237> 372 72<136 237>
VStem: 64 72<109 144 444 478>
Fore
261 444 m 1
 237 372 l 1
 64 372 l 1
 64 478 l 1
 136 502 l 1
 136 444 l 1
 261 444 l 1
261 109 m 1
 237 37 l 1
 64 37 l 1
 64 144 l 1
 136 168 l 1
 136 109 l 1
 261 109 l 1
EndSplineSet
LCarets2: 1 0 
EndChar
StartChar: uni0E31
Encoding: 257 3633 273
Width: 0
VWidth: 1333
Flags: HW
HStem: 587 72<-191 107>
AnchorPoint: "AboveMark" -100 750 basemark 0
AnchorPoint: "AboveBase" -64 568 mark 0
Fore
155 659 m 1
 107 587 l 1
 -263 587 l 1
 -263 693 l 1
 -191 717 l 1
 -191 659 l 1
 155 659 l 1
EndSplineSet
LCarets2: 1 0 
EndChar
StartChar: uni0E32
Encoding: 258 3634 274
Width: 405
VWidth: 1333
Flags: HW
HStem: 0 21G<271 342> 472 68<108.6 275>
VStem: 271 71<0 420.2>
Fore
51 491 m 1
 80 513 122 540 171 540 c 0
 291 540 342 446 342 337 c 2
 342 0 l 1
 271 0 l 1
 271 337 l 2
 271 401 251 472 171 472 c 0
 123 472 76 429 51 408 c 1
 51 491 l 1
EndSplineSet
LCarets2: 1 0 
EndChar
StartChar: uni0E33
Encoding: 259 3635 275
Width: 405
VWidth: 1333
Flags: HW
HStem: 0 21G<271 342> 472 68<108.6 275> 560 49<-103.1 -64.5223> 657 49<-97.4777 -57.6>
VStem: -157 51<618.123 655.1> -56 51<610.9 648.519> 271 71<0 420.2>
Fore
51 491 m 1
 80 513 122 540 171 540 c 0
 291 540 342 446 342 337 c 2
 342 0 l 1
 271 0 l 1
 271 337 l 2
 271 401 251 472 171 472 c 0
 123 472 76 429 51 408 c 1
 51 491 l 1
-5 633 m 0
 -5 593 -39 560 -81 560 c 0
 -122 560 -157 593 -157 633 c 0
 -157 673 -122 706 -81 706 c 0
 -39 706 -5 673 -5 633 c 0
-106 633 m 0
 -106 622 -98 609 -81 609 c 0
 -69 609 -56 616 -56 633 c 0
 -56 644 -63 657 -81 657 c 0
 -93 657 -106 650 -106 633 c 0
EndSplineSet
MultipleSubs2: "Multiple Substitution lookup 7" uni0E4D uni0E32
Substitution2: "Single Substitution lookup 6" uni0E32
LCarets2: 1 0 
EndChar
StartChar: uni0E34
Encoding: 260 3636 276
Width: 0
VWidth: 1333
Flags: HW
HStem: 587 72<-438 -64>
VStem: -486 422<587 659>
AnchorPoint: "AboveMark" -100 750 basemark 0
AnchorPoint: "AboveBase" -64 568 mark 0
Fore
-486 587 m 1
 -438 659 l 1
 -64 659 l 1
 -64 587 l 1
 -486 587 l 1
EndSplineSet
LCarets2: 1 0 
EndChar
StartChar: uni0E35
Encoding: 261 3637 277
Width: 0
VWidth: 1333
Flags: HW
HStem: 587 124<-136 -64> 587 72<-438 -136>
VStem: -136 72<659 711>
AnchorPoint: "AboveMark" -100 750 basemark 0
AnchorPoint: "AboveBase" -64 568 mark 0
Fore
-136 659 m 1x60
 -136 711 l 1
 -64 711 l 1
 -64 587 l 1xa0
 -486 587 l 1
 -438 659 l 1
 -136 659 l 1x60
EndSplineSet
LCarets2: 1 0 
EndChar
StartChar: uni0E36
Encoding: 262 3638 278
Width: 0
VWidth: 1333
Flags: HW
HStem: 587 72<-437 -177> 587 46<-122.4 -76.9> 696 45<-122.4 -76.9>
VStem: -177 46<659 687.1> -68 45<641.6 687.1>
AnchorPoint: "AboveMark" -100 750 basemark 0
AnchorPoint: "AboveBase" -64 568 mark 0
Fore
-131 665 m 0x78
 -131 647 -117 633 -99 633 c 0
 -82 633 -68 647 -68 665 c 0
 -68 682 -82 696 -99 696 c 0
 -117 696 -131 682 -131 665 c 0x78
-23 664 m 0
 -23 622 -58 587 -100 587 c 2
 -485 587 l 1x78
 -437 659 l 1
 -177 659 l 1xb8
 -177 660 -177 662 -177 664 c 0
 -177 706 -142 741 -100 741 c 0
 -58 741 -23 706 -23 664 c 0
EndSplineSet
LCarets2: 1 0 
EndChar
StartChar: uni0E37
Encoding: 263 3639 279
Width: 0
VWidth: 1333
Flags: HW
HStem: 587 124<-236 -164 -136 -64> 587 72<-438 -236 -164 -136>
VStem: -236 72<659 711> -136 72<659 711>
AnchorPoint: "AboveMark" -150 750 basemark 0
AnchorPoint: "AboveBase" -64 568 mark 0
Fore
-136 659 m 1x70
 -136 711 l 1
 -64 711 l 1
 -64 587 l 1xb0
 -486 587 l 1
 -438 659 l 1
 -236 659 l 1x70
 -236 711 l 1
 -164 711 l 1xb0
 -164 659 l 1
 -136 659 l 1x70
EndSplineSet
LCarets2: 1 0 
EndChar
StartChar: uni0E38
Encoding: 264 3640 280
Width: 0
VWidth: 1333
Flags: HW
VStem: -136 72<-228 -112>
AnchorPoint: "BelowBase" -64 -30 mark 0
Fore
-190 -112 m 1
 -166 -40 l 1
 -64 -40 l 1
 -64 -228 l 1
 -136 -228 l 1
 -136 -112 l 1
 -190 -112 l 1
EndSplineSet
LCarets2: 1 0 
EndChar
StartChar: uni0E39
Encoding: 265 3641 281
Width: 0
VWidth: 1333
Flags: HW
HStem: -235 72<-220.1 -149.9>
VStem: -307 72<-148.1 -112> -136 72<-148.1 -40>
AnchorPoint: "BelowBase" -64 -30 mark 0
Fore
-349 -112 m 1
 -325 -40 l 1
 -235 -40 l 1
 -235 -113 l 2
 -235 -140 -212 -163 -185 -163 c 0
 -158 -163 -136 -140 -136 -113 c 2
 -136 -40 l 1
 -64 -40 l 1
 -64 -113 l 2
 -64 -181 -118 -235 -185 -235 c 0
 -253 -235 -307 -181 -307 -113 c 2
 -307 -112 l 1
 -349 -112 l 1
EndSplineSet
LCarets2: 1 0 
EndChar
StartChar: uni0E3A
Encoding: 266 3642 282
Width: 0
VWidth: 1333
Flags: HW
HStem: -131 99<-135.1 -64.9>
VStem: -149 98<-117.4 -45.9>
AnchorPoint: "BelowBase" -64 -30 mark 0
Fore
-100 -32 m 0
 -73 -32 -51 -54 -51 -81 c 0
 -51 -109 -73 -131 -100 -131 c 0
 -127 -131 -149 -109 -149 -81 c 0
 -149 -54 -127 -32 -100 -32 c 0
EndSplineSet
LCarets2: 1 0 
EndChar
StartChar: uni0E3F
Encoding: 267 3647 283
Width: 579
VWidth: 1286
Flags: HW
HStem: 0 69<135 191 263 425.7> 335 68<135 191 263 310> 598 69<135 191 263 386.5>
VStem: 64 71<69 335 403 598> 191 72<-59 0 69 335 403 598 667 725> 415 72<434 550> 465 71<111 294.3>
Fore
304 667 m 2xfa
 404 667 487 592 487 499 c 0xfc
 487 449 463 405 425 375 c 1
 491 341 536 277 536 202 c 0
 536 88 432 0 310 0 c 2
 263 0 l 1
 263 -59 l 1
 191 -59 l 1
 191 0 l 1
 64 0 l 1
 64 667 l 1
 191 667 l 1
 191 725 l 1
 263 725 l 1
 263 667 l 1
 304 667 l 2xfa
415 499 m 2
 415 500 l 2
 415 550 367 598 302 598 c 2
 263 598 l 1
 263 403 l 1
 302 403 l 2
 368 403 415 449 415 499 c 2
263 335 m 1
 263 69 l 1
 310 69 l 2
 399 69 465 132 465 202 c 0xfa
 465 273 399 335 310 335 c 2
 263 335 l 1
191 403 m 1
 191 598 l 1
 135 598 l 1
 135 403 l 1
 191 403 l 1
191 335 m 1
 135 335 l 1
 135 69 l 1
 191 69 l 1
 191 335 l 1
EndSplineSet
EndChar
StartChar: uni0E40
Encoding: 268 3648 284
Width: 197
VWidth: 1273
Flags: HW
HStem: 0 21G<64 135>
VStem: 64 71<0 534>
Fore
135 0 m 1
 64 0 l 1
 64 534 l 1
 135 534 l 1
 135 0 l 1
EndSplineSet
EndChar
StartChar: uni0E41
Encoding: 269 3649 285
Width: 315
VWidth: 1273
Flags: HW
HStem: 0 21G<64 135 182 252>
VStem: 64 71<0 534> 182 70<0 534>
Fore
135 0 m 1
 64 0 l 1
 64 534 l 1
 135 534 l 1
 135 0 l 1
252 0 m 1
 182 0 l 1
 182 534 l 1
 252 534 l 1
 252 0 l 1
EndSplineSet
EndChar
StartChar: uni0E42
Encoding: 270 3650 286
Width: 218
VWidth: 1279
Flags: HW
HStem: 0 21G<85 185> 706 68<-14 89.3 113 292>
VStem: 85 71<68 634.4>
Fore
209 68 m 1
 185 0 l 1
 85 0 l 1
 85 572 l 2
 85 636 65 706 -16 706 c 2
 -37 706 l 1
 -14 774 l 1
 316 774 l 1
 292 706 l 1
 113 706 l 1
 141 671 156 620 156 572 c 2
 156 68 l 1
 209 68 l 1
EndSplineSet
EndChar
StartChar: uni0E43
Encoding: 271 3651 287
Width: 234
VWidth: 1279
Flags: HW
HStem: 0 21G<101 196> 712 69<47.6 150.3>
VStem: -37 70<650 690.4> 101 71<68 619.9> 164 71<628.6 681.9>
Fore
220 68 m 1xf0
 196 0 l 1
 101 0 l 1
 101 524 l 2xf0
 101 621 164 637 164 665 c 0
 164 678 138 712 97 712 c 0
 59 712 33 685 33 667 c 0
 33 657 34 650 34 650 c 1
 -37 650 l 1
 -37 667 l 2
 -37 727 26 781 96 781 c 0
 168 781 235 725 235 666 c 0xe8
 235 597 172 598 172 525 c 2
 172 68 l 1
 220 68 l 1xf0
EndSplineSet
EndChar
StartChar: uni0E44
Encoding: 272 3652 288
Width: 219
VWidth: 1281
Flags: HW
HStem: 0 21G<86 183>
VStem: 86 70<68 652.6>
Fore
207 68 m 1
 183 0 l 1
 86 0 l 1
 86 585 l 2
 86 637 109 677 133 707 c 1
 100 707 l 1
 47 638 l 1
 -37 713 l 1
 -37 805 l 1
 41 738 l 1
 67 775 l 1
 231 775 l 1
 232 719 l 1
 195 690 156 654 156 584 c 2
 156 68 l 1
 207 68 l 1
EndSplineSet
EndChar
StartChar: uni0E45
Encoding: 273 3653 289
Width: 405
VWidth: 1267
Flags: HW
HStem: 466 68<108.6 275>
VStem: 271 71<-197 415.2>
Fore
51 485 m 1
 80 508 122 534 171 534 c 0
 291 534 342 440 342 332 c 2
 342 -197 l 1
 271 -197 l 1
 271 332 l 2
 271 396 251 466 171 466 c 0
 123 466 76 423 51 402 c 1
 51 485 l 1
EndSplineSet
EndChar
StartChar: uni0E46
Encoding: 274 3654 290
Width: 534
VWidth: 1267
Flags: HW
HStem: 239 68<125.9 227.531> 385 70<225.6 299.7>
VStem: 51 68<330.9 412.8> 401 70<-197 397.9>
Fore
234 313 m 1
 250 248 l 1
 226 242 213 239 188 239 c 0
 99 239 51 307 51 379 c 0
 51 436 82 499 149 526 c 2
 175 537 l 1
 192 514 l 2
 205 494 234 455 262 455 c 0
 291 455 319 494 333 514 c 2
 352 544 l 1
 382 523 l 2
 436 486 471 425 471 357 c 2
 471 -197 l 1
 401 -197 l 1
 401 355 l 2
 401 388 387 419 366 442 c 1
 338 410 304 385 261 385 c 0
 216 385 180 412 151 447 c 1
 129 431 119 405 119 379 c 0
 119 342 140 307 187 307 c 0
 204 307 220 310 234 313 c 1
EndSplineSet
EndChar
StartChar: uni0E47
Encoding: 275 3655 291
Width: 0
VWidth: 1333
Flags: HW
HStem: 577 59<-159.422 -102.601> 723 58<-372.5 -42>
VStem: -441 62<660.6 708.7>
AnchorPoint: "AboveMark" -255 568 mark 0
AnchorPoint: "AboveBase" -64 568 mark 0
Fore
-83 646 m 1
 -56 593 l 1
 -84 584 -109 577 -134 577 c 0
 -154 577 -173 581 -193 591 c 2
 -255 625 l 1
 -315 587 l 1
 -325 587 l 2
 -379 587 -441 622 -441 684 c 0
 -441 746 -379 781 -325 781 c 2
 -18 781 l 1
 -42 723 l 1
 -327 723 l 2
 -362 723 -379 703 -379 684 c 0
 -379 666 -364 648 -336 646 c 1
 -259 695 l 1
 -162 642 l 2
 -152 638 -142 636 -132 636 c 0
 -117 636 -101 641 -83 646 c 1
EndSplineSet
EndChar
StartChar: uni0E48
Encoding: 276 3656 292
Width: 0
VWidth: 1333
Flags: HW
VStem: -136 72<763 904>
AnchorPoint: "AboveMark" -100 750 mark 0
Fore
-64 763 m 1
 -136 763 l 1
 -136 904 l 1
 -64 904 l 1
 -64 763 l 1
EndSplineSet
MultipleSubs2: "Multiple Substitution lookup 5" uni0E4D uni0E48
Substitution2: "Single Substitution lookup 4" uni0E48.low
LCarets2: 1 0 
EndChar
StartChar: uni0E49
Encoding: 277 3657 293
Width: 0
VWidth: 1333
Flags: HW
HStem: 763 72<-144 8> 831 72<-253 -216.07>
VStem: -277 309<831 835>
AnchorPoint: "AboveMark" -100 750 mark 0
Fore
-277 831 m 1x60
 -253 903 l 1
 -220 903 l 2x60
 -165 903 -144 862 -144 835 c 1
 32 835 l 1
 8 763 l 1
 -216 763 l 1xa0
 -216 827 l 2
 -216 831 -218 830 -221 831 c 2
 -277 831 l 1x60
EndSplineSet
MultipleSubs2: "Multiple Substitution lookup 5" uni0E4D uni0E49
Substitution2: "Single Substitution lookup 4" uni0E49.low
EndChar
StartChar: uni0E4A
Encoding: 278 3658 294
Width: 0
VWidth: 1333
Flags: HW
HStem: 763 72<-208.7 -172 47 160> 861 72<-209.5 -127.6>
AnchorPoint: "AboveMark" -100 750 mark 0
Fore
184 835 m 1
 160 763 l 1
 -25 763 l 1
 -25 832 l 1
 -113 767 l 1
 -119 789 l 2
 -129 825 -139 862 -177 861 c 0
 -202 861 -208 853 -208 847 c 0
 -208 842 -206 836 -197 836 c 2
 -172 836 l 1
 -172 764 l 1
 -197 764 l 2
 -248 764 -281 805 -281 847 c 0
 -281 892 -245 933 -179 933 c 0
 -127 933 -98 905 -82 879 c 1
 -24 921 l 1
 47 921 l 1
 47 835 l 1
 184 835 l 1
EndSplineSet
MultipleSubs2: "Multiple Substitution lookup 5" uni0E4D uni0E4A
Substitution2: "Single Substitution lookup 4" uni0E4A.low
EndChar
StartChar: uni0E4B
Encoding: 279 3659 295
Width: 0
VWidth: 1333
Flags: HW
HStem: 804 69<-175 -136 -64 -25>
VStem: -136 72<763 803 875 915>
AnchorPoint: "AboveMark" -100 750 mark 0
Fore
-175 804 m 1
 -175 873 l 1
 -136 873 l 1
 -136 915 l 1
 -64 915 l 1
 -64 875 l 1
 -25 875 l 1
 -25 803 l 1
 -64 803 l 1
 -64 763 l 1
 -136 763 l 1
 -136 804 l 1
 -175 804 l 1
EndSplineSet
MultipleSubs2: "Multiple Substitution lookup 5" uni0E4D uni0E4B
Substitution2: "Single Substitution lookup 4" uni0E4B.low
EndChar
StartChar: uni0E4C
Encoding: 280 3660 296
Width: 0
VWidth: 1333
Flags: HW
HStem: 812 72<-64 20>
VStem: -136 72<763 813.2>
AnchorPoint: "AboveMark" -100 750 mark 0
Fore
44 884 m 1
 20 812 l 1
 -60 812 l 2
 -64 811 -64 812 -64 808 c 2
 -64 763 l 1
 -136 763 l 1
 -136 808 l 2
 -136 835 -121 884 -60 884 c 2
 44 884 l 1
EndSplineSet
MultipleSubs2: "Multiple Substitution lookup 5" uni0E4D uni0E4C
Substitution2: "Single Substitution lookup 4" uni0E4C.low
EndChar
StartChar: uni0E4D
Encoding: 281 3661 297
Width: 0
VWidth: 1333
Flags: HW
HStem: 572 52<-122.4 -82.1393> 675 52<-114.809 -75.6>
VStem: -176 52<632.522 672.4> -73 52<625.6 665.164>
AnchorPoint: "AboveMark" -99 750 basemark 0
AnchorPoint: "AboveBase" -38 568 mark 0
Fore
-21 649 m 0
 -21 607 -56 572 -99 572 c 0
 -141 572 -176 607 -176 649 c 0
 -176 692 -141 727 -99 727 c 0
 -56 727 -21 692 -21 649 c 0
-124 649 m 0
 -124 637 -117 624 -99 624 c 0
 -87 624 -73 631 -73 649 c 0
 -73 661 -81 675 -99 675 c 0
 -111 675 -124 667 -124 649 c 0
EndSplineSet
Substitution2: "Single Substitution lookup 3" uni0E4D.high
LCarets2: 1 0 
EndChar
StartChar: uni0E4E
Encoding: 282 3662 298
Width: 0
VWidth: 1333
Flags: HW
HStem: 940 65<-241.2 -40.2484>
VStem: -372 65<704.1 786>
AnchorPoint: "AboveBase" -64 568 mark 0
Fore
-102 849 m 1
 -165 784 l 1
 -184 784 l 2
 -238 784 -307 771 -307 721 c 0
 -307 708 -247 677 -219 724 c 1
 -163 692 l 1
 -175 673 -195 636 -261 636 c 0
 -318 636 -372 668 -372 723 c 0
 -372 797 -311 826 -274 838 c 1
 -313 907 -241 1005 -92 1005 c 0
 -64 1005 -43 1002 -22 999 c 1
 -32 934 l 1
 -51 937 -69 940 -93 940 c 0
 -207 940 -269 863 -168 849 c 2
 -102 849 l 1
EndSplineSet
EndChar
StartChar: uni0E4F
Encoding: 283 3663 299
Width: 679
VWidth: 1333
Flags: HW
HStem: -21 73<183 493.7> 112 73<280.759 399.296> 351 73<280.704 399.241> 484 73<183 493.7>
VStem: 51 72<113.3 422.7> 184 73<208.704 327.241> 423 73<208.759 327.296> 555 74<113.3 422.7>
Fore
629 268 m 0
 629 108 500 -21 340 -21 c 0
 180 -21 51 108 51 268 c 0
 51 428 180 557 340 557 c 0
 500 557 629 428 629 268 c 0
123 268 m 0
 123 149 219 52 339 52 c 0
 458 52 555 149 555 268 c 0
 555 387 458 484 339 484 c 0
 219 484 123 387 123 268 c 0
340 424 m 0
 426 424 496 354 496 268 c 0
 496 182 426 112 340 112 c 0
 254 112 184 182 184 268 c 0
 184 354 254 424 340 424 c 0
340 351 m 0
 294.388 351 257 313.57 257 268 c 0
 257 222.388 294.43 185 340 185 c 0
 385.612 185 423 222.43 423 268 c 0
 423 313.612 385.57 351 340 351 c 0
EndSplineSet
EndChar
StartChar: uni0E50
Encoding: 284 3664 300
Width: 586
VWidth: 1333
Flags: HW
HStem: -7 72<147.5 447.8> 407 72<147.5 447.8>
VStem: 23 72<117.7 354.3> 500 72<117.7 354.3>
Fore
572 236 m 0
 572 97 446 -7 297 -7 c 0
 149 -7 23 97 23 236 c 0
 23 375 149 479 297 479 c 0
 446 479 572 375 572 236 c 0
95 236 m 0
 95 145 182 65 297 65 c 0
 413 65 500 145 500 236 c 0
 500 327 413 407 297 407 c 0
 182 407 95 327 95 236 c 0
EndSplineSet
EndChar
StartChar: uni0E51
Encoding: 285 3665 301
Width: 586
VWidth: 1333
Flags: HW
HStem: -56 71<277 433.4> 43 72<134.7 327.1> 407 72<147.5 446.5>
VStem: 23 72<141.1 354.3> 500 72<57.8 359.4>
Fore
355 189 m 1
 413 146 l 1
 395 122 338 43 227 43 c 0
 121 43 23 120 23 236 c 0
 23 375 149 479 297 479 c 0
 444 479 572 376 572 232 c 0
 572 57 440 -56 292 -56 c 2
 275 -56 l 1
 277 15 l 1
 293 15 l 2
 401 15 500 98 500 232 c 0
 500 330 412 407 297 407 c 0
 182 407 95 327 95 236 c 0
 95 163 156 115 227 115 c 0
 304 115 342 171 355 189 c 1
EndSplineSet
EndChar
StartChar: uni0E52
Encoding: 286 3666 302
Width: 653
VWidth: 1333
Flags: HW
HStem: 0 72<185.2 491> 107 72<260 328> 407 70<259 342.2 435.2 554.8>
VStem: 73 72<134 527> 173 72<210.1 373.9> 367 72<227 360.2> 549 72<109.4 348>
Fore
46 556 m 1
 74 622 l 1
 89 616 l 2
 150 591 145 509 145 484 c 2
 145 216 l 2
 145 134 205 72 271 72 c 2
 425 72 l 2
 491 72 549 134 549 216 c 2
 549 304 l 2
 549 348 541 407 495 407 c 0
 449 407 439 349 439 304 c 2
 439 227 l 1
 367 227 l 1
 367 303 l 2
 367 347 357 405 311 405 c 0
 271 405 245 355 245 292 c 0
 245 229 272 179 312 179 c 2
 328 179 l 1
 328 107 l 1
 312 107 l 2
 229 107 173 188 173 292 c 0
 173 398 228 477 311 477 c 0
 335 477 373 470 402 433 c 1
 419 454 448 477 495 477 c 0
 568 477 621 418 621 303 c 2
 621 215 l 2
 621 99 535 0 424 0 c 2
 269 0 l 2
 158 0 73 99 73 215 c 2
 73 483 l 2
 73 527 67 546 60 549 c 2
 46 556 l 1
EndSplineSet
EndChar
StartChar: uni0E53
Encoding: 287 3667 303
Width: 633
VWidth: 1333
Flags: HW
HStem: 0 72<144.1 229> 407 72<143.1 271.5 379.8 515.3>
VStem: 53 71<115.1 358.2> 288 72<0 369> 512 72<0 369>
Fore
288 304 m 2
 288 354 273 407 212 407 c 0
 159 407 124 330 124 236 c 0
 124 143 160 72 213 72 c 2
 229 72 l 1
 229 0 l 1
 213 0 l 2
 96 0 53 131 53 236 c 0
 53 339 95 479 213 479 c 0
 258 479 298 462 325 427 c 1
 353 462 393 479 437 479 c 0
 516 479 584 426 584 304 c 2
 584 0 l 1
 512 0 l 1
 512 304 l 2
 512 354 497 407 436 407 c 0
 375 407 360 354 360 304 c 2
 360 0 l 1
 288 0 l 1
 288 304 l 2
EndSplineSet
EndChar
StartChar: uni0E54
Encoding: 288 3668 304
Width: 641
VWidth: 1333
Flags: HW
HStem: -7 72<164.1 336.573> 12 71<417.515 536.676> 207 72<390.6 443> 397 71<430.296 561.5> 408 71<169.2 413.6>
VStem: 48 71<128.3 359.7> 292 72<128.8 208.1> 579 70<474.9 604>
Fore
629 49 m 1x67
 598 -16 l 1
 583 -9 l 2
 555 6 518 12 480 12 c 0x67
 408 12 372 -7 312 -7 c 0
 161 -7 48 112 48 243 c 0
 48 380 176 479 323 479 c 0xaf
 400 479 446 468 477 468 c 0
 542 468 579 501 579 588 c 2
 579 604 l 1
 649 604 l 1
 649 588 l 2
 649 439 558 397 476 397 c 0x37
 433 397 392 408 320 408 c 0
 204 408 119 333 119 244 c 0
 119 155 198 65 311 65 c 0xaf
 317 65 324 66 331 66 c 1
 306 95 292 128 292 161 c 0
 292 225 341 279 427 279 c 2
 443 279 l 1
 443 207 l 1
 427 207 l 2
 399 207 364 197 364 160 c 0
 364 136 382 101 431 80 c 1
 446 81 462 83 479 83 c 0
 547 83 590 67 615 56 c 2
 629 49 l 1x67
EndSplineSet
EndChar
StartChar: uni0E55
Encoding: 289 3669 305
Width: 641
VWidth: 1333
Flags: HW
HStem: -7 72<164.1 336.573> 12 71<417.515 536.676> 207 72<390.6 443> 397 71<422.133 561.5> 408 61<318.2 361.1> 529 64<318.2 361.1>
VStem: 48 71<128.3 359.7> 239 70<478.2 521.1> 292 72<128.8 208.1> 369 70<478.2 521.1> 579 70<474.9 604>
Fore
309 499 m 0x2f60
 309 483 323 469 339 469 c 0
 356 469 369 483 369 499 c 0
 369 516 356 529 339 529 c 0
 323 529 309 516 309 499 c 0x2f60
629 49 m 1
 598 -16 l 1
 583 -9 l 2
 555 6 518 12 480 12 c 0x66e0
 408 12 372 -7 312 -7 c 0
 161 -7 48 112 48 243 c 0
 48 356 134 441 244 469 c 1xaee0
 240 479 239 489 239 499 c 0
 239 549 282 593 339 593 c 0
 392 593 439 554 439 500 c 0
 439 490 437 480 434 471 c 1
 451 469 465 468 477 468 c 0
 542 468 579 501 579 588 c 2
 579 604 l 1
 649 604 l 1
 649 588 l 2
 649 439 558 397 476 397 c 0x3760
 437 397 389 408 320 408 c 0
 204 408 119 333 119 244 c 0
 119 155 198 65 311 65 c 0xaf60
 317 65 324 66 331 66 c 1
 306 95 292 128 292 161 c 0
 292 225 341 279 427 279 c 2
 443 279 l 1
 443 207 l 1
 427 207 l 2
 399 207 364 197 364 160 c 0
 364 136 382 101 431 80 c 1
 446 81 462 83 479 83 c 0x66e0
 547 83 590 67 615 56 c 2
 629 49 l 1
EndSplineSet
EndChar
StartChar: uni0E56
Encoding: 290 3670 306
Width: 586
VWidth: 1333
Flags: HW
HStem: -7 72<141.4 450.8> 209 70<140 221> 409 70<231.1 449.5>
VStem: 65 72<117.1 189.9> 503 72<117.7 354.3>
Fore
-63 547 m 1
 -46 617 l 1
 49 594 103 506 126 439 c 1
 179 466 247 479 300 479 c 0
 448 479 575 375 575 236 c 0
 575 97 448 -7 300 -7 c 0
 155 -7 65 73 65 160 c 0
 65 225 117 279 205 279 c 2
 221 279 l 1
 221 209 l 1
 205 209 l 2
 155 209 137 183 137 160 c 0
 137 127 178 65 300 65 c 0
 416 65 503 145 503 236 c 0
 503 327 415 409 300 409 c 0
 162 409 91 339 69 308 c 1
 71 512 -60 546 -63 547 c 1
EndSplineSet
EndChar
StartChar: uni0E57
Encoding: 291 3671 307
Width: 681
VWidth: 1333
Flags: HW
HStem: 0 72<131 212 383 395> 407 73<131 234.343 333.9 449.6>
VStem: 40 72<123 355.7> 264 72<175 366.9> 465 74<152.6 351.8> 576 72<133.1 526>
Fore
359 0 m 1
 383 72 l 1
 395 72 l 2
 437 72 465 154 465 240 c 0
 465 326 437 407 395 407 c 0
 348 407 336 357 336 324 c 2
 336 175 l 1
 264 175 l 1
 264 323 l 2
 264 360 250 407 196 407 c 0
 146 407 112 329 112 240 c 0
 112 150 146 72 196 72 c 2
 212 72 l 1
 212 0 l 1
 196 0 l 2
 102 0 40 103 40 241 c 0
 40 379 102 480 196 480 c 0
 220 480 266 475 299 433 c 1
 317 456 347 480 396 480 c 0
 482 480 539 381 539 241 c 0
 539 173 525 123 510 89 c 1
 555 111 576 158 576 241 c 2
 576 484 l 2
 576 511 573 591 635 616 c 2
 650 622 l 1
 677 555 l 1
 662 549 l 2
 654 545 648 526 648 484 c 2
 648 241 l 2
 648 48 539 1 425 0 c 2
 381 0 l 1
 359 0 l 1
EndSplineSet
EndChar
StartChar: uni0E58
Encoding: 292 3672 308
Width: 641
VWidth: 1333
Flags: HW
HStem: -7 72<412.4 551.5> 396 72<431.968 562.2> 407 72<172.2 415.3>
VStem: 49 72<135.1 358.7> 552 73<81.9 159> 580 72<474.9 604>
Fore
357 180 m 1xb4
 381 104 425 65 467 65 c 0
 532 65 552 96 552 143 c 2
 552 159 l 1
 625 159 l 1
 625 143 l 2
 625 44 561 -7 468 -7 c 0
 415 -7 365 24 329 73 c 1
 299 -8 l 1
 287 -8 l 2
 92 0 49 155 49 243 c 0
 49 380 177 479 324 479 c 0xb8
 401 479 448 468 479 468 c 0
 543 468 580 501 580 588 c 2
 580 604 l 1
 652 604 l 1
 652 588 l 2
 652 434 556 396 479 396 c 0xd4
 436 396 394 407 323 407 c 0
 207 407 121 332 121 243 c 0
 121 160 164 83 254 68 c 1
 297 180 l 1
 357 180 l 1xb4
EndSplineSet
EndChar
StartChar: uni0E59
Encoding: 293 3673 309
Width: 615
VWidth: 1333
Flags: HW
HStem: -5 72<151.9 318.3> 412 72<151.4 303.5 443.6 496.2>
VStem: 25 72<98.4 377.9> 299 74<100.3 164> 536 71<530.926 630.776> 541 72<490.961 626.209>
Fore
518 8 m 1xf4
 446 -2 l 1
 413 226 361 412 232 412 c 0
 170 412 97 347 97 244 c 0
 97 132 166 67 213 67 c 0
 294 67 299 115 299 164 c 1
 373 164 l 1
 373 71 342 -5 215 -5 c 0
 117 -5 25 109 25 244 c 0
 25 381 123 484 232 484 c 0
 287 484 334 465 373 425 c 1
 398 467 433 483 465 483 c 0
 489 483 511 474 528 461 c 1
 538 490 541 523 541 552 c 0xf4
 541 583 538 611 536 628 c 1
 607 638 l 1xf8
 611 606 613 577 613 552 c 0
 613 436 578 386 529 329 c 1
 521 379 492 411 467 411 c 0
 449 411 436 396 422 358 c 1
 456 296 490 202 518 8 c 1xf4
EndSplineSet
EndChar
StartChar: uni0E5A
Encoding: 294 3674 310
Width: 631
VWidth: 1333
Flags: HW
HStem: 327 72<157.964 299.9> 484 72<100.4 207>
VStem: 51 70<402.5 451.944> 387 70<-16 417> 496 72<-16 549>
Fore
496 -16 m 1
 496 549 l 1
 568 549 l 1
 568 -16 l 1
 496 -16 l 1
207 484 m 1
 125 484 121 441 121 435 c 0
 121 410 167 399 191 399 c 0
 279 399 372 488 389 549 c 1
 457 549 l 1
 457 -16 l 1
 387 -16 l 1
 387 417 l 1
 343 373 275 327 192 327 c 0
 118 327 51 370 51 435 c 0
 51 462 69 556 207 556 c 1
 207 484 l 1
EndSplineSet
EndChar
StartChar: uni0E5B
Encoding: 295 3675 311
Width: 1199
VWidth: 1333
Flags: HW
HStem: -21 72<171.5 362.6> 156 61<227 280.3> 225 59<1062.6 1138.52> 247 72<943.333 1034.4> 319 61<227 280.3> 485 72<138.1 283.7>
VStem: 25 70<62.8 433.3> 156 60<231.6 304.4> 291 92<231.6 344>
Fore
216 268 m 0xcf80
 216 240 233 217 253 217 c 0
 274 217 291 240 291 268 c 0
 291 296 274 319 253 319 c 0
 233 319 216 296 216 268 c 0xcf80
891 220 m 0
 870 220 860 236 857 243 c 1
 835 169 l 2
 818 124 779 135 768 167 c 2
 744 235 l 1
 718 135 l 2
 703 85 657 98 650 134 c 2
 621 243 l 1
 590 98 l 2
 574 43 531 62 521 97 c 2
 484 230 l 1
 458 87 391 -21 245 -21 c 0
 143 -21 25 78 25 263 c 0
 25 422 103 557 220 557 c 0
 318 557 383 468 383 344 c 0
 383 233 331 156 253 156 c 0
 194 156 156 211 156 268 c 0
 156 325 194 380 253 380 c 0
 274 380 292 373 306 362 c 1
 302 433 269 485 220 485 c 0
 157 485 95 394 95 263 c 0
 95 109 188 51 243 51 c 0
 335 51 424 111 424 408 c 2
 424 445 l 2
 424 473 445 484 460 484 c 0
 480 484 491 467 494 456 c 2
 547 261 l 1
 578 407 l 2
 582 430 599 439 613 439 c 0
 627 439 644 430 649 406 c 2
 682 287 l 1
 703 371 l 2
 723 424 762 403 771 373 c 2
 797 298 l 1
 809 337 l 2
 812 350 819 374 839 374 c 1
 847 372 856 375 873 347 c 2
 903 302 l 1
 934 314 961 319 985 319 c 0xdf80
 1039 319 1074 284 1112 284 c 0
 1137 284 1161 293 1173 293 c 1
 1208 285 1194 261 1189 255 c 0
 1173 237 1131 225 1112 225 c 0xef80
 1061 225 1023 247 985 247 c 0xdf80
 937 247 908 220 891 220 c 0
EndSplineSet
EndChar
StartChar: Euro
Encoding: 313 8364 313
Width: 555
VWidth: 1333
Flags: HW
HStem: -6 69<227.8 390.3> 224 69<24 55 140 454> 377 68<24 55 140 454> 607 68<229.1 389>
VStem: 53 69<281.193 388.747>
Fore
505 611 m 1
 461 555 l 1
 449 565 l 2
 415 591 377 607 337 607 c 0
 254 607 175 543 140 445 c 1
 478 445 l 1
 454 377 l 1
 124 377 l 1
 123 363 122 349 122 335 c 0
 122 320 123 306 124 293 c 1
 478 293 l 1
 454 224 l 1
 140 224 l 1
 175 126 253 63 337 63 c 0
 378 63 416 76 449 102 c 2
 461 112 l 1
 506 58 l 1
 493 49 l 2
 444 11 391 -6 339 -6 c 0
 221 -6 110 82 69 224 c 1
 0 224 l 1
 24 293 l 1
 55 293 l 1
 54 306 53 320 53 335 c 0
 53 349 54 363 55 377 c 1
 0 377 l 1
 24 445 l 1
 69 445 l 1
 107 576 210 675 338 675 c 0
 400 675 453 651 493 620 c 2
 505 611 l 1
EndSplineSet
EndChar
StartChar: uni25CC
Encoding: 315 9676 314
Width: 621
VWidth: 1333
Flags: HW
HStem: -16 85<280.8 341.9> 51 85<122.1 181.9 428.1 488.9> 197 86<67.8 128.9 491.8 552.9> 331 85<122.1 183.2 429.1 488.9> 411 85<282.1 343.2>
VStem: 56 85<210.1 269.9> 109 85<63.1 124.2 343.1 404.2> 269 85<-4.2 56.9 423.1 484.2> 416 85<63.1 124.2 343.1 404.2> 480 85<210.1 269.9>
Fore
459 136 m 0x6180
 482 136 501 117 501 93 c 0
 501 70 482 51 458 51 c 0
 435 51 416 70 416 93 c 0
 416 117 435 136 459 136 c 0x6180
152 136 m 0
 175 136 194 117 194 93 c 0
 195 70 175 51 152 51 c 0
 128 51 109 70 109 93 c 0x63
 109 117 129 136 152 136 c 0
459 416 m 0x3180
 482 416 502 397 502 373 c 0
 502 350 482 331 459 331 c 0
 436 331 416 350 416 373 c 0
 416 397 436 416 459 416 c 0x3180
312 69 m 0xa1
 335 69 354 50 354 27 c 0
 354 3 335 -16 312 -16 c 0
 288 -16 269 3 269 27 c 0
 269 50 288 69 312 69 c 0xa1
152 416 m 0x31
 176 416 195 397 195 373 c 0
 195 350 176 331 152 331 c 0
 129 331 110 350 110 373 c 0
 110 397 129 416 152 416 c 0x31
99 283 m 0
 122 283 141 263 141 240 c 0
 141 217 122 197 99 197 c 0
 75 197 56 217 56 240 c 0x25
 56 263 75 283 99 283 c 0
312 496 m 0x29
 336 496 355 477 355 453 c 0
 355 430 336 411 312 411 c 0
 289 411 270 430 270 453 c 0
 270 477 289 496 312 496 c 0x29
523 283 m 0
 546 283 565 263 565 240 c 0
 565 217 546 197 523 197 c 0
 499 197 480 217 480 240 c 0x2140
 480 263 499 283 523 283 c 0
EndSplineSet
EndChar
StartChar: uni0E10.descless
Encoding: 316 63232 315
Width: 534
VWidth: 1333
Flags: HW
HStem: 0 21G<401 471> 233 68<263 401> 472 68<159.6 316.9>
VStem: 51 70<337 434.5> 401 70<0 233 301 396.8>
Fore
401 337 m 2
 401 412 339 472 261 472 c 0
 183 472 121 412 121 337 c 9
 51 337 l 17
 51 449 145 540 261 540 c 0
 304 540 343 528 376 507 c 1
 430 541 l 1
 470 484 l 1
 429 459 l 1
 456 425 471 383 471 337 c 2
 471 0 l 1
 401 0 l 1
 401 233 l 1
 239 233 l 1
 263 301 l 1
 401 301 l 1
 401 337 l 2
EndSplineSet
EndChar
StartChar: uni0E34.left
Encoding: 317 63233 316
Width: 0
VWidth: 1333
Flags: HW
HStem: 587 72<-554 -172>
VStem: -602 430<587 659>
Fore
-172 659 m 1
 -172 587 l 1
 -602 587 l 1
 -554 659 l 1
 -172 659 l 1
EndSplineSet
EndChar
StartChar: uni0E35.left
Encoding: 318 63234 317
Width: 0
VWidth: 1333
Flags: HW
HStem: 587 124<-244 -172> 587 72<-554 -244>
VStem: -244 72<659 711>
Fore
-244 659 m 5x60
 -244 711 l 5
 -172 711 l 5
 -172 587 l 5xa0
 -602 587 l 5
 -554 659 l 5
 -244 659 l 5x60
EndSplineSet
EndChar
StartChar: uni0E36.left
Encoding: 319 63235 318
Width: 0
VWidth: 1333
Flags: HW
HStem: 587 72<-570 -310> 587 46<-255.1 -209.6> 696 45<-255.1 -209.6>
VStem: -311 47<657.562 687.1> -201 45<641.6 687.1>
Fore
-264 665 m 4x78
 -264 647 -250 633 -233 633 c 4
 -215 633 -201 647 -201 665 c 4
 -201 682 -215 696 -233 696 c 4
 -250 696 -264 682 -264 665 c 4x78
-156 664 m 4
 -156 622 -191 587 -233 587 c 6
 -618 587 l 5x78
 -570 659 l 5
 -310 659 l 5xb8
 -311 660 -311 662 -311 664 c 4
 -311 706 -276 741 -233 741 c 4
 -191 741 -156 706 -156 664 c 4
EndSplineSet
EndChar
StartChar: uni0E37.left
Encoding: 320 63236 319
Width: 0
VWidth: 1333
Flags: HW
HStem: 587 72<-554 -331 -260 -244> 587 124<-331 -260 -244 -172>
VStem: -331 71<659 711> -244 72<659 711>
Fore
-331 711 m 5x70
 -260 711 l 5x70
 -260 659 l 5
 -244 659 l 5xb0
 -244 711 l 5
 -172 711 l 5
 -172 587 l 5
 -602 587 l 5x70
 -554 659 l 5
 -331 659 l 5xb0
 -331 711 l 5x70
EndSplineSet
EndChar
StartChar: uni0E48.low_left
Encoding: 321 63237 320
Width: 0
VWidth: 1333
Flags: HW
VStem: -284 72<587 728>
Fore
-212 587 m 5
 -284 587 l 5
 -284 728 l 5
 -212 728 l 5
 -212 587 l 5
EndSplineSet
EndChar
StartChar: uni0E49.low_left
Encoding: 322 63238 321
Width: 0
VWidth: 1333
Flags: HW
HStem: 587 72<-358 -206> 655 72<-466 -427.8>
VStem: -490 308<655 659>
Fore
-429 651 m 2xa0
 -429 654 -429 655 -433 655 c 2
 -490 655 l 1
 -466 727 l 1
 -433 727 l 2x60
 -378 727 -360 687 -358 659 c 1
 -182 659 l 1
 -206 587 l 1
 -429 587 l 1
 -429 651 l 2xa0
EndSplineSet
EndChar
StartChar: uni0E4A.low_left
Encoding: 323 63239 322
Width: 0
VWidth: 1333
Flags: HW
HStem: 587 72<-486.4 -451 -231 -118> 685 71<-476.8 -433.9>
Fore
-231 659 m 1
 -94 659 l 1
 -118 587 l 1
 -303 587 l 1
 -303 655 l 1
 -402 581 l 1
 -412 638 l 2
 -419 674 -439 685 -456 685 c 0
 -472 685 -487 675 -487 669 c 0
 -487 665 -484 659 -476 659 c 2
 -451 659 l 1
 -451 587 l 1
 -476 587 l 2
 -527 587 -560 628 -560 669 c 0
 -560 714 -523 756 -457 756 c 0
 -406 756 -377 728 -361 701 c 1
 -303 744 l 1
 -231 744 l 1
 -231 659 l 1
EndSplineSet
EndChar
StartChar: uni0E4B.low_left
Encoding: 324 63240 323
Width: 0
VWidth: 1333
Flags: HW
HStem: 628 69<-335 -296 -224 -185>
VStem: -296 72<587 627 699 739>
Fore
-335 628 m 1
 -335 697 l 1
 -296 697 l 1
 -296 739 l 1
 -224 739 l 1
 -224 699 l 1
 -185 699 l 1
 -185 627 l 1
 -224 627 l 1
 -224 587 l 1
 -296 587 l 1
 -296 628 l 1
 -335 628 l 1
EndSplineSet
EndChar
StartChar: uni0E4C.low_left
Encoding: 325 63241 324
Width: 0
VWidth: 1333
Flags: HW
HStem: 636 72<-269.2 -184>
VStem: -340 72<587 638.5>
Fore
-264 636 m 2
 -268 635 -268 637 -268 632 c 2
 -268 587 l 1
 -340 587 l 1
 -340 632 l 2
 -340 659 -325 708 -264 708 c 2
 -160 708 l 1
 -184 636 l 1
 -264 636 l 2
EndSplineSet
EndChar
StartChar: uni0E48.low
Encoding: 326 63242 325
Width: 0
VWidth: 1333
Flags: HW
VStem: -136 72<587 728>
AnchorPoint: "AboveBase" -64 568 mark 0
Fore
-64 587 m 1
 -136 587 l 1
 -136 728 l 1
 -64 728 l 1
 -64 587 l 1
EndSplineSet
EndChar
StartChar: uni0E49.low
Encoding: 327 63243 326
Width: 0
VWidth: 1333
Flags: HW
HStem: 587 72<-160 18> 655 72<-269 -229.5>
VStem: -293 335<655 659>
AnchorPoint: "AboveBase" 25 568 mark 0
Fore
-232 651 m 2xa0
 -232 653 -231 655 -236 655 c 2
 -293 655 l 1
 -269 727 l 1
 -236 727 l 2x60
 -180 727 -163 688 -160 659 c 1
 42 659 l 1
 18 587 l 1
 -232 587 l 1
 -232 651 l 2xa0
EndSplineSet
EndChar
StartChar: uni0E4A.low
Encoding: 328 63244 327
Width: 0
VWidth: 1333
Flags: HW
HStem: 588 72<-240.7 -204 15 128> 687 70<-231.1 -186.9>
AnchorPoint: "AboveBase" 75 568 mark 0
Fore
-56 656 m 1
 -155 582 l 1
 -165 640 l 2
 -172 676 -192 687 -209 687 c 0
 -226 687 -240 677 -240 671 c 0
 -240 666 -238 660 -229 660 c 2
 -204 660 l 1
 -204 588 l 1
 -229 588 l 2
 -280 588 -313 629 -313 671 c 0
 -313 716 -277 757 -211 757 c 0
 -159 757 -130 729 -114 703 c 1
 -56 745 l 1
 15 745 l 1
 15 659 l 1
 152 659 l 1
 128 587 l 1
 -56 587 l 1
 -56 656 l 1
EndSplineSet
EndChar
StartChar: uni0E4B.low
Encoding: 329 63245 328
Width: 0
VWidth: 1333
Flags: HW
HStem: 628 69<-175 -136 -64 -25>
VStem: -136 72<587 627 699 739>
AnchorPoint: "AboveBase" -34 568 mark 0
Fore
-175 628 m 1
 -175 697 l 1
 -136 697 l 1
 -136 739 l 1
 -64 739 l 1
 -64 699 l 1
 -25 699 l 1
 -25 627 l 1
 -64 627 l 1
 -64 587 l 1
 -136 587 l 1
 -136 628 l 1
 -175 628 l 1
EndSplineSet
EndChar
StartChar: uni0E4C.low
Encoding: 330 63246 329
Width: 0
VWidth: 1333
Flags: HW
HStem: 636 72<-145.2 -60>
VStem: -216 72<587 637.2>
AnchorPoint: "AboveBase" -64 568 mark 0
Fore
-140 636 m 2
 -144 635 -144 636 -144 632 c 2
 -144 587 l 1
 -216 587 l 1
 -216 632 l 2
 -216 662 -201 708 -140 708 c 2
 -36 708 l 1
 -60 636 l 1
 -140 636 l 2
-143 635 m 1
 -143 635 l 1
EndSplineSet
EndChar
StartChar: uni0E0D.descless
Encoding: 331 63247 330
Width: 842
VWidth: 1333
Flags: HW
HStem: -7 68<502.5 671.5> 0 68<135 170> 472 68<199.8 346.7>
VStem: 64 71<68 288.3> 396 71<117 447.8> 709 70<94.9 534>
Fore
45 362 m 1x7c
 82 511 195 540 257 540 c 0
 372 540 467 449 467 337 c 2
 467 195 l 2
 467 117 522 61 587 61 c 0
 652 61 709 118 709 195 c 2
 709 534 l 1
 779 534 l 1
 779 195 l 2
 779 86 696 -7 587 -7 c 0xbc
 478 -7 396 86 396 195 c 2
 396 336 l 2
 396 422 326 472 257 472 c 0
 213 472 148 452 121 384 c 1
 209 336 l 1
 183 324 l 2
 151 309 135 294 135 249 c 2
 135 68 l 1
 193 68 l 1
 170 0 l 1
 64 0 l 1
 64 248 l 2
 64 279 81 310 103 332 c 1
 45 362 l 1x7c
EndSplineSet
EndChar
StartChar: uni0E31.left
Encoding: 332 63248 331
Width: 0
VWidth: 1333
Flags: HW
HStem: 587 124<-385 -313> 587 72<-313 11>
VStem: -385 72<659 711>
Fore
-313 659 m 5x60
 59 659 l 5
 11 587 l 5x60
 -385 587 l 5
 -385 711 l 5
 -313 711 l 5xa0
 -313 659 l 5x60
EndSplineSet
EndChar
StartChar: uni0E4D.left
Encoding: 333 63249 332
Width: 0
VWidth: 1333
Flags: HW
HStem: 585 52<-255.4 -216.191> 688 52<-248.478 -208.6>
VStem: -309 52<646.139 686.4> -207 52<639.6 679.478>
Fore
-155 663 m 0
 -155 620 -190 585 -232 585 c 0
 -274 585 -309 620 -309 663 c 0
 -309 705 -274 740 -232 740 c 0
 -190 740 -155 705 -155 663 c 0
-257 663 m 0
 -257 651 -250 637 -232 637 c 0
 -220 637 -207 645 -207 663 c 0
 -207 675 -214 688 -232 688 c 0
 -244 688 -257 681 -257 663 c 0
EndSplineSet
EndChar
StartChar: uni0E47.left
Encoding: 334 63250 333
Width: 0
VWidth: 1333
Flags: HW
HStem: 577 73<-284.627 -220.277> 709 72<-518.2 -164>
VStem: -564 424<684 781>
Fore
-438 587 m 1
 -448 587 l 2
 -502 587 -564 622 -564 684 c 0
 -564 746 -502 781 -448 781 c 2
 -140 781 l 1
 -164 709 l 1
 -449 709 l 2
 -506 707 -504 664 -459 659 c 1
 -382 708 l 1
 -285 656 l 2
 -275 651 -264 650 -253 650 c 0
 -242 650 -231 652 -219 655 c 2
 -205 660 l 1
 -179 593 l 1
 -195 588 l 2
 -213 581 -233 577 -254 577 c 0
 -275 577 -296 582 -315 591 c 2
 -378 625 l 1
 -438 587 l 1
EndSplineSet
EndChar
StartChar: uni0E48.left
Encoding: 335 63251 334
Width: 0
VWidth: 1333
Flags: HW
VStem: -244 72<763 904>
Fore
-172 763 m 5
 -244 763 l 5
 -244 904 l 5
 -172 904 l 5
 -172 763 l 5
EndSplineSet
EndChar
StartChar: uni0E49.left
Encoding: 336 63252 335
Width: 0
VWidth: 1333
Flags: HW
HStem: 763 72<-258 -106> 831 72<-366 -327.8>
VStem: -390 308<831 835>
Fore
-329 827 m 6xa0
 -329 829 -329 831 -333 831 c 6
 -390 831 l 5
 -366 903 l 5
 -333 903 l 6x60
 -278 903 -260 864 -258 835 c 5
 -82 835 l 5
 -106 763 l 5
 -329 763 l 5
 -329 827 l 6xa0
EndSplineSet
EndChar
StartChar: uni0E4A.left
Encoding: 337 63253 336
Width: 0
VWidth: 1333
Flags: HW
HStem: 764 72<-305.4 -269 -51 62> 863 70<-296.1 -251.9>
Fore
-121 832 m 1
 -221 758 l 1
 -230 816 l 2
 -237 852 -257 863 -274 863 c 0
 -291 863 -305 853 -305 847 c 0
 -305 842 -303 836 -295 836 c 2
 -269 836 l 1
 -269 764 l 1
 -295 764 l 2
 -345 764 -379 805 -379 847 c 0
 -379 892 -342 933 -276 933 c 0
 -225 933 -195 905 -180 879 c 1
 -121 921 l 1
 -51 921 l 1
 -51 835 l 1
 86 835 l 1
 62 763 l 1
 -121 763 l 1
 -121 832 l 1
EndSplineSet
EndChar
StartChar: uni0E4B.left
Encoding: 338 63254 337
Width: 0
VWidth: 1333
Flags: HW
HStem: 804 69<-283 -244 -172 -133>
VStem: -244 72<763 803 875 915>
Fore
-283 804 m 5
 -283 873 l 5
 -244 873 l 5
 -244 915 l 5
 -172 915 l 5
 -172 875 l 5
 -133 875 l 5
 -133 803 l 5
 -172 803 l 5
 -172 763 l 5
 -244 763 l 5
 -244 804 l 5
 -283 804 l 5
EndSplineSet
EndChar
StartChar: uni0E4C.left
Encoding: 339 63255 338
Width: 0
VWidth: 1333
Flags: HW
HStem: 812 72<-173.2 -88>
VStem: -244 72<763 813.2>
Fore
-168 812 m 6
 -172 811 -172 812 -172 808 c 6
 -172 763 l 5
 -244 763 l 5
 -244 808 l 6
 -244 831 -229 884 -168 884 c 6
 -64 884 l 5
 -88 812 l 5
 -168 812 l 6
-171 811 m 5
 -171 811 l 5
EndSplineSet
EndChar
StartChar: uni0E38.low
Encoding: 340 63256 339
Width: 0
VWidth: 1333
Flags: HW
HStem: -272 72<-180 -136>
VStem: -136 72<-395 -272>
Fore
-180 -200 m 1
 -64 -200 l 5
 -64 -395 l 1
 -136 -395 l 1
 -136 -272 l 1
 -204 -272 l 1
 -180 -200 l 1
EndSplineSet
EndChar
StartChar: uni0E39.low
Encoding: 341 63257 340
Width: 0
VWidth: 1333
Flags: HW
HStem: -395 72<-220.1 -149.9> -220 20G<-325 -235 -136 -64>
VStem: -307 72<-308.1 -272> -136 72<-308.1 -200>
Fore
-325 -200 m 1
 -235 -200 l 1
 -235 -273 l 2
 -235 -300 -212 -323 -185 -323 c 0
 -158 -323 -136 -300 -136 -273 c 2
 -136 -200 l 1
 -64 -200 l 1
 -64 -273 l 2
 -64 -341 -118 -395 -185 -395 c 0
 -253 -395 -307 -341 -307 -273 c 2
 -307 -272 l 1
 -349 -272 l 1
 -325 -200 l 1
EndSplineSet
EndChar
StartChar: uni0E3A.low
Encoding: 342 63258 341
Width: 0
VWidth: 1333
Flags: HW
HStem: -301 98<-135.1 -64.9>
VStem: -149 98<-287.1 -216.9>
Fore
-100 -203 m 0
 -73 -203 -51 -225 -51 -252 c 0
 -51 -279 -73 -301 -100 -301 c 0
 -127 -301 -149 -279 -149 -252 c 0
 -149 -225 -127 -203 -100 -203 c 0
EndSplineSet
EndChar
StartChar: uniF780
Encoding: 343 63360 342
Width: 405
VWidth: 1333
Flags: HW
HStem: 0 21G<271 342> 472 68<108.6 275> 572 52<-255.4 -215.522> 675 52<-247.809 -208.6>
VStem: -309 52<632.522 672.4> -207 52<625.6 665.861> 271 71<0 420.2>
Fore
-155 649 m 0
 -155 607 -190 572 -232 572 c 0
 -274 572 -309 607 -309 649 c 0
 -309 692 -274 727 -232 727 c 0
 -190 727 -155 692 -155 649 c 0
-257 649 m 0
 -257 637 -250 624 -232 624 c 0
 -220 624 -207 631 -207 649 c 0
 -207 661 -214 675 -232 675 c 0
 -244 675 -257 667 -257 649 c 0
51 491 m 1
 80 513 122 540 171 540 c 0
 291 540 342 446 342 337 c 2
 342 0 l 1
 271 0 l 1
 271 337 l 2
 271 401 251 472 171 472 c 0
 123 472 76 429 51 408 c 1
 51 491 l 1
EndSplineSet
EndChar
StartChar: uniF781
Encoding: 344 63361 343
Width: 0
VWidth: 1333
Flags: HW
HStem: 636 63<-355.9 -303.514> 940 65<-253.2 -104.248>
VStem: -436 65<710.3 787> -348 65<862.8 916.1>
Fore
-229 784 m 1
 -248 784 l 2
 -302 784 -371 772 -371 722 c 0
 -371 713 -349 699 -326 699 c 0
 -311 699 -294 705 -283 724 c 1
 -227 692 l 1
 -239 673 -259 636 -325 636 c 0
 -382 636 -436 668 -436 723 c 0
 -436 797 -375 826 -338 838 c 1
 -345 850 -348 863 -348 879 c 0
 -348 955 -260 1005 -156 1005 c 0
 -128 1005 -107 1002 -86 999 c 1
 -96 934 l 1
 -115 937 -133 940 -157 940 c 0
 -231 940 -283 908 -283 881 c 0
 -283 867 -268 854 -232 849 c 2
 -166 849 l 1
 -229 784 l 1
EndSplineSet
EndChar
StartChar: uniF782
Encoding: 345 63362 344
Width: 610
VWidth: 1275
Flags: HW
HStem: -7 68<131.5 256.3 355.7 479.2> 379 68<341 469.1>
VStem: 64 71<111 533> 270 71<108.6 333> 477 70<96.9 350 463.6 535>
Fore
64 533 m 1
 135 533 l 1
 135 158 l 2
 135 111 148 61 203 61 c 0
 260 61 270 120 270 158 c 2
 270 333 l 1
 341 333 l 1
 341 158 l 2
 341 111 355 61 409 61 c 0
 463 61 477 111 477 158 c 2
 477 312 l 2
 477 350 458 379 421 379 c 2
 341 379 l 1
 341 447 l 1
 421 447 l 2
 458 447 477 475 477 513 c 2
 477 535 l 1
 547 535 l 1
 547 513 l 2
 547 473 530 436 501 411 c 1
 530 386 547 350 547 309 c 2
 547 158 l 2
 547 45 485 -7 409 -7 c 0
 368 -7 331 9 306 41 c 1
 280 9 244 -7 203 -7 c 0
 126 -7 64 45 64 158 c 2
 64 533 l 1
EndSplineSet
EndChar
StartChar: uniF783
Encoding: 346 63363 345
Width: 874
VWidth: 1267
Flags: HW
HStem: 0 68<134 169> 466 68<577.6 745.3> 472 68<185.8 348.3>
VStem: 64 70<68 288.3> 396 70<-192 448.8> 741 70<-192 415.2>
Fore
520 485 m 1xdc
 549 508 591 534 640 534 c 0
 761 534 811 440 811 332 c 2
 811 -192 l 1
 741 -192 l 1
 741 332 l 2
 741 396 721 466 640 466 c 0
 592 466 546 423 520 402 c 1
 520 485 l 1xdc
193 68 m 1
 169 0 l 1
 64 0 l 1
 64 248 l 2
 64 279 81 310 103 332 c 1
 45 362 l 1
 81 511 196 540 256 540 c 0
 372 540 466 449 466 337 c 2
 466 -192 l 1
 396 -192 l 1
 396 337 l 2
 396 423 327 472 256 472 c 0xbc
 202 472 145 445 121 384 c 1
 197 342 l 1
 174 332 134 306 134 248 c 2
 134 68 l 1
 193 68 l 1
EndSplineSet
LCarets2: 1 0 
EndChar
StartChar: uniF784
Encoding: 347 63364 346
Width: 874
VWidth: 1267
Flags: HW
HStem: 0 21G<12 134> 466 68<577.6 745.3> 472 68<185.8 347>
VStem: 64 70<68 279> 395 71<-192 448.8> 741 70<-192 415.2>
Fore
520 485 m 1xdc
 549 508 591 534 640 534 c 0
 761 534 811 440 811 332 c 2
 811 -192 l 1
 741 -192 l 1
 741 332 l 2
 741 396 721 466 640 466 c 0
 592 466 546 423 520 402 c 1
 520 485 l 1xdc
12 0 m 1
 35 68 l 1
 64 68 l 1
 64 248 l 2
 64 279 81 310 103 332 c 1
 44 362 l 1
 81 511 196 540 256 540 c 0
 371 540 466 449 466 337 c 2
 466 -192 l 1
 395 -192 l 1
 395 337 l 2
 395 423 326 472 256 472 c 0xbc
 202 472 145 445 120 384 c 1
 196 342 l 1
 173 332 134 306 134 248 c 2
 134 0 l 1
 12 0 l 1
EndSplineSet
EndChar
StartChar: uniFB00
Encoding: 348 64256 347
Width: 507
VWidth: 1333
Flags: HW
HStem: 0 21G<64 136 313 385> 385 68<24 64 136 312 385 488> 581 59<173.9 297.4> 608 59<420.5 508>
VStem: 64 72<0 385> 312 71<0 385 453 511.051>
Fore
356 600 m 1xec
 388 640 437 667 492 667 c 2
 508 667 l 1
 508 608 l 1
 492 608 l 2xdc
 436 608 383 538 383 464 c 2
 383 453 l 1
 507 453 l 1
 488 385 l 1
 385 385 l 1
 385 0 l 1
 313 0 l 1
 313 385 l 1
 136 385 l 1
 136 0 l 1
 64 0 l 1
 64 385 l 1
 24 385 l 1
 24 453 l 1
 64 453 l 1
 68 556 144 640 244 640 c 0
 287 640 326 627 356 600 c 1xec
136 453 m 1
 312 453 l 1
 312 464 l 2
 312 495 319 531 330 557 c 1
 313 573 289 581 261 581 c 0xec
 194 581 140 528 136 453 c 1
EndSplineSet
LCarets2: 1 0 
Ligature2: "'liga' Standard Ligatures in Latin lookup 0" f f
EndChar
StartChar: uniFB01
Encoding: 349 64257 348
Width: 429
VWidth: 1333
Flags: HW
HStem: 0 21G<64 136 313 384> 385 68<24 64 136 313> 615 58<170 296.447>
VStem: 64 72<0 385 453 556> 313 71<0 385>
Fore
136 453 m 1
 384 453 l 1
 384 0 l 1
 313 0 l 1
 313 385 l 1
 136 385 l 1
 136 0 l 1
 64 0 l 1
 64 385 l 1
 24 385 l 1
 24 453 l 1
 64 453 l 1
 64 477 l 2
 64 585 141 673 244 673 c 0
 348 673 399 606 403 555 c 0
 406 502 336 483 312 529 c 0
 299 553 311 582 333 593 c 1
 316 607 287 615 261 615 c 0
 191 615 136 556 136 477 c 2
 136 453 l 1
EndSplineSet
LCarets2: 1 0 
Ligature2: "'liga' Standard Ligatures in Latin lookup 0" f i
EndChar
StartChar: uniFB02
Encoding: 350 64258 349
Width: 447
VWidth: 1333
Flags: HW
HStem: 0 21G<64 136 313 384> 385 68<24 64 136 244> 608 59<190 313>
VStem: 64 72<0 385 453 565.9> 313 71<0 608>
Fore
384 0 m 1
 313 0 l 1
 313 608 l 1
 245 608 l 2
 190 608 136 544 136 471 c 2
 136 453 l 1
 268 453 l 1
 244 385 l 1
 136 385 l 1
 136 0 l 1
 64 0 l 1
 64 385 l 1
 24 385 l 1
 24 453 l 5
 64 453 l 1
 64 471 l 2
 64 577 142 667 244 667 c 2
 384 667 l 1
 384 0 l 1
EndSplineSet
LCarets2: 1 0 
Ligature2: "'liga' Standard Ligatures in Latin lookup 0" f l
EndChar
StartChar: uniFB03
Encoding: 351 64259 350
Width: 678
VWidth: 1333
Flags: HW
HStem: 0 21G<64 136 313 384 563 633> 385 68<24 64 136 313 384 563> 581 59<173.9 297.4> 608 59<420.2 546.603>
VStem: 64 72<0 385> 313 71<0 385 453 507.294> 551 96<510.2 566.1> 563 70<0 385>
Fore
384 453 m 1xde
 633 453 l 1
 633 0 l 1
 563 0 l 1
 563 385 l 1
 384 385 l 1
 384 0 l 1
 313 0 l 1
 313 385 l 1
 136 385 l 1
 136 0 l 1
 64 0 l 1
 64 385 l 1
 24 385 l 1
 24 453 l 1
 64 453 l 1
 68 556 144 640 244 640 c 0xed
 302 640 337 618 357 600 c 1
 389 640 437 667 493 667 c 0
 597 667 643 600 647 548 c 0
 647 507 616 496 598 496 c 0
 571 496 551 518 551 544 c 0
 551 561 561 578 577 587 c 1
 560 601 536 608 511 608 c 0
 440 608 384 550 384 471 c 2
 384 453 l 1xde
136 453 m 1
 313 453 l 1
 313 471 l 2
 313 501 319 531 330 557 c 1
 313 573 289 581 261 581 c 0
 194 581 140 528 136 453 c 1
EndSplineSet
LCarets2: 2 0 0 
Ligature2: "'liga' Standard Ligatures in Latin lookup 0" f f i
EndChar
StartChar: uniFB04
Encoding: 352 64260 351
Width: 681
VWidth: 1333
Flags: HW
HStem: 0 21G<64 136 313 385 563 633> 385 68<24 64 136 313 385 493> 581 59<173.9 297.4> 608 59<420.2 563>
VStem: 64 72<0 385> 313 72<0 385 453 518.183> 563 70<0 608>
Fore
517 453 m 1xde
 493 385 l 1
 385 385 l 1
 385 0 l 1
 313 0 l 1
 313 385 l 1
 136 385 l 1
 136 0 l 1
 64 0 l 1
 64 385 l 1
 24 385 l 1
 24 453 l 1
 64 453 l 1
 68 556 144 640 244 640 c 0xee
 302 640 337 618 357 600 c 1
 389 640 437 667 493 667 c 2
 633 667 l 1
 633 0 l 1
 563 0 l 1
 563 608 l 1
 511 608 l 2
 440 608 385 550 385 471 c 2
 385 453 l 1
 517 453 l 1xde
136 453 m 1
 313 453 l 1
 313 471 l 2
 313 501 319 531 330 557 c 1
 313 573 289 581 261 581 c 0
 194 581 140 528 136 453 c 1
EndSplineSet
LCarets2: 2 0 0 
Ligature2: "'liga' Standard Ligatures in Latin lookup 0" f f l
EndChar
